G04 (created by PCBNEW (2013-07-07 BZR 4022)-stable) date 14/01/2015 15:32:02*
%MOIN*%
G04 Gerber Fmt 3.4, Leading zero omitted, Abs format*
%FSLAX34Y34*%
G01*
G70*
G90*
G04 APERTURE LIST*
%ADD10C,0.00590551*%
G04 APERTURE END LIST*
G54D10*
G36*
X98092Y-33547D02*
X98092Y-33551D01*
X98092Y-33554D01*
X98092Y-33554D01*
X98086Y-33600D01*
X98086Y-33600D01*
X98086Y-33600D01*
X98073Y-33644D01*
X98050Y-33685D01*
X98021Y-33720D01*
X97985Y-33749D01*
X97944Y-33770D01*
X97900Y-33783D01*
X97854Y-33787D01*
X97808Y-33782D01*
X97764Y-33769D01*
X97723Y-33747D01*
X97688Y-33717D01*
X97659Y-33682D01*
X97637Y-33641D01*
X97624Y-33597D01*
X97619Y-33547D01*
X97619Y-33117D01*
X97619Y-33114D01*
X97619Y-33110D01*
X97619Y-33110D01*
X97624Y-33064D01*
X97624Y-33064D01*
X97624Y-33064D01*
X97638Y-33021D01*
X97661Y-32980D01*
X97690Y-32945D01*
X97726Y-32916D01*
X97767Y-32894D01*
X97811Y-32881D01*
X97857Y-32877D01*
X97903Y-32882D01*
X97947Y-32896D01*
X97988Y-32918D01*
X98023Y-32947D01*
X98052Y-32983D01*
X98074Y-33023D01*
X98087Y-33067D01*
X98092Y-33117D01*
X98092Y-33547D01*
X98092Y-33547D01*
G37*
G36*
X98096Y-39401D02*
X98096Y-39405D01*
X98096Y-39408D01*
X98096Y-39409D01*
X98090Y-39454D01*
X98090Y-39454D01*
X98090Y-39455D01*
X98077Y-39498D01*
X98054Y-39539D01*
X98025Y-39574D01*
X97989Y-39603D01*
X97948Y-39624D01*
X97903Y-39637D01*
X97858Y-39642D01*
X97812Y-39637D01*
X97768Y-39623D01*
X97727Y-39601D01*
X97692Y-39572D01*
X97663Y-39536D01*
X97641Y-39495D01*
X97628Y-39451D01*
X97623Y-39401D01*
X97623Y-38972D01*
X97623Y-38968D01*
X97623Y-38965D01*
X97623Y-38964D01*
X97628Y-38919D01*
X97628Y-38919D01*
X97628Y-38918D01*
X97642Y-38875D01*
X97665Y-38834D01*
X97694Y-38799D01*
X97730Y-38770D01*
X97771Y-38749D01*
X97815Y-38736D01*
X97861Y-38731D01*
X97907Y-38736D01*
X97951Y-38750D01*
X97992Y-38772D01*
X98027Y-38801D01*
X98056Y-38837D01*
X98078Y-38878D01*
X98091Y-38922D01*
X98096Y-38972D01*
X98096Y-39401D01*
X98096Y-39401D01*
G37*
G36*
X98458Y-40869D02*
X98028Y-40869D01*
X98028Y-40390D01*
X98458Y-40390D01*
X98458Y-40869D01*
X98458Y-40869D01*
G37*
G36*
X98523Y-41417D02*
X98090Y-41417D01*
X98090Y-40944D01*
X98523Y-40944D01*
X98523Y-41417D01*
X98523Y-41417D01*
G37*
G36*
X98692Y-33547D02*
X98692Y-33551D01*
X98692Y-33554D01*
X98692Y-33554D01*
X98686Y-33600D01*
X98686Y-33600D01*
X98686Y-33600D01*
X98673Y-33644D01*
X98650Y-33685D01*
X98621Y-33720D01*
X98585Y-33749D01*
X98544Y-33770D01*
X98500Y-33783D01*
X98454Y-33787D01*
X98408Y-33782D01*
X98364Y-33769D01*
X98323Y-33747D01*
X98288Y-33717D01*
X98259Y-33682D01*
X98237Y-33641D01*
X98224Y-33597D01*
X98219Y-33547D01*
X98219Y-33117D01*
X98219Y-33114D01*
X98219Y-33110D01*
X98219Y-33110D01*
X98224Y-33064D01*
X98224Y-33064D01*
X98224Y-33064D01*
X98238Y-33021D01*
X98261Y-32980D01*
X98290Y-32945D01*
X98326Y-32916D01*
X98367Y-32894D01*
X98411Y-32881D01*
X98457Y-32877D01*
X98503Y-32882D01*
X98547Y-32896D01*
X98588Y-32918D01*
X98623Y-32947D01*
X98652Y-32983D01*
X98674Y-33023D01*
X98687Y-33067D01*
X98692Y-33117D01*
X98692Y-33547D01*
X98692Y-33547D01*
G37*
G36*
X98696Y-39401D02*
X98696Y-39405D01*
X98696Y-39408D01*
X98696Y-39409D01*
X98690Y-39454D01*
X98690Y-39454D01*
X98690Y-39455D01*
X98677Y-39498D01*
X98654Y-39539D01*
X98625Y-39574D01*
X98589Y-39603D01*
X98548Y-39624D01*
X98503Y-39637D01*
X98458Y-39642D01*
X98412Y-39637D01*
X98368Y-39623D01*
X98327Y-39601D01*
X98292Y-39572D01*
X98263Y-39536D01*
X98241Y-39495D01*
X98228Y-39451D01*
X98223Y-39401D01*
X98223Y-38972D01*
X98223Y-38968D01*
X98223Y-38965D01*
X98223Y-38964D01*
X98228Y-38919D01*
X98228Y-38919D01*
X98228Y-38918D01*
X98242Y-38875D01*
X98265Y-38834D01*
X98294Y-38799D01*
X98330Y-38770D01*
X98371Y-38749D01*
X98415Y-38736D01*
X98461Y-38731D01*
X98507Y-38736D01*
X98551Y-38750D01*
X98592Y-38772D01*
X98627Y-38801D01*
X98656Y-38837D01*
X98678Y-38878D01*
X98691Y-38922D01*
X98696Y-38972D01*
X98696Y-39401D01*
X98696Y-39401D01*
G37*
G36*
X99058Y-40869D02*
X98628Y-40869D01*
X98628Y-40390D01*
X99058Y-40390D01*
X99058Y-40869D01*
X99058Y-40869D01*
G37*
G36*
X99153Y-41417D02*
X98720Y-41417D01*
X98720Y-40944D01*
X99153Y-40944D01*
X99153Y-41417D01*
X99153Y-41417D01*
G37*
G36*
X99292Y-33547D02*
X99292Y-33551D01*
X99292Y-33554D01*
X99292Y-33554D01*
X99286Y-33600D01*
X99286Y-33600D01*
X99286Y-33600D01*
X99273Y-33644D01*
X99250Y-33685D01*
X99221Y-33720D01*
X99185Y-33749D01*
X99144Y-33770D01*
X99100Y-33783D01*
X99054Y-33787D01*
X99008Y-33782D01*
X98964Y-33769D01*
X98923Y-33747D01*
X98888Y-33717D01*
X98859Y-33682D01*
X98837Y-33641D01*
X98824Y-33597D01*
X98819Y-33547D01*
X98819Y-33117D01*
X98819Y-33114D01*
X98819Y-33110D01*
X98819Y-33110D01*
X98824Y-33064D01*
X98824Y-33064D01*
X98824Y-33064D01*
X98838Y-33021D01*
X98861Y-32980D01*
X98890Y-32945D01*
X98926Y-32916D01*
X98967Y-32894D01*
X99011Y-32881D01*
X99057Y-32877D01*
X99103Y-32882D01*
X99147Y-32896D01*
X99188Y-32918D01*
X99223Y-32947D01*
X99252Y-32983D01*
X99274Y-33023D01*
X99287Y-33067D01*
X99292Y-33117D01*
X99292Y-33547D01*
X99292Y-33547D01*
G37*
G36*
X99296Y-39401D02*
X99296Y-39405D01*
X99296Y-39408D01*
X99296Y-39409D01*
X99290Y-39454D01*
X99290Y-39454D01*
X99290Y-39455D01*
X99277Y-39498D01*
X99254Y-39539D01*
X99225Y-39574D01*
X99189Y-39603D01*
X99148Y-39624D01*
X99103Y-39637D01*
X99058Y-39642D01*
X99012Y-39637D01*
X98968Y-39623D01*
X98927Y-39601D01*
X98892Y-39572D01*
X98863Y-39536D01*
X98841Y-39495D01*
X98828Y-39451D01*
X98823Y-39401D01*
X98823Y-38972D01*
X98823Y-38968D01*
X98823Y-38965D01*
X98823Y-38964D01*
X98828Y-38919D01*
X98828Y-38919D01*
X98828Y-38918D01*
X98842Y-38875D01*
X98865Y-38834D01*
X98894Y-38799D01*
X98930Y-38770D01*
X98971Y-38749D01*
X99015Y-38736D01*
X99061Y-38731D01*
X99107Y-38736D01*
X99151Y-38750D01*
X99192Y-38772D01*
X99227Y-38801D01*
X99256Y-38837D01*
X99278Y-38878D01*
X99291Y-38922D01*
X99296Y-38972D01*
X99296Y-39401D01*
X99296Y-39401D01*
G37*
G36*
X99783Y-41417D02*
X99350Y-41417D01*
X99350Y-40944D01*
X99783Y-40944D01*
X99783Y-41417D01*
X99783Y-41417D01*
G37*
G36*
X99892Y-33547D02*
X99892Y-33551D01*
X99892Y-33554D01*
X99892Y-33554D01*
X99886Y-33600D01*
X99886Y-33600D01*
X99886Y-33600D01*
X99873Y-33644D01*
X99850Y-33685D01*
X99821Y-33720D01*
X99785Y-33749D01*
X99744Y-33770D01*
X99700Y-33783D01*
X99654Y-33787D01*
X99608Y-33782D01*
X99564Y-33769D01*
X99523Y-33747D01*
X99488Y-33717D01*
X99459Y-33682D01*
X99437Y-33641D01*
X99424Y-33597D01*
X99419Y-33547D01*
X99419Y-33117D01*
X99419Y-33114D01*
X99419Y-33110D01*
X99419Y-33110D01*
X99424Y-33064D01*
X99424Y-33064D01*
X99424Y-33064D01*
X99438Y-33021D01*
X99461Y-32980D01*
X99490Y-32945D01*
X99526Y-32916D01*
X99567Y-32894D01*
X99611Y-32881D01*
X99657Y-32877D01*
X99703Y-32882D01*
X99747Y-32896D01*
X99788Y-32918D01*
X99823Y-32947D01*
X99852Y-32983D01*
X99874Y-33023D01*
X99887Y-33067D01*
X99892Y-33117D01*
X99892Y-33547D01*
X99892Y-33547D01*
G37*
G36*
X99896Y-39401D02*
X99896Y-39405D01*
X99896Y-39408D01*
X99896Y-39409D01*
X99890Y-39454D01*
X99890Y-39454D01*
X99890Y-39455D01*
X99877Y-39498D01*
X99854Y-39539D01*
X99825Y-39574D01*
X99789Y-39603D01*
X99748Y-39624D01*
X99703Y-39637D01*
X99658Y-39642D01*
X99612Y-39637D01*
X99568Y-39623D01*
X99527Y-39601D01*
X99492Y-39572D01*
X99463Y-39536D01*
X99441Y-39495D01*
X99428Y-39451D01*
X99423Y-39401D01*
X99423Y-38972D01*
X99423Y-38968D01*
X99423Y-38965D01*
X99423Y-38964D01*
X99428Y-38919D01*
X99428Y-38919D01*
X99428Y-38918D01*
X99442Y-38875D01*
X99465Y-38834D01*
X99494Y-38799D01*
X99530Y-38770D01*
X99571Y-38749D01*
X99615Y-38736D01*
X99661Y-38731D01*
X99707Y-38736D01*
X99751Y-38750D01*
X99792Y-38772D01*
X99827Y-38801D01*
X99856Y-38837D01*
X99878Y-38878D01*
X99891Y-38922D01*
X99896Y-38972D01*
X99896Y-39401D01*
X99896Y-39401D01*
G37*
G36*
X99954Y-31302D02*
X99524Y-31302D01*
X99524Y-30823D01*
X99954Y-30823D01*
X99954Y-31302D01*
X99954Y-31302D01*
G37*
G36*
X100413Y-41417D02*
X99980Y-41417D01*
X99980Y-40944D01*
X100413Y-40944D01*
X100413Y-41417D01*
X100413Y-41417D01*
G37*
G36*
X100492Y-33547D02*
X100492Y-33551D01*
X100492Y-33554D01*
X100492Y-33554D01*
X100486Y-33600D01*
X100486Y-33600D01*
X100486Y-33600D01*
X100473Y-33644D01*
X100450Y-33685D01*
X100421Y-33720D01*
X100385Y-33749D01*
X100344Y-33770D01*
X100300Y-33783D01*
X100254Y-33787D01*
X100208Y-33782D01*
X100164Y-33769D01*
X100123Y-33747D01*
X100088Y-33717D01*
X100059Y-33682D01*
X100037Y-33641D01*
X100024Y-33597D01*
X100019Y-33547D01*
X100019Y-33117D01*
X100019Y-33114D01*
X100019Y-33110D01*
X100019Y-33110D01*
X100024Y-33064D01*
X100024Y-33064D01*
X100024Y-33064D01*
X100038Y-33021D01*
X100061Y-32980D01*
X100090Y-32945D01*
X100126Y-32916D01*
X100167Y-32894D01*
X100211Y-32881D01*
X100257Y-32877D01*
X100303Y-32882D01*
X100347Y-32896D01*
X100388Y-32918D01*
X100423Y-32947D01*
X100452Y-32983D01*
X100474Y-33023D01*
X100487Y-33067D01*
X100492Y-33117D01*
X100492Y-33547D01*
X100492Y-33547D01*
G37*
G36*
X100496Y-39401D02*
X100496Y-39405D01*
X100496Y-39408D01*
X100496Y-39409D01*
X100490Y-39454D01*
X100490Y-39454D01*
X100490Y-39455D01*
X100477Y-39498D01*
X100454Y-39539D01*
X100425Y-39574D01*
X100389Y-39603D01*
X100348Y-39624D01*
X100303Y-39637D01*
X100258Y-39642D01*
X100212Y-39637D01*
X100168Y-39623D01*
X100127Y-39601D01*
X100092Y-39572D01*
X100063Y-39536D01*
X100041Y-39495D01*
X100028Y-39451D01*
X100023Y-39401D01*
X100023Y-38972D01*
X100023Y-38968D01*
X100023Y-38965D01*
X100023Y-38964D01*
X100028Y-38919D01*
X100028Y-38919D01*
X100028Y-38918D01*
X100042Y-38875D01*
X100065Y-38834D01*
X100094Y-38799D01*
X100130Y-38770D01*
X100171Y-38749D01*
X100215Y-38736D01*
X100261Y-38731D01*
X100307Y-38736D01*
X100351Y-38750D01*
X100392Y-38772D01*
X100427Y-38801D01*
X100456Y-38837D01*
X100478Y-38878D01*
X100491Y-38922D01*
X100496Y-38972D01*
X100496Y-39401D01*
X100496Y-39401D01*
G37*
G36*
X100554Y-31302D02*
X100124Y-31302D01*
X100124Y-30823D01*
X100554Y-30823D01*
X100554Y-31302D01*
X100554Y-31302D01*
G37*
G36*
X100977Y-41420D02*
X100548Y-41420D01*
X100548Y-40941D01*
X100977Y-40941D01*
X100977Y-41420D01*
X100977Y-41420D01*
G37*
G36*
X101092Y-33547D02*
X101092Y-33551D01*
X101092Y-33554D01*
X101092Y-33554D01*
X101086Y-33600D01*
X101086Y-33600D01*
X101086Y-33600D01*
X101073Y-33644D01*
X101050Y-33685D01*
X101021Y-33720D01*
X100985Y-33749D01*
X100944Y-33770D01*
X100900Y-33783D01*
X100854Y-33787D01*
X100808Y-33782D01*
X100764Y-33769D01*
X100723Y-33747D01*
X100688Y-33717D01*
X100659Y-33682D01*
X100637Y-33641D01*
X100624Y-33597D01*
X100619Y-33547D01*
X100619Y-33117D01*
X100619Y-33114D01*
X100619Y-33110D01*
X100619Y-33110D01*
X100624Y-33064D01*
X100624Y-33064D01*
X100624Y-33064D01*
X100638Y-33021D01*
X100661Y-32980D01*
X100690Y-32945D01*
X100726Y-32916D01*
X100767Y-32894D01*
X100811Y-32881D01*
X100857Y-32877D01*
X100903Y-32882D01*
X100947Y-32896D01*
X100988Y-32918D01*
X101023Y-32947D01*
X101052Y-32983D01*
X101074Y-33023D01*
X101087Y-33067D01*
X101092Y-33117D01*
X101092Y-33547D01*
X101092Y-33547D01*
G37*
G36*
X101096Y-39401D02*
X101096Y-39405D01*
X101096Y-39408D01*
X101096Y-39409D01*
X101090Y-39454D01*
X101090Y-39454D01*
X101090Y-39455D01*
X101077Y-39498D01*
X101054Y-39539D01*
X101025Y-39574D01*
X100989Y-39603D01*
X100948Y-39624D01*
X100903Y-39637D01*
X100858Y-39642D01*
X100812Y-39637D01*
X100768Y-39623D01*
X100727Y-39601D01*
X100692Y-39572D01*
X100663Y-39536D01*
X100641Y-39495D01*
X100628Y-39451D01*
X100623Y-39401D01*
X100623Y-38972D01*
X100623Y-38968D01*
X100623Y-38965D01*
X100623Y-38964D01*
X100628Y-38919D01*
X100628Y-38919D01*
X100628Y-38918D01*
X100642Y-38875D01*
X100665Y-38834D01*
X100694Y-38799D01*
X100730Y-38770D01*
X100771Y-38749D01*
X100815Y-38736D01*
X100861Y-38731D01*
X100907Y-38736D01*
X100951Y-38750D01*
X100992Y-38772D01*
X101027Y-38801D01*
X101056Y-38837D01*
X101078Y-38878D01*
X101091Y-38922D01*
X101096Y-38972D01*
X101096Y-39401D01*
X101096Y-39401D01*
G37*
G36*
X101122Y-31299D02*
X100688Y-31299D01*
X100688Y-30826D01*
X101122Y-30826D01*
X101122Y-31299D01*
X101122Y-31299D01*
G37*
G36*
X101577Y-41420D02*
X101148Y-41420D01*
X101148Y-40941D01*
X101577Y-40941D01*
X101577Y-41420D01*
X101577Y-41420D01*
G37*
G36*
X101692Y-33547D02*
X101692Y-33551D01*
X101692Y-33554D01*
X101692Y-33554D01*
X101686Y-33600D01*
X101686Y-33600D01*
X101686Y-33600D01*
X101673Y-33644D01*
X101650Y-33685D01*
X101621Y-33720D01*
X101585Y-33749D01*
X101544Y-33770D01*
X101500Y-33783D01*
X101454Y-33787D01*
X101408Y-33782D01*
X101364Y-33769D01*
X101323Y-33747D01*
X101288Y-33717D01*
X101259Y-33682D01*
X101237Y-33641D01*
X101224Y-33597D01*
X101219Y-33547D01*
X101219Y-33117D01*
X101219Y-33114D01*
X101219Y-33110D01*
X101219Y-33110D01*
X101224Y-33064D01*
X101224Y-33064D01*
X101224Y-33064D01*
X101238Y-33021D01*
X101261Y-32980D01*
X101290Y-32945D01*
X101326Y-32916D01*
X101367Y-32894D01*
X101411Y-32881D01*
X101457Y-32877D01*
X101503Y-32882D01*
X101547Y-32896D01*
X101588Y-32918D01*
X101623Y-32947D01*
X101652Y-32983D01*
X101674Y-33023D01*
X101687Y-33067D01*
X101692Y-33117D01*
X101692Y-33547D01*
X101692Y-33547D01*
G37*
G36*
X101696Y-39401D02*
X101696Y-39405D01*
X101696Y-39408D01*
X101696Y-39409D01*
X101690Y-39454D01*
X101690Y-39454D01*
X101690Y-39455D01*
X101677Y-39498D01*
X101654Y-39539D01*
X101625Y-39574D01*
X101589Y-39603D01*
X101548Y-39624D01*
X101503Y-39637D01*
X101458Y-39642D01*
X101412Y-39637D01*
X101368Y-39623D01*
X101327Y-39601D01*
X101292Y-39572D01*
X101263Y-39536D01*
X101241Y-39495D01*
X101228Y-39451D01*
X101223Y-39401D01*
X101223Y-38972D01*
X101223Y-38968D01*
X101223Y-38965D01*
X101223Y-38964D01*
X101228Y-38919D01*
X101228Y-38919D01*
X101228Y-38918D01*
X101242Y-38875D01*
X101265Y-38834D01*
X101294Y-38799D01*
X101330Y-38770D01*
X101371Y-38749D01*
X101415Y-38736D01*
X101461Y-38731D01*
X101507Y-38736D01*
X101551Y-38750D01*
X101592Y-38772D01*
X101627Y-38801D01*
X101656Y-38837D01*
X101678Y-38878D01*
X101691Y-38922D01*
X101696Y-38972D01*
X101696Y-39401D01*
X101696Y-39401D01*
G37*
G36*
X101752Y-31299D02*
X101318Y-31299D01*
X101318Y-30826D01*
X101752Y-30826D01*
X101752Y-31299D01*
X101752Y-31299D01*
G37*
G36*
X102292Y-33547D02*
X102292Y-33551D01*
X102292Y-33554D01*
X102292Y-33554D01*
X102286Y-33600D01*
X102286Y-33600D01*
X102286Y-33600D01*
X102273Y-33644D01*
X102250Y-33685D01*
X102221Y-33720D01*
X102185Y-33749D01*
X102144Y-33770D01*
X102100Y-33783D01*
X102054Y-33787D01*
X102008Y-33782D01*
X101964Y-33769D01*
X101923Y-33747D01*
X101888Y-33717D01*
X101859Y-33682D01*
X101837Y-33641D01*
X101824Y-33597D01*
X101819Y-33547D01*
X101819Y-33117D01*
X101819Y-33114D01*
X101819Y-33110D01*
X101819Y-33110D01*
X101824Y-33064D01*
X101824Y-33064D01*
X101824Y-33064D01*
X101838Y-33021D01*
X101861Y-32980D01*
X101890Y-32945D01*
X101926Y-32916D01*
X101967Y-32894D01*
X102011Y-32881D01*
X102057Y-32877D01*
X102103Y-32882D01*
X102147Y-32896D01*
X102188Y-32918D01*
X102223Y-32947D01*
X102252Y-32983D01*
X102274Y-33023D01*
X102287Y-33067D01*
X102292Y-33117D01*
X102292Y-33547D01*
X102292Y-33547D01*
G37*
G36*
X102296Y-39401D02*
X102296Y-39405D01*
X102296Y-39408D01*
X102296Y-39409D01*
X102290Y-39454D01*
X102290Y-39454D01*
X102290Y-39455D01*
X102277Y-39498D01*
X102254Y-39539D01*
X102225Y-39574D01*
X102189Y-39603D01*
X102148Y-39624D01*
X102103Y-39637D01*
X102058Y-39642D01*
X102012Y-39637D01*
X101968Y-39623D01*
X101927Y-39601D01*
X101892Y-39572D01*
X101863Y-39536D01*
X101841Y-39495D01*
X101828Y-39451D01*
X101823Y-39401D01*
X101823Y-38972D01*
X101823Y-38968D01*
X101823Y-38965D01*
X101823Y-38964D01*
X101828Y-38919D01*
X101828Y-38919D01*
X101828Y-38918D01*
X101842Y-38875D01*
X101865Y-38834D01*
X101894Y-38799D01*
X101930Y-38770D01*
X101971Y-38749D01*
X102015Y-38736D01*
X102061Y-38731D01*
X102107Y-38736D01*
X102151Y-38750D01*
X102192Y-38772D01*
X102227Y-38801D01*
X102256Y-38837D01*
X102278Y-38878D01*
X102291Y-38922D01*
X102296Y-38972D01*
X102296Y-39401D01*
X102296Y-39401D01*
G37*
G36*
X102559Y-37874D02*
X101795Y-37874D01*
X101787Y-37874D01*
X101677Y-37874D01*
X101669Y-37874D01*
X101007Y-37874D01*
X101000Y-37874D01*
X100889Y-37874D01*
X100881Y-37874D01*
X100220Y-37874D01*
X100212Y-37874D01*
X100102Y-37874D01*
X100094Y-37874D01*
X99432Y-37874D01*
X99425Y-37874D01*
X99314Y-37874D01*
X99307Y-37874D01*
X98542Y-37874D01*
X98542Y-37110D01*
X98542Y-37102D01*
X98542Y-36992D01*
X98542Y-36984D01*
X98542Y-36322D01*
X98542Y-36315D01*
X98542Y-36204D01*
X98542Y-36196D01*
X98542Y-35535D01*
X98542Y-35527D01*
X98542Y-35417D01*
X98542Y-35409D01*
X98542Y-34645D01*
X99307Y-34645D01*
X99314Y-34645D01*
X99425Y-34645D01*
X99432Y-34645D01*
X100094Y-34645D01*
X100102Y-34645D01*
X100212Y-34645D01*
X100220Y-34645D01*
X100881Y-34645D01*
X100889Y-34645D01*
X101000Y-34645D01*
X101007Y-34645D01*
X101669Y-34645D01*
X101677Y-34645D01*
X101787Y-34645D01*
X101795Y-34645D01*
X102559Y-34645D01*
X102559Y-35409D01*
X102559Y-35417D01*
X102559Y-35527D01*
X102559Y-35535D01*
X102559Y-36196D01*
X102559Y-36204D01*
X102559Y-36315D01*
X102559Y-36322D01*
X102559Y-36984D01*
X102559Y-36992D01*
X102559Y-37102D01*
X102559Y-37110D01*
X102559Y-37874D01*
X102559Y-37874D01*
G37*
G36*
X102892Y-33547D02*
X102892Y-33551D01*
X102892Y-33554D01*
X102892Y-33554D01*
X102886Y-33600D01*
X102886Y-33600D01*
X102886Y-33600D01*
X102873Y-33644D01*
X102850Y-33685D01*
X102821Y-33720D01*
X102785Y-33749D01*
X102744Y-33770D01*
X102700Y-33783D01*
X102654Y-33787D01*
X102608Y-33782D01*
X102564Y-33769D01*
X102523Y-33747D01*
X102488Y-33717D01*
X102459Y-33682D01*
X102437Y-33641D01*
X102424Y-33597D01*
X102419Y-33547D01*
X102419Y-33117D01*
X102419Y-33114D01*
X102419Y-33110D01*
X102419Y-33110D01*
X102424Y-33064D01*
X102424Y-33064D01*
X102424Y-33064D01*
X102438Y-33021D01*
X102461Y-32980D01*
X102490Y-32945D01*
X102526Y-32916D01*
X102567Y-32894D01*
X102611Y-32881D01*
X102657Y-32877D01*
X102703Y-32882D01*
X102747Y-32896D01*
X102788Y-32918D01*
X102823Y-32947D01*
X102852Y-32983D01*
X102874Y-33023D01*
X102887Y-33067D01*
X102892Y-33117D01*
X102892Y-33547D01*
X102892Y-33547D01*
G37*
G36*
X102896Y-39401D02*
X102896Y-39405D01*
X102896Y-39408D01*
X102896Y-39409D01*
X102890Y-39454D01*
X102890Y-39454D01*
X102890Y-39455D01*
X102877Y-39498D01*
X102854Y-39539D01*
X102825Y-39574D01*
X102789Y-39603D01*
X102748Y-39624D01*
X102703Y-39637D01*
X102658Y-39642D01*
X102612Y-39637D01*
X102568Y-39623D01*
X102527Y-39601D01*
X102492Y-39572D01*
X102463Y-39536D01*
X102441Y-39495D01*
X102428Y-39451D01*
X102423Y-39401D01*
X102423Y-38972D01*
X102423Y-38968D01*
X102423Y-38965D01*
X102423Y-38964D01*
X102428Y-38919D01*
X102428Y-38919D01*
X102428Y-38918D01*
X102442Y-38875D01*
X102465Y-38834D01*
X102494Y-38799D01*
X102530Y-38770D01*
X102571Y-38749D01*
X102615Y-38736D01*
X102661Y-38731D01*
X102707Y-38736D01*
X102751Y-38750D01*
X102792Y-38772D01*
X102827Y-38801D01*
X102856Y-38837D01*
X102878Y-38878D01*
X102891Y-38922D01*
X102896Y-38972D01*
X102896Y-39401D01*
X102896Y-39401D01*
G37*
G36*
X103153Y-31319D02*
X102483Y-31319D01*
X102483Y-30649D01*
X103153Y-30649D01*
X103153Y-31319D01*
X103153Y-31319D01*
G37*
G36*
X103492Y-33547D02*
X103492Y-33551D01*
X103492Y-33554D01*
X103492Y-33554D01*
X103486Y-33600D01*
X103486Y-33600D01*
X103486Y-33600D01*
X103473Y-33644D01*
X103450Y-33685D01*
X103421Y-33720D01*
X103385Y-33749D01*
X103344Y-33770D01*
X103300Y-33783D01*
X103254Y-33787D01*
X103208Y-33782D01*
X103164Y-33769D01*
X103123Y-33747D01*
X103088Y-33717D01*
X103059Y-33682D01*
X103037Y-33641D01*
X103024Y-33597D01*
X103019Y-33547D01*
X103019Y-33117D01*
X103019Y-33114D01*
X103019Y-33110D01*
X103019Y-33110D01*
X103024Y-33064D01*
X103024Y-33064D01*
X103024Y-33064D01*
X103038Y-33021D01*
X103061Y-32980D01*
X103090Y-32945D01*
X103126Y-32916D01*
X103167Y-32894D01*
X103211Y-32881D01*
X103257Y-32877D01*
X103303Y-32882D01*
X103347Y-32896D01*
X103388Y-32918D01*
X103423Y-32947D01*
X103452Y-32983D01*
X103474Y-33023D01*
X103487Y-33067D01*
X103492Y-33117D01*
X103492Y-33547D01*
X103492Y-33547D01*
G37*
G36*
X103496Y-39401D02*
X103496Y-39405D01*
X103496Y-39408D01*
X103496Y-39409D01*
X103490Y-39454D01*
X103490Y-39454D01*
X103490Y-39455D01*
X103477Y-39498D01*
X103454Y-39539D01*
X103425Y-39574D01*
X103389Y-39603D01*
X103348Y-39624D01*
X103303Y-39637D01*
X103258Y-39642D01*
X103212Y-39637D01*
X103168Y-39623D01*
X103127Y-39601D01*
X103092Y-39572D01*
X103063Y-39536D01*
X103041Y-39495D01*
X103028Y-39451D01*
X103023Y-39401D01*
X103023Y-38972D01*
X103023Y-38968D01*
X103023Y-38965D01*
X103023Y-38964D01*
X103028Y-38919D01*
X103028Y-38919D01*
X103028Y-38918D01*
X103042Y-38875D01*
X103065Y-38834D01*
X103094Y-38799D01*
X103130Y-38770D01*
X103171Y-38749D01*
X103215Y-38736D01*
X103261Y-38731D01*
X103307Y-38736D01*
X103351Y-38750D01*
X103392Y-38772D01*
X103427Y-38801D01*
X103456Y-38837D01*
X103478Y-38878D01*
X103491Y-38922D01*
X103496Y-38972D01*
X103496Y-39401D01*
X103496Y-39401D01*
G37*
G36*
X104047Y-32133D02*
X104046Y-32206D01*
X104031Y-32272D01*
X104005Y-32330D01*
X103966Y-32386D01*
X103920Y-32429D01*
X103862Y-32466D01*
X103804Y-32488D01*
X103736Y-32500D01*
X103674Y-32499D01*
X103607Y-32484D01*
X103549Y-32459D01*
X103493Y-32420D01*
X103449Y-32375D01*
X103412Y-32317D01*
X103389Y-32259D01*
X103377Y-32191D01*
X103378Y-32129D01*
X103392Y-32062D01*
X103416Y-32004D01*
X103455Y-31947D01*
X103500Y-31904D01*
X103558Y-31866D01*
X103615Y-31843D01*
X103683Y-31830D01*
X103745Y-31830D01*
X103813Y-31844D01*
X103871Y-31868D01*
X103928Y-31907D01*
X103972Y-31951D01*
X104010Y-32009D01*
X104034Y-32066D01*
X104047Y-32132D01*
X104047Y-32133D01*
X104047Y-32133D01*
G37*
G36*
X104048Y-40397D02*
X103619Y-40397D01*
X103619Y-39917D01*
X104048Y-39917D01*
X104048Y-40397D01*
X104048Y-40397D01*
G37*
G36*
X104092Y-33547D02*
X104092Y-33551D01*
X104092Y-33554D01*
X104092Y-33554D01*
X104086Y-33600D01*
X104086Y-33600D01*
X104086Y-33600D01*
X104073Y-33644D01*
X104050Y-33685D01*
X104021Y-33720D01*
X103985Y-33749D01*
X103944Y-33770D01*
X103900Y-33783D01*
X103854Y-33787D01*
X103808Y-33782D01*
X103764Y-33769D01*
X103723Y-33747D01*
X103688Y-33717D01*
X103659Y-33682D01*
X103637Y-33641D01*
X103624Y-33597D01*
X103619Y-33547D01*
X103619Y-33117D01*
X103619Y-33114D01*
X103619Y-33110D01*
X103619Y-33110D01*
X103624Y-33064D01*
X103624Y-33064D01*
X103624Y-33064D01*
X103638Y-33021D01*
X103661Y-32980D01*
X103690Y-32945D01*
X103726Y-32916D01*
X103767Y-32894D01*
X103811Y-32881D01*
X103857Y-32877D01*
X103903Y-32882D01*
X103947Y-32896D01*
X103988Y-32918D01*
X104023Y-32947D01*
X104052Y-32983D01*
X104074Y-33023D01*
X104087Y-33067D01*
X104092Y-33117D01*
X104092Y-33547D01*
X104092Y-33547D01*
G37*
G36*
X104096Y-39401D02*
X104096Y-39405D01*
X104096Y-39408D01*
X104096Y-39409D01*
X104090Y-39454D01*
X104090Y-39454D01*
X104090Y-39455D01*
X104077Y-39498D01*
X104054Y-39539D01*
X104025Y-39574D01*
X103989Y-39603D01*
X103948Y-39624D01*
X103903Y-39637D01*
X103858Y-39642D01*
X103812Y-39637D01*
X103768Y-39623D01*
X103727Y-39601D01*
X103692Y-39572D01*
X103663Y-39536D01*
X103641Y-39495D01*
X103628Y-39451D01*
X103623Y-39401D01*
X103623Y-38972D01*
X103623Y-38968D01*
X103623Y-38965D01*
X103623Y-38964D01*
X103628Y-38919D01*
X103628Y-38919D01*
X103628Y-38918D01*
X103642Y-38875D01*
X103665Y-38834D01*
X103694Y-38799D01*
X103730Y-38770D01*
X103771Y-38749D01*
X103815Y-38736D01*
X103861Y-38731D01*
X103907Y-38736D01*
X103951Y-38750D01*
X103992Y-38772D01*
X104027Y-38801D01*
X104056Y-38837D01*
X104078Y-38878D01*
X104091Y-38922D01*
X104096Y-38972D01*
X104096Y-39401D01*
X104096Y-39401D01*
G37*
G36*
X104153Y-30952D02*
X104152Y-31025D01*
X104137Y-31091D01*
X104112Y-31149D01*
X104072Y-31205D01*
X104027Y-31248D01*
X103969Y-31285D01*
X103910Y-31307D01*
X103843Y-31319D01*
X103780Y-31318D01*
X103713Y-31303D01*
X103656Y-31278D01*
X103599Y-31239D01*
X103556Y-31194D01*
X103518Y-31136D01*
X103495Y-31078D01*
X103483Y-31010D01*
X103484Y-30948D01*
X103498Y-30880D01*
X103523Y-30823D01*
X103562Y-30766D01*
X103606Y-30723D01*
X103664Y-30685D01*
X103722Y-30662D01*
X103790Y-30649D01*
X103852Y-30649D01*
X103920Y-30663D01*
X103977Y-30687D01*
X104034Y-30726D01*
X104078Y-30770D01*
X104116Y-30827D01*
X104140Y-30885D01*
X104153Y-30951D01*
X104153Y-30952D01*
X104153Y-30952D01*
G37*
G36*
X104648Y-40397D02*
X104219Y-40397D01*
X104219Y-39917D01*
X104648Y-39917D01*
X104648Y-40397D01*
X104648Y-40397D01*
G37*
G36*
X104685Y-33785D02*
X104212Y-33785D01*
X104212Y-32879D01*
X104685Y-32879D01*
X104685Y-33785D01*
X104685Y-33785D01*
G37*
G36*
X104696Y-39401D02*
X104696Y-39405D01*
X104696Y-39408D01*
X104696Y-39409D01*
X104690Y-39454D01*
X104690Y-39454D01*
X104690Y-39455D01*
X104677Y-39498D01*
X104654Y-39539D01*
X104625Y-39574D01*
X104589Y-39603D01*
X104548Y-39624D01*
X104503Y-39637D01*
X104458Y-39642D01*
X104412Y-39637D01*
X104368Y-39623D01*
X104327Y-39601D01*
X104292Y-39572D01*
X104263Y-39536D01*
X104241Y-39495D01*
X104228Y-39451D01*
X104223Y-39401D01*
X104223Y-38972D01*
X104223Y-38968D01*
X104223Y-38965D01*
X104223Y-38964D01*
X104228Y-38919D01*
X104228Y-38919D01*
X104228Y-38918D01*
X104242Y-38875D01*
X104265Y-38834D01*
X104294Y-38799D01*
X104330Y-38770D01*
X104371Y-38749D01*
X104415Y-38736D01*
X104461Y-38731D01*
X104507Y-38736D01*
X104551Y-38750D01*
X104592Y-38772D01*
X104627Y-38801D01*
X104656Y-38837D01*
X104678Y-38878D01*
X104691Y-38922D01*
X104696Y-38972D01*
X104696Y-39401D01*
X104696Y-39401D01*
G37*
G36*
X105047Y-32500D02*
X104377Y-32500D01*
X104377Y-31830D01*
X105047Y-31830D01*
X105047Y-32500D01*
X105047Y-32500D01*
G37*
G36*
X105153Y-30952D02*
X105152Y-31025D01*
X105137Y-31091D01*
X105112Y-31149D01*
X105072Y-31205D01*
X105027Y-31248D01*
X104969Y-31285D01*
X104910Y-31307D01*
X104843Y-31319D01*
X104780Y-31318D01*
X104713Y-31303D01*
X104656Y-31278D01*
X104599Y-31239D01*
X104556Y-31194D01*
X104518Y-31136D01*
X104495Y-31078D01*
X104483Y-31010D01*
X104484Y-30948D01*
X104498Y-30880D01*
X104523Y-30823D01*
X104562Y-30766D01*
X104606Y-30723D01*
X104664Y-30685D01*
X104722Y-30662D01*
X104790Y-30649D01*
X104852Y-30649D01*
X104920Y-30663D01*
X104977Y-30687D01*
X105034Y-30726D01*
X105078Y-30770D01*
X105116Y-30827D01*
X105140Y-30885D01*
X105153Y-30951D01*
X105153Y-30952D01*
X105153Y-30952D01*
G37*
G36*
X105331Y-40377D02*
X104892Y-40377D01*
X104892Y-39937D01*
X105331Y-39937D01*
X105331Y-40377D01*
X105331Y-40377D01*
G37*
G36*
X105482Y-34115D02*
X105477Y-34161D01*
X105464Y-34205D01*
X105442Y-34246D01*
X105412Y-34281D01*
X105377Y-34310D01*
X105336Y-34332D01*
X105292Y-34345D01*
X105242Y-34350D01*
X104812Y-34350D01*
X104809Y-34350D01*
X104805Y-34350D01*
X104805Y-34350D01*
X104759Y-34345D01*
X104759Y-34345D01*
X104759Y-34345D01*
X104715Y-34331D01*
X104675Y-34308D01*
X104640Y-34279D01*
X104610Y-34243D01*
X104589Y-34202D01*
X104576Y-34158D01*
X104572Y-34112D01*
X104577Y-34066D01*
X104590Y-34022D01*
X104612Y-33982D01*
X104642Y-33946D01*
X104678Y-33917D01*
X104718Y-33895D01*
X104762Y-33882D01*
X104812Y-33877D01*
X105242Y-33877D01*
X105246Y-33877D01*
X105249Y-33877D01*
X105249Y-33877D01*
X105295Y-33883D01*
X105295Y-33883D01*
X105295Y-33883D01*
X105339Y-33896D01*
X105380Y-33919D01*
X105415Y-33948D01*
X105444Y-33984D01*
X105465Y-34025D01*
X105478Y-34070D01*
X105482Y-34115D01*
X105482Y-34115D01*
G37*
G36*
X105482Y-34718D02*
X105477Y-34764D01*
X105464Y-34807D01*
X105442Y-34848D01*
X105412Y-34884D01*
X105377Y-34913D01*
X105336Y-34934D01*
X105292Y-34948D01*
X105242Y-34953D01*
X104812Y-34953D01*
X104809Y-34953D01*
X104805Y-34952D01*
X104805Y-34952D01*
X104759Y-34947D01*
X104759Y-34947D01*
X104759Y-34947D01*
X104715Y-34933D01*
X104675Y-34911D01*
X104640Y-34881D01*
X104610Y-34845D01*
X104589Y-34805D01*
X104576Y-34760D01*
X104572Y-34715D01*
X104577Y-34668D01*
X104590Y-34625D01*
X104612Y-34584D01*
X104642Y-34548D01*
X104678Y-34519D01*
X104718Y-34498D01*
X104762Y-34484D01*
X104812Y-34479D01*
X105242Y-34479D01*
X105246Y-34479D01*
X105249Y-34480D01*
X105249Y-34480D01*
X105295Y-34485D01*
X105295Y-34485D01*
X105295Y-34485D01*
X105339Y-34499D01*
X105380Y-34521D01*
X105415Y-34551D01*
X105444Y-34587D01*
X105465Y-34627D01*
X105478Y-34672D01*
X105482Y-34718D01*
X105482Y-34718D01*
G37*
G36*
X105482Y-35320D02*
X105477Y-35366D01*
X105464Y-35410D01*
X105442Y-35451D01*
X105412Y-35486D01*
X105377Y-35515D01*
X105336Y-35537D01*
X105292Y-35550D01*
X105242Y-35555D01*
X104812Y-35555D01*
X104809Y-35555D01*
X104805Y-35555D01*
X104805Y-35555D01*
X104759Y-35549D01*
X104759Y-35549D01*
X104759Y-35549D01*
X104715Y-35536D01*
X104675Y-35513D01*
X104640Y-35484D01*
X104610Y-35448D01*
X104589Y-35407D01*
X104576Y-35363D01*
X104572Y-35317D01*
X104577Y-35271D01*
X104590Y-35227D01*
X104612Y-35186D01*
X104642Y-35151D01*
X104678Y-35122D01*
X104718Y-35100D01*
X104762Y-35087D01*
X104812Y-35082D01*
X105242Y-35082D01*
X105246Y-35082D01*
X105249Y-35082D01*
X105249Y-35082D01*
X105295Y-35087D01*
X105295Y-35087D01*
X105295Y-35087D01*
X105339Y-35101D01*
X105380Y-35124D01*
X105415Y-35153D01*
X105444Y-35189D01*
X105465Y-35230D01*
X105478Y-35274D01*
X105482Y-35320D01*
X105482Y-35320D01*
G37*
G36*
X105482Y-35922D02*
X105477Y-35968D01*
X105464Y-36012D01*
X105442Y-36053D01*
X105412Y-36088D01*
X105377Y-36118D01*
X105336Y-36139D01*
X105292Y-36152D01*
X105242Y-36157D01*
X104812Y-36157D01*
X104809Y-36157D01*
X104805Y-36157D01*
X104805Y-36157D01*
X104759Y-36152D01*
X104759Y-36152D01*
X104759Y-36152D01*
X104715Y-36138D01*
X104675Y-36116D01*
X104640Y-36086D01*
X104610Y-36050D01*
X104589Y-36009D01*
X104576Y-35965D01*
X104572Y-35919D01*
X104577Y-35873D01*
X104590Y-35829D01*
X104612Y-35789D01*
X104642Y-35753D01*
X104678Y-35724D01*
X104718Y-35702D01*
X104762Y-35689D01*
X104812Y-35684D01*
X105242Y-35684D01*
X105246Y-35684D01*
X105249Y-35685D01*
X105249Y-35685D01*
X105295Y-35690D01*
X105295Y-35690D01*
X105295Y-35690D01*
X105339Y-35704D01*
X105380Y-35726D01*
X105415Y-35755D01*
X105444Y-35792D01*
X105465Y-35832D01*
X105478Y-35877D01*
X105482Y-35922D01*
X105482Y-35922D01*
G37*
G36*
X105482Y-36525D02*
X105477Y-36571D01*
X105464Y-36615D01*
X105442Y-36655D01*
X105412Y-36691D01*
X105377Y-36720D01*
X105336Y-36742D01*
X105292Y-36755D01*
X105242Y-36760D01*
X104812Y-36760D01*
X104809Y-36760D01*
X104805Y-36759D01*
X104805Y-36759D01*
X104759Y-36754D01*
X104759Y-36754D01*
X104759Y-36754D01*
X104715Y-36740D01*
X104675Y-36718D01*
X104640Y-36689D01*
X104610Y-36652D01*
X104589Y-36612D01*
X104576Y-36567D01*
X104572Y-36522D01*
X104577Y-36476D01*
X104590Y-36432D01*
X104612Y-36391D01*
X104642Y-36356D01*
X104678Y-36326D01*
X104718Y-36305D01*
X104762Y-36291D01*
X104812Y-36287D01*
X105242Y-36287D01*
X105246Y-36287D01*
X105249Y-36287D01*
X105249Y-36287D01*
X105295Y-36292D01*
X105295Y-36292D01*
X105295Y-36292D01*
X105339Y-36306D01*
X105380Y-36328D01*
X105415Y-36358D01*
X105444Y-36394D01*
X105465Y-36434D01*
X105478Y-36479D01*
X105482Y-36525D01*
X105482Y-36525D01*
G37*
G36*
X106131Y-40027D02*
X105692Y-40027D01*
X105692Y-39587D01*
X106131Y-39587D01*
X106131Y-40027D01*
X106131Y-40027D01*
G37*
G36*
X106131Y-40727D02*
X105692Y-40727D01*
X105692Y-40287D01*
X106131Y-40287D01*
X106131Y-40727D01*
X106131Y-40727D01*
G37*
G36*
X106224Y-38300D02*
X105744Y-38300D01*
X105744Y-37871D01*
X106224Y-37871D01*
X106224Y-38300D01*
X106224Y-38300D01*
G37*
G36*
X106224Y-38900D02*
X105744Y-38900D01*
X105744Y-38471D01*
X106224Y-38471D01*
X106224Y-38900D01*
X106224Y-38900D01*
G37*
G36*
X106677Y-31319D02*
X106007Y-31319D01*
X106007Y-30649D01*
X106677Y-30649D01*
X106677Y-31319D01*
X106677Y-31319D01*
G37*
G36*
X107190Y-35886D02*
X106710Y-35886D01*
X106710Y-35457D01*
X107190Y-35457D01*
X107190Y-35886D01*
X107190Y-35886D01*
G37*
G36*
X107190Y-36486D02*
X106710Y-36486D01*
X106710Y-36057D01*
X107190Y-36057D01*
X107190Y-36486D01*
X107190Y-36486D01*
G37*
G36*
X107199Y-34517D02*
X106719Y-34517D01*
X106719Y-34087D01*
X107199Y-34087D01*
X107199Y-34517D01*
X107199Y-34517D01*
G37*
G36*
X107199Y-35117D02*
X106719Y-35117D01*
X106719Y-34687D01*
X107199Y-34687D01*
X107199Y-35117D01*
X107199Y-35117D01*
G37*
G36*
X107247Y-38300D02*
X106768Y-38300D01*
X106768Y-37871D01*
X107247Y-37871D01*
X107247Y-38300D01*
X107247Y-38300D01*
G37*
G36*
X107247Y-38900D02*
X106768Y-38900D01*
X106768Y-38471D01*
X107247Y-38471D01*
X107247Y-38900D01*
X107247Y-38900D01*
G37*
G36*
X107677Y-30952D02*
X107676Y-31025D01*
X107661Y-31091D01*
X107635Y-31149D01*
X107596Y-31205D01*
X107550Y-31248D01*
X107492Y-31285D01*
X107434Y-31307D01*
X107366Y-31319D01*
X107304Y-31318D01*
X107237Y-31303D01*
X107179Y-31278D01*
X107123Y-31239D01*
X107079Y-31194D01*
X107042Y-31136D01*
X107019Y-31078D01*
X107007Y-31010D01*
X107008Y-30948D01*
X107022Y-30880D01*
X107046Y-30823D01*
X107085Y-30766D01*
X107130Y-30723D01*
X107188Y-30685D01*
X107245Y-30662D01*
X107313Y-30649D01*
X107375Y-30649D01*
X107443Y-30663D01*
X107500Y-30687D01*
X107558Y-30726D01*
X107602Y-30770D01*
X107640Y-30827D01*
X107664Y-30885D01*
X107677Y-30951D01*
X107677Y-30952D01*
X107677Y-30952D01*
G37*
G36*
X107877Y-38300D02*
X107398Y-38300D01*
X107398Y-37871D01*
X107877Y-37871D01*
X107877Y-38300D01*
X107877Y-38300D01*
G37*
G36*
X107877Y-38900D02*
X107398Y-38900D01*
X107398Y-38471D01*
X107877Y-38471D01*
X107877Y-38900D01*
X107877Y-38900D01*
G37*
G36*
X108464Y-34275D02*
X108464Y-34330D01*
X108452Y-34381D01*
X108433Y-34425D01*
X108402Y-34468D01*
X108368Y-34501D01*
X108323Y-34529D01*
X108279Y-34546D01*
X108226Y-34555D01*
X108179Y-34554D01*
X108127Y-34543D01*
X108084Y-34524D01*
X108040Y-34494D01*
X108008Y-34460D01*
X107979Y-34415D01*
X107961Y-34371D01*
X107952Y-34319D01*
X107952Y-34272D01*
X107963Y-34219D01*
X107982Y-34176D01*
X108012Y-34132D01*
X108046Y-34099D01*
X108091Y-34070D01*
X108134Y-34052D01*
X108187Y-34042D01*
X108233Y-34043D01*
X108286Y-34053D01*
X108329Y-34072D01*
X108374Y-34102D01*
X108406Y-34135D01*
X108436Y-34180D01*
X108454Y-34223D01*
X108464Y-34275D01*
X108464Y-34275D01*
G37*
G36*
X108464Y-36205D02*
X108464Y-36260D01*
X108452Y-36311D01*
X108433Y-36355D01*
X108402Y-36398D01*
X108368Y-36431D01*
X108323Y-36459D01*
X108279Y-36476D01*
X108226Y-36485D01*
X108179Y-36484D01*
X108127Y-36473D01*
X108084Y-36454D01*
X108040Y-36424D01*
X108008Y-36390D01*
X107979Y-36345D01*
X107961Y-36301D01*
X107952Y-36249D01*
X107952Y-36202D01*
X107963Y-36149D01*
X107982Y-36106D01*
X108012Y-36062D01*
X108046Y-36029D01*
X108091Y-36000D01*
X108134Y-35982D01*
X108187Y-35972D01*
X108233Y-35973D01*
X108286Y-35983D01*
X108329Y-36002D01*
X108374Y-36032D01*
X108406Y-36065D01*
X108436Y-36110D01*
X108454Y-36153D01*
X108464Y-36205D01*
X108464Y-36205D01*
G37*
G36*
X108677Y-30952D02*
X108676Y-31025D01*
X108661Y-31091D01*
X108635Y-31149D01*
X108596Y-31205D01*
X108550Y-31248D01*
X108492Y-31285D01*
X108434Y-31307D01*
X108366Y-31319D01*
X108304Y-31318D01*
X108237Y-31303D01*
X108179Y-31278D01*
X108123Y-31239D01*
X108079Y-31194D01*
X108042Y-31136D01*
X108019Y-31078D01*
X108007Y-31010D01*
X108008Y-30948D01*
X108022Y-30880D01*
X108046Y-30823D01*
X108085Y-30766D01*
X108130Y-30723D01*
X108188Y-30685D01*
X108245Y-30662D01*
X108313Y-30649D01*
X108375Y-30649D01*
X108443Y-30663D01*
X108500Y-30687D01*
X108558Y-30726D01*
X108602Y-30770D01*
X108640Y-30827D01*
X108664Y-30885D01*
X108677Y-30951D01*
X108677Y-30952D01*
X108677Y-30952D01*
G37*
G36*
X108976Y-40432D02*
X108972Y-40703D01*
X108919Y-40939D01*
X108822Y-41155D01*
X108683Y-41353D01*
X108512Y-41516D01*
X108307Y-41646D01*
X108087Y-41732D01*
X107848Y-41774D01*
X107612Y-41769D01*
X107375Y-41717D01*
X107158Y-41622D01*
X106959Y-41484D01*
X106795Y-41314D01*
X106664Y-41110D01*
X106577Y-40890D01*
X106533Y-40652D01*
X106536Y-40416D01*
X106587Y-40178D01*
X106680Y-39961D01*
X106817Y-39761D01*
X106986Y-39596D01*
X107189Y-39463D01*
X107407Y-39375D01*
X107646Y-39329D01*
X107882Y-39331D01*
X108120Y-39380D01*
X108337Y-39471D01*
X108539Y-39607D01*
X108705Y-39774D01*
X108839Y-39977D01*
X108929Y-40194D01*
X108976Y-40432D01*
X108976Y-40432D01*
G37*
G36*
X109677Y-30952D02*
X109676Y-31025D01*
X109661Y-31091D01*
X109635Y-31149D01*
X109596Y-31205D01*
X109550Y-31248D01*
X109492Y-31285D01*
X109434Y-31307D01*
X109366Y-31319D01*
X109304Y-31318D01*
X109237Y-31303D01*
X109179Y-31278D01*
X109123Y-31239D01*
X109079Y-31194D01*
X109042Y-31136D01*
X109019Y-31078D01*
X109007Y-31010D01*
X109008Y-30948D01*
X109022Y-30880D01*
X109046Y-30823D01*
X109085Y-30766D01*
X109130Y-30723D01*
X109188Y-30685D01*
X109245Y-30662D01*
X109313Y-30649D01*
X109375Y-30649D01*
X109443Y-30663D01*
X109500Y-30687D01*
X109558Y-30726D01*
X109602Y-30770D01*
X109640Y-30827D01*
X109664Y-30885D01*
X109677Y-30951D01*
X109677Y-30952D01*
X109677Y-30952D01*
G37*
G36*
X109678Y-37050D02*
X109249Y-37050D01*
X109249Y-36571D01*
X109678Y-36571D01*
X109678Y-37050D01*
X109678Y-37050D01*
G37*
G36*
X109678Y-37680D02*
X109249Y-37680D01*
X109249Y-37201D01*
X109678Y-37201D01*
X109678Y-37680D01*
X109678Y-37680D01*
G37*
G36*
X109678Y-38310D02*
X109249Y-38310D01*
X109249Y-37831D01*
X109678Y-37831D01*
X109678Y-38310D01*
X109678Y-38310D01*
G37*
G36*
X109718Y-35459D02*
X109239Y-35459D01*
X109239Y-35030D01*
X109718Y-35030D01*
X109718Y-35459D01*
X109718Y-35459D01*
G37*
G36*
X109718Y-36059D02*
X109239Y-36059D01*
X109239Y-35630D01*
X109718Y-35630D01*
X109718Y-36059D01*
X109718Y-36059D01*
G37*
G36*
X110278Y-37050D02*
X109849Y-37050D01*
X109849Y-36571D01*
X110278Y-36571D01*
X110278Y-37050D01*
X110278Y-37050D01*
G37*
G36*
X110278Y-37680D02*
X109849Y-37680D01*
X109849Y-37201D01*
X110278Y-37201D01*
X110278Y-37680D01*
X110278Y-37680D01*
G37*
G36*
X110278Y-38310D02*
X109849Y-38310D01*
X109849Y-37831D01*
X110278Y-37831D01*
X110278Y-38310D01*
X110278Y-38310D01*
G37*
G36*
X110398Y-41712D02*
X109727Y-41712D01*
X109727Y-41042D01*
X110398Y-41042D01*
X110398Y-41712D01*
X110398Y-41712D01*
G37*
G36*
X110534Y-38956D02*
X109863Y-38956D01*
X109863Y-38677D01*
X110534Y-38677D01*
X110534Y-38956D01*
X110534Y-38956D01*
G37*
G36*
X110535Y-39317D02*
X110532Y-39345D01*
X110524Y-39370D01*
X110511Y-39394D01*
X110494Y-39415D01*
X110473Y-39433D01*
X110449Y-39445D01*
X110423Y-39453D01*
X110392Y-39456D01*
X110005Y-39456D01*
X110003Y-39456D01*
X110000Y-39456D01*
X110000Y-39456D01*
X109973Y-39453D01*
X109973Y-39453D01*
X109972Y-39453D01*
X109947Y-39445D01*
X109923Y-39431D01*
X109902Y-39414D01*
X109885Y-39393D01*
X109872Y-39369D01*
X109865Y-39342D01*
X109862Y-39316D01*
X109865Y-39288D01*
X109873Y-39263D01*
X109886Y-39238D01*
X109903Y-39218D01*
X109924Y-39200D01*
X109948Y-39188D01*
X109974Y-39180D01*
X110005Y-39177D01*
X110392Y-39177D01*
X110394Y-39177D01*
X110398Y-39177D01*
X110398Y-39177D01*
X110425Y-39180D01*
X110425Y-39180D01*
X110425Y-39180D01*
X110451Y-39188D01*
X110475Y-39202D01*
X110495Y-39219D01*
X110513Y-39240D01*
X110525Y-39264D01*
X110533Y-39290D01*
X110535Y-39317D01*
X110535Y-39317D01*
G37*
G36*
X110535Y-39817D02*
X110532Y-39845D01*
X110524Y-39870D01*
X110511Y-39894D01*
X110494Y-39915D01*
X110473Y-39933D01*
X110449Y-39945D01*
X110423Y-39953D01*
X110392Y-39956D01*
X110005Y-39956D01*
X110003Y-39956D01*
X110000Y-39956D01*
X110000Y-39956D01*
X109973Y-39953D01*
X109973Y-39953D01*
X109972Y-39953D01*
X109947Y-39945D01*
X109923Y-39931D01*
X109902Y-39914D01*
X109885Y-39893D01*
X109872Y-39869D01*
X109865Y-39842D01*
X109862Y-39816D01*
X109865Y-39788D01*
X109873Y-39763D01*
X109886Y-39738D01*
X109903Y-39718D01*
X109924Y-39700D01*
X109948Y-39688D01*
X109974Y-39680D01*
X110005Y-39677D01*
X110392Y-39677D01*
X110394Y-39677D01*
X110398Y-39677D01*
X110398Y-39677D01*
X110425Y-39680D01*
X110425Y-39680D01*
X110425Y-39680D01*
X110451Y-39688D01*
X110475Y-39702D01*
X110495Y-39719D01*
X110513Y-39740D01*
X110525Y-39764D01*
X110533Y-39790D01*
X110535Y-39817D01*
X110535Y-39817D01*
G37*
G36*
X110535Y-40317D02*
X110532Y-40345D01*
X110524Y-40370D01*
X110511Y-40394D01*
X110494Y-40415D01*
X110473Y-40433D01*
X110449Y-40445D01*
X110423Y-40453D01*
X110392Y-40456D01*
X110005Y-40456D01*
X110003Y-40456D01*
X110000Y-40456D01*
X110000Y-40456D01*
X109973Y-40453D01*
X109973Y-40453D01*
X109972Y-40453D01*
X109947Y-40445D01*
X109923Y-40431D01*
X109902Y-40414D01*
X109885Y-40393D01*
X109872Y-40369D01*
X109865Y-40342D01*
X109862Y-40316D01*
X109865Y-40288D01*
X109873Y-40263D01*
X109886Y-40238D01*
X109903Y-40218D01*
X109924Y-40200D01*
X109948Y-40188D01*
X109974Y-40180D01*
X110005Y-40177D01*
X110392Y-40177D01*
X110394Y-40177D01*
X110398Y-40177D01*
X110398Y-40177D01*
X110425Y-40180D01*
X110425Y-40180D01*
X110425Y-40180D01*
X110451Y-40188D01*
X110475Y-40202D01*
X110495Y-40219D01*
X110513Y-40240D01*
X110525Y-40264D01*
X110533Y-40290D01*
X110535Y-40317D01*
X110535Y-40317D01*
G37*
G36*
X110594Y-32591D02*
X110114Y-32591D01*
X110114Y-32162D01*
X110594Y-32162D01*
X110594Y-32591D01*
X110594Y-32591D01*
G37*
G36*
X110594Y-33191D02*
X110114Y-33191D01*
X110114Y-32762D01*
X110594Y-32762D01*
X110594Y-33191D01*
X110594Y-33191D01*
G37*
G36*
X110677Y-30952D02*
X110676Y-31025D01*
X110661Y-31091D01*
X110635Y-31149D01*
X110596Y-31205D01*
X110550Y-31248D01*
X110492Y-31285D01*
X110434Y-31307D01*
X110366Y-31319D01*
X110304Y-31318D01*
X110237Y-31303D01*
X110179Y-31278D01*
X110123Y-31239D01*
X110079Y-31194D01*
X110042Y-31136D01*
X110019Y-31078D01*
X110007Y-31010D01*
X110008Y-30948D01*
X110022Y-30880D01*
X110046Y-30823D01*
X110085Y-30766D01*
X110130Y-30723D01*
X110188Y-30685D01*
X110245Y-30662D01*
X110313Y-30649D01*
X110375Y-30649D01*
X110443Y-30663D01*
X110500Y-30687D01*
X110558Y-30726D01*
X110602Y-30770D01*
X110640Y-30827D01*
X110664Y-30885D01*
X110677Y-30951D01*
X110677Y-30952D01*
X110677Y-30952D01*
G37*
G36*
X111162Y-36357D02*
X111160Y-36377D01*
X111155Y-36395D01*
X111145Y-36412D01*
X111133Y-36427D01*
X111118Y-36439D01*
X111117Y-36439D01*
X111112Y-36445D01*
X111109Y-36452D01*
X111109Y-36460D01*
X111112Y-36467D01*
X111117Y-36472D01*
X111119Y-36473D01*
X111133Y-36485D01*
X111145Y-36500D01*
X111154Y-36517D01*
X111160Y-36536D01*
X111161Y-36554D01*
X111159Y-36574D01*
X111154Y-36592D01*
X111144Y-36609D01*
X111132Y-36624D01*
X111117Y-36636D01*
X111101Y-36645D01*
X111082Y-36650D01*
X111059Y-36653D01*
X110710Y-36653D01*
X110708Y-36653D01*
X110705Y-36652D01*
X110705Y-36652D01*
X110686Y-36650D01*
X110686Y-36650D01*
X110685Y-36650D01*
X110668Y-36644D01*
X110650Y-36635D01*
X110636Y-36623D01*
X110624Y-36608D01*
X110615Y-36591D01*
X110609Y-36572D01*
X110608Y-36553D01*
X110610Y-36534D01*
X110615Y-36516D01*
X110625Y-36499D01*
X110637Y-36484D01*
X110652Y-36472D01*
X110653Y-36471D01*
X110658Y-36466D01*
X110661Y-36459D01*
X110661Y-36451D01*
X110658Y-36444D01*
X110653Y-36439D01*
X110651Y-36438D01*
X110637Y-36426D01*
X110625Y-36411D01*
X110616Y-36394D01*
X110610Y-36375D01*
X110609Y-36356D01*
X110611Y-36337D01*
X110616Y-36319D01*
X110626Y-36302D01*
X110638Y-36287D01*
X110653Y-36275D01*
X110653Y-36275D01*
X110659Y-36269D01*
X110662Y-36262D01*
X110662Y-36255D01*
X110659Y-36247D01*
X110653Y-36242D01*
X110651Y-36241D01*
X110637Y-36229D01*
X110625Y-36214D01*
X110616Y-36197D01*
X110610Y-36178D01*
X110609Y-36159D01*
X110611Y-36140D01*
X110616Y-36122D01*
X110626Y-36105D01*
X110638Y-36090D01*
X110653Y-36078D01*
X110653Y-36078D01*
X110659Y-36072D01*
X110662Y-36065D01*
X110662Y-36058D01*
X110659Y-36050D01*
X110653Y-36045D01*
X110651Y-36044D01*
X110637Y-36032D01*
X110625Y-36017D01*
X110616Y-36000D01*
X110610Y-35981D01*
X110609Y-35962D01*
X110611Y-35943D01*
X110616Y-35925D01*
X110626Y-35908D01*
X110638Y-35893D01*
X110652Y-35881D01*
X110658Y-35876D01*
X110661Y-35869D01*
X110661Y-35861D01*
X110658Y-35854D01*
X110652Y-35849D01*
X110651Y-35848D01*
X110637Y-35836D01*
X110625Y-35821D01*
X110616Y-35804D01*
X110610Y-35785D01*
X110609Y-35766D01*
X110611Y-35747D01*
X110616Y-35729D01*
X110626Y-35712D01*
X110638Y-35697D01*
X110653Y-35685D01*
X110653Y-35685D01*
X110659Y-35679D01*
X110662Y-35672D01*
X110662Y-35665D01*
X110659Y-35657D01*
X110653Y-35652D01*
X110651Y-35651D01*
X110637Y-35639D01*
X110625Y-35624D01*
X110616Y-35607D01*
X110610Y-35588D01*
X110609Y-35569D01*
X110611Y-35550D01*
X110616Y-35532D01*
X110626Y-35515D01*
X110638Y-35500D01*
X110653Y-35488D01*
X110653Y-35488D01*
X110659Y-35482D01*
X110662Y-35475D01*
X110662Y-35468D01*
X110659Y-35460D01*
X110653Y-35455D01*
X110651Y-35454D01*
X110637Y-35442D01*
X110625Y-35427D01*
X110616Y-35410D01*
X110610Y-35391D01*
X110609Y-35372D01*
X110611Y-35353D01*
X110616Y-35335D01*
X110626Y-35318D01*
X110638Y-35303D01*
X110653Y-35291D01*
X110653Y-35291D01*
X110659Y-35285D01*
X110662Y-35278D01*
X110662Y-35271D01*
X110659Y-35263D01*
X110653Y-35258D01*
X110651Y-35257D01*
X110637Y-35245D01*
X110625Y-35230D01*
X110616Y-35213D01*
X110610Y-35194D01*
X110609Y-35175D01*
X110611Y-35156D01*
X110616Y-35138D01*
X110626Y-35121D01*
X110638Y-35106D01*
X110653Y-35094D01*
X110653Y-35094D01*
X110659Y-35088D01*
X110662Y-35081D01*
X110662Y-35074D01*
X110659Y-35066D01*
X110653Y-35061D01*
X110651Y-35060D01*
X110637Y-35048D01*
X110625Y-35033D01*
X110616Y-35016D01*
X110610Y-34997D01*
X110609Y-34978D01*
X110611Y-34959D01*
X110616Y-34941D01*
X110626Y-34924D01*
X110638Y-34909D01*
X110653Y-34897D01*
X110653Y-34897D01*
X110659Y-34891D01*
X110662Y-34884D01*
X110662Y-34877D01*
X110659Y-34869D01*
X110653Y-34864D01*
X110651Y-34863D01*
X110637Y-34851D01*
X110625Y-34836D01*
X110616Y-34819D01*
X110610Y-34800D01*
X110609Y-34781D01*
X110611Y-34762D01*
X110616Y-34744D01*
X110626Y-34727D01*
X110638Y-34712D01*
X110653Y-34700D01*
X110653Y-34700D01*
X110659Y-34694D01*
X110662Y-34687D01*
X110662Y-34680D01*
X110659Y-34672D01*
X110653Y-34667D01*
X110651Y-34666D01*
X110637Y-34654D01*
X110625Y-34639D01*
X110616Y-34622D01*
X110610Y-34603D01*
X110609Y-34584D01*
X110611Y-34565D01*
X110616Y-34547D01*
X110626Y-34530D01*
X110635Y-34518D01*
X110638Y-34511D01*
X110638Y-34503D01*
X110635Y-34496D01*
X110630Y-34491D01*
X110623Y-34488D01*
X110615Y-34488D01*
X110610Y-34488D01*
X110610Y-34290D01*
X111161Y-34290D01*
X111161Y-34488D01*
X111156Y-34488D01*
X111148Y-34488D01*
X111141Y-34491D01*
X111136Y-34496D01*
X111133Y-34503D01*
X111133Y-34511D01*
X111136Y-34518D01*
X111146Y-34531D01*
X111155Y-34548D01*
X111161Y-34567D01*
X111162Y-34585D01*
X111160Y-34605D01*
X111155Y-34623D01*
X111145Y-34640D01*
X111133Y-34655D01*
X111118Y-34667D01*
X111118Y-34667D01*
X111112Y-34673D01*
X111110Y-34680D01*
X111110Y-34687D01*
X111112Y-34694D01*
X111118Y-34700D01*
X111120Y-34701D01*
X111134Y-34713D01*
X111146Y-34728D01*
X111155Y-34745D01*
X111161Y-34764D01*
X111162Y-34782D01*
X111160Y-34802D01*
X111155Y-34820D01*
X111145Y-34837D01*
X111133Y-34852D01*
X111118Y-34864D01*
X111118Y-34864D01*
X111112Y-34870D01*
X111110Y-34877D01*
X111110Y-34884D01*
X111112Y-34891D01*
X111118Y-34897D01*
X111120Y-34898D01*
X111134Y-34910D01*
X111146Y-34925D01*
X111155Y-34942D01*
X111161Y-34961D01*
X111162Y-34979D01*
X111160Y-34999D01*
X111155Y-35017D01*
X111145Y-35034D01*
X111133Y-35049D01*
X111118Y-35061D01*
X111118Y-35061D01*
X111112Y-35067D01*
X111110Y-35074D01*
X111110Y-35081D01*
X111112Y-35088D01*
X111118Y-35094D01*
X111120Y-35095D01*
X111134Y-35107D01*
X111146Y-35122D01*
X111155Y-35139D01*
X111161Y-35158D01*
X111162Y-35176D01*
X111160Y-35196D01*
X111155Y-35214D01*
X111145Y-35231D01*
X111133Y-35246D01*
X111118Y-35258D01*
X111118Y-35258D01*
X111112Y-35264D01*
X111110Y-35271D01*
X111110Y-35278D01*
X111112Y-35285D01*
X111118Y-35291D01*
X111120Y-35292D01*
X111134Y-35304D01*
X111146Y-35319D01*
X111155Y-35336D01*
X111161Y-35355D01*
X111162Y-35373D01*
X111160Y-35393D01*
X111155Y-35411D01*
X111145Y-35428D01*
X111133Y-35443D01*
X111118Y-35455D01*
X111118Y-35455D01*
X111112Y-35461D01*
X111110Y-35468D01*
X111110Y-35475D01*
X111112Y-35482D01*
X111118Y-35488D01*
X111120Y-35489D01*
X111134Y-35501D01*
X111146Y-35516D01*
X111155Y-35533D01*
X111161Y-35552D01*
X111162Y-35570D01*
X111160Y-35590D01*
X111155Y-35608D01*
X111145Y-35625D01*
X111133Y-35640D01*
X111118Y-35652D01*
X111118Y-35652D01*
X111112Y-35658D01*
X111110Y-35665D01*
X111110Y-35672D01*
X111112Y-35679D01*
X111118Y-35685D01*
X111120Y-35686D01*
X111134Y-35698D01*
X111146Y-35713D01*
X111155Y-35730D01*
X111161Y-35749D01*
X111162Y-35767D01*
X111160Y-35787D01*
X111155Y-35805D01*
X111145Y-35822D01*
X111133Y-35837D01*
X111119Y-35849D01*
X111113Y-35854D01*
X111110Y-35861D01*
X111110Y-35869D01*
X111113Y-35876D01*
X111119Y-35881D01*
X111120Y-35882D01*
X111134Y-35894D01*
X111146Y-35909D01*
X111155Y-35926D01*
X111161Y-35945D01*
X111162Y-35963D01*
X111160Y-35983D01*
X111155Y-36001D01*
X111145Y-36018D01*
X111133Y-36033D01*
X111118Y-36045D01*
X111118Y-36045D01*
X111112Y-36051D01*
X111110Y-36058D01*
X111110Y-36065D01*
X111112Y-36072D01*
X111118Y-36078D01*
X111120Y-36079D01*
X111134Y-36091D01*
X111146Y-36106D01*
X111155Y-36123D01*
X111161Y-36142D01*
X111162Y-36160D01*
X111160Y-36180D01*
X111155Y-36198D01*
X111145Y-36215D01*
X111133Y-36230D01*
X111118Y-36242D01*
X111118Y-36242D01*
X111112Y-36248D01*
X111110Y-36255D01*
X111110Y-36262D01*
X111112Y-36269D01*
X111118Y-36275D01*
X111120Y-36276D01*
X111134Y-36288D01*
X111146Y-36303D01*
X111155Y-36320D01*
X111161Y-36339D01*
X111162Y-36357D01*
X111162Y-36357D01*
G37*
G36*
X111224Y-32591D02*
X110744Y-32591D01*
X110744Y-32162D01*
X111224Y-32162D01*
X111224Y-32591D01*
X111224Y-32591D01*
G37*
G36*
X111224Y-33191D02*
X110744Y-33191D01*
X110744Y-32762D01*
X111224Y-32762D01*
X111224Y-33191D01*
X111224Y-33191D01*
G37*
G36*
X111397Y-41346D02*
X111396Y-41418D01*
X111381Y-41485D01*
X111356Y-41542D01*
X111316Y-41598D01*
X111271Y-41642D01*
X111213Y-41678D01*
X111154Y-41701D01*
X111087Y-41713D01*
X111024Y-41712D01*
X110957Y-41697D01*
X110900Y-41672D01*
X110843Y-41633D01*
X110800Y-41588D01*
X110763Y-41530D01*
X110740Y-41472D01*
X110727Y-41404D01*
X110728Y-41342D01*
X110742Y-41274D01*
X110767Y-41217D01*
X110806Y-41160D01*
X110850Y-41116D01*
X110908Y-41078D01*
X110966Y-41055D01*
X111034Y-41042D01*
X111096Y-41043D01*
X111164Y-41057D01*
X111221Y-41081D01*
X111278Y-41119D01*
X111322Y-41163D01*
X111360Y-41221D01*
X111384Y-41278D01*
X111397Y-41345D01*
X111397Y-41346D01*
X111397Y-41346D01*
G37*
G36*
X111677Y-30952D02*
X111676Y-31025D01*
X111661Y-31091D01*
X111635Y-31149D01*
X111596Y-31205D01*
X111550Y-31248D01*
X111492Y-31285D01*
X111434Y-31307D01*
X111366Y-31319D01*
X111304Y-31318D01*
X111237Y-31303D01*
X111179Y-31278D01*
X111123Y-31239D01*
X111079Y-31194D01*
X111042Y-31136D01*
X111019Y-31078D01*
X111007Y-31010D01*
X111008Y-30948D01*
X111022Y-30880D01*
X111046Y-30823D01*
X111085Y-30766D01*
X111130Y-30723D01*
X111188Y-30685D01*
X111245Y-30662D01*
X111313Y-30649D01*
X111375Y-30649D01*
X111443Y-30663D01*
X111500Y-30687D01*
X111558Y-30726D01*
X111602Y-30770D01*
X111640Y-30827D01*
X111664Y-30885D01*
X111677Y-30951D01*
X111677Y-30952D01*
X111677Y-30952D01*
G37*
G36*
X112397Y-41346D02*
X112396Y-41418D01*
X112381Y-41485D01*
X112356Y-41542D01*
X112316Y-41598D01*
X112271Y-41642D01*
X112213Y-41678D01*
X112154Y-41701D01*
X112087Y-41713D01*
X112024Y-41712D01*
X111957Y-41697D01*
X111900Y-41672D01*
X111843Y-41633D01*
X111800Y-41588D01*
X111763Y-41530D01*
X111740Y-41472D01*
X111727Y-41404D01*
X111728Y-41342D01*
X111742Y-41274D01*
X111767Y-41217D01*
X111806Y-41160D01*
X111850Y-41116D01*
X111908Y-41078D01*
X111966Y-41055D01*
X112034Y-41042D01*
X112096Y-41043D01*
X112164Y-41057D01*
X112221Y-41081D01*
X112278Y-41119D01*
X112322Y-41163D01*
X112360Y-41221D01*
X112384Y-41278D01*
X112397Y-41345D01*
X112397Y-41346D01*
X112397Y-41346D01*
G37*
G36*
X112677Y-30952D02*
X112676Y-31025D01*
X112661Y-31091D01*
X112635Y-31149D01*
X112596Y-31205D01*
X112550Y-31248D01*
X112492Y-31285D01*
X112434Y-31307D01*
X112366Y-31319D01*
X112304Y-31318D01*
X112237Y-31303D01*
X112179Y-31278D01*
X112123Y-31239D01*
X112079Y-31194D01*
X112042Y-31136D01*
X112019Y-31078D01*
X112007Y-31010D01*
X112008Y-30948D01*
X112022Y-30880D01*
X112046Y-30823D01*
X112085Y-30766D01*
X112130Y-30723D01*
X112188Y-30685D01*
X112245Y-30662D01*
X112313Y-30649D01*
X112375Y-30649D01*
X112443Y-30663D01*
X112500Y-30687D01*
X112558Y-30726D01*
X112602Y-30770D01*
X112640Y-30827D01*
X112664Y-30885D01*
X112677Y-30951D01*
X112677Y-30952D01*
X112677Y-30952D01*
G37*
G36*
X112735Y-38817D02*
X112732Y-38845D01*
X112724Y-38870D01*
X112711Y-38894D01*
X112694Y-38915D01*
X112673Y-38933D01*
X112649Y-38945D01*
X112623Y-38953D01*
X112592Y-38956D01*
X112205Y-38956D01*
X112203Y-38956D01*
X112200Y-38956D01*
X112200Y-38956D01*
X112173Y-38953D01*
X112173Y-38953D01*
X112172Y-38953D01*
X112147Y-38945D01*
X112123Y-38931D01*
X112102Y-38914D01*
X112085Y-38893D01*
X112072Y-38869D01*
X112065Y-38842D01*
X112062Y-38816D01*
X112065Y-38788D01*
X112073Y-38763D01*
X112086Y-38738D01*
X112103Y-38718D01*
X112124Y-38700D01*
X112148Y-38688D01*
X112174Y-38680D01*
X112205Y-38677D01*
X112592Y-38677D01*
X112594Y-38677D01*
X112598Y-38677D01*
X112598Y-38677D01*
X112625Y-38680D01*
X112625Y-38680D01*
X112625Y-38680D01*
X112651Y-38688D01*
X112675Y-38702D01*
X112695Y-38719D01*
X112713Y-38740D01*
X112725Y-38764D01*
X112733Y-38790D01*
X112735Y-38817D01*
X112735Y-38817D01*
G37*
G36*
X112735Y-39317D02*
X112732Y-39345D01*
X112724Y-39370D01*
X112711Y-39394D01*
X112694Y-39415D01*
X112673Y-39433D01*
X112649Y-39445D01*
X112623Y-39453D01*
X112592Y-39456D01*
X112205Y-39456D01*
X112203Y-39456D01*
X112200Y-39456D01*
X112200Y-39456D01*
X112173Y-39453D01*
X112173Y-39453D01*
X112172Y-39453D01*
X112147Y-39445D01*
X112123Y-39431D01*
X112102Y-39414D01*
X112085Y-39393D01*
X112072Y-39369D01*
X112065Y-39342D01*
X112062Y-39316D01*
X112065Y-39288D01*
X112073Y-39263D01*
X112086Y-39238D01*
X112103Y-39218D01*
X112124Y-39200D01*
X112148Y-39188D01*
X112174Y-39180D01*
X112205Y-39177D01*
X112592Y-39177D01*
X112594Y-39177D01*
X112598Y-39177D01*
X112598Y-39177D01*
X112625Y-39180D01*
X112625Y-39180D01*
X112625Y-39180D01*
X112651Y-39188D01*
X112675Y-39202D01*
X112695Y-39219D01*
X112713Y-39240D01*
X112725Y-39264D01*
X112733Y-39290D01*
X112735Y-39317D01*
X112735Y-39317D01*
G37*
G36*
X112735Y-39817D02*
X112732Y-39845D01*
X112724Y-39870D01*
X112711Y-39894D01*
X112694Y-39915D01*
X112673Y-39933D01*
X112649Y-39945D01*
X112623Y-39953D01*
X112592Y-39956D01*
X112205Y-39956D01*
X112203Y-39956D01*
X112200Y-39956D01*
X112200Y-39956D01*
X112173Y-39953D01*
X112173Y-39953D01*
X112172Y-39953D01*
X112147Y-39945D01*
X112123Y-39931D01*
X112102Y-39914D01*
X112085Y-39893D01*
X112072Y-39869D01*
X112065Y-39842D01*
X112062Y-39816D01*
X112065Y-39788D01*
X112073Y-39763D01*
X112086Y-39738D01*
X112103Y-39718D01*
X112124Y-39700D01*
X112148Y-39688D01*
X112174Y-39680D01*
X112205Y-39677D01*
X112592Y-39677D01*
X112594Y-39677D01*
X112598Y-39677D01*
X112598Y-39677D01*
X112625Y-39680D01*
X112625Y-39680D01*
X112625Y-39680D01*
X112651Y-39688D01*
X112675Y-39702D01*
X112695Y-39719D01*
X112713Y-39740D01*
X112725Y-39764D01*
X112733Y-39790D01*
X112735Y-39817D01*
X112735Y-39817D01*
G37*
G36*
X112735Y-40317D02*
X112732Y-40345D01*
X112724Y-40370D01*
X112711Y-40394D01*
X112694Y-40415D01*
X112673Y-40433D01*
X112649Y-40445D01*
X112623Y-40453D01*
X112592Y-40456D01*
X112205Y-40456D01*
X112203Y-40456D01*
X112200Y-40456D01*
X112200Y-40456D01*
X112173Y-40453D01*
X112173Y-40453D01*
X112172Y-40453D01*
X112147Y-40445D01*
X112123Y-40431D01*
X112102Y-40414D01*
X112085Y-40393D01*
X112072Y-40369D01*
X112065Y-40342D01*
X112062Y-40316D01*
X112065Y-40288D01*
X112073Y-40263D01*
X112086Y-40238D01*
X112103Y-40218D01*
X112124Y-40200D01*
X112148Y-40188D01*
X112174Y-40180D01*
X112205Y-40177D01*
X112592Y-40177D01*
X112594Y-40177D01*
X112598Y-40177D01*
X112598Y-40177D01*
X112625Y-40180D01*
X112625Y-40180D01*
X112625Y-40180D01*
X112651Y-40188D01*
X112675Y-40202D01*
X112695Y-40219D01*
X112713Y-40240D01*
X112725Y-40264D01*
X112733Y-40290D01*
X112735Y-40317D01*
X112735Y-40317D01*
G37*
G36*
X113677Y-30952D02*
X113676Y-31025D01*
X113661Y-31091D01*
X113635Y-31149D01*
X113596Y-31205D01*
X113550Y-31248D01*
X113492Y-31285D01*
X113434Y-31307D01*
X113366Y-31319D01*
X113304Y-31318D01*
X113237Y-31303D01*
X113179Y-31278D01*
X113123Y-31239D01*
X113079Y-31194D01*
X113042Y-31136D01*
X113019Y-31078D01*
X113007Y-31010D01*
X113008Y-30948D01*
X113022Y-30880D01*
X113046Y-30823D01*
X113085Y-30766D01*
X113130Y-30723D01*
X113188Y-30685D01*
X113245Y-30662D01*
X113313Y-30649D01*
X113375Y-30649D01*
X113443Y-30663D01*
X113500Y-30687D01*
X113558Y-30726D01*
X113602Y-30770D01*
X113640Y-30827D01*
X113664Y-30885D01*
X113677Y-30951D01*
X113677Y-30952D01*
X113677Y-30952D01*
G37*
G36*
X113740Y-33974D02*
X113740Y-33975D01*
X113740Y-33979D01*
X113740Y-33979D01*
X113738Y-33998D01*
X113738Y-33998D01*
X113738Y-33998D01*
X113732Y-34016D01*
X113723Y-34033D01*
X113711Y-34048D01*
X113695Y-34060D01*
X113679Y-34069D01*
X113660Y-34074D01*
X113641Y-34076D01*
X113622Y-34074D01*
X113604Y-34068D01*
X113586Y-34059D01*
X113572Y-34047D01*
X113560Y-34032D01*
X113559Y-34031D01*
X113554Y-34026D01*
X113547Y-34023D01*
X113539Y-34023D01*
X113532Y-34026D01*
X113527Y-34031D01*
X113526Y-34033D01*
X113514Y-34048D01*
X113498Y-34060D01*
X113482Y-34069D01*
X113463Y-34074D01*
X113444Y-34076D01*
X113425Y-34074D01*
X113407Y-34068D01*
X113389Y-34059D01*
X113375Y-34047D01*
X113363Y-34032D01*
X113362Y-34031D01*
X113357Y-34026D01*
X113350Y-34023D01*
X113342Y-34023D01*
X113335Y-34026D01*
X113330Y-34031D01*
X113329Y-34033D01*
X113317Y-34048D01*
X113301Y-34060D01*
X113285Y-34069D01*
X113266Y-34074D01*
X113247Y-34076D01*
X113228Y-34074D01*
X113210Y-34068D01*
X113192Y-34059D01*
X113178Y-34047D01*
X113166Y-34032D01*
X113165Y-34031D01*
X113160Y-34026D01*
X113153Y-34023D01*
X113145Y-34023D01*
X113138Y-34026D01*
X113133Y-34031D01*
X113132Y-34033D01*
X113120Y-34048D01*
X113104Y-34060D01*
X113088Y-34069D01*
X113069Y-34074D01*
X113050Y-34076D01*
X113031Y-34074D01*
X113013Y-34068D01*
X112995Y-34059D01*
X112981Y-34047D01*
X112969Y-34032D01*
X112968Y-34031D01*
X112963Y-34026D01*
X112956Y-34023D01*
X112948Y-34023D01*
X112941Y-34026D01*
X112936Y-34031D01*
X112935Y-34033D01*
X112923Y-34048D01*
X112907Y-34060D01*
X112891Y-34069D01*
X112872Y-34074D01*
X112853Y-34076D01*
X112834Y-34074D01*
X112816Y-34068D01*
X112798Y-34059D01*
X112784Y-34047D01*
X112772Y-34032D01*
X112771Y-34031D01*
X112766Y-34026D01*
X112759Y-34023D01*
X112751Y-34023D01*
X112744Y-34026D01*
X112739Y-34031D01*
X112738Y-34033D01*
X112726Y-34048D01*
X112710Y-34060D01*
X112694Y-34069D01*
X112675Y-34074D01*
X112656Y-34076D01*
X112637Y-34074D01*
X112619Y-34068D01*
X112601Y-34059D01*
X112587Y-34047D01*
X112575Y-34032D01*
X112569Y-34027D01*
X112562Y-34024D01*
X112555Y-34024D01*
X112548Y-34027D01*
X112542Y-34032D01*
X112542Y-34033D01*
X112530Y-34048D01*
X112514Y-34060D01*
X112498Y-34069D01*
X112479Y-34074D01*
X112460Y-34076D01*
X112441Y-34074D01*
X112423Y-34068D01*
X112405Y-34059D01*
X112391Y-34047D01*
X112379Y-34032D01*
X112378Y-34031D01*
X112373Y-34026D01*
X112366Y-34023D01*
X112358Y-34023D01*
X112351Y-34026D01*
X112346Y-34031D01*
X112345Y-34033D01*
X112333Y-34048D01*
X112317Y-34060D01*
X112301Y-34069D01*
X112282Y-34074D01*
X112263Y-34076D01*
X112244Y-34074D01*
X112226Y-34068D01*
X112208Y-34059D01*
X112194Y-34047D01*
X112182Y-34032D01*
X112181Y-34031D01*
X112176Y-34026D01*
X112169Y-34023D01*
X112161Y-34023D01*
X112154Y-34026D01*
X112149Y-34031D01*
X112148Y-34033D01*
X112136Y-34048D01*
X112120Y-34060D01*
X112104Y-34069D01*
X112085Y-34074D01*
X112066Y-34076D01*
X112047Y-34074D01*
X112029Y-34068D01*
X112011Y-34059D01*
X111997Y-34047D01*
X111985Y-34032D01*
X111984Y-34031D01*
X111979Y-34026D01*
X111972Y-34023D01*
X111964Y-34023D01*
X111957Y-34026D01*
X111952Y-34031D01*
X111951Y-34033D01*
X111939Y-34048D01*
X111923Y-34060D01*
X111907Y-34069D01*
X111888Y-34074D01*
X111869Y-34076D01*
X111850Y-34074D01*
X111832Y-34068D01*
X111814Y-34059D01*
X111800Y-34047D01*
X111788Y-34032D01*
X111787Y-34031D01*
X111782Y-34026D01*
X111775Y-34023D01*
X111767Y-34023D01*
X111760Y-34026D01*
X111755Y-34031D01*
X111754Y-34033D01*
X111742Y-34048D01*
X111726Y-34060D01*
X111710Y-34069D01*
X111691Y-34074D01*
X111672Y-34076D01*
X111653Y-34074D01*
X111635Y-34068D01*
X111617Y-34059D01*
X111603Y-34047D01*
X111591Y-34032D01*
X111590Y-34031D01*
X111585Y-34026D01*
X111578Y-34023D01*
X111570Y-34023D01*
X111563Y-34026D01*
X111558Y-34031D01*
X111557Y-34033D01*
X111545Y-34048D01*
X111529Y-34060D01*
X111513Y-34069D01*
X111494Y-34074D01*
X111475Y-34076D01*
X111456Y-34074D01*
X111438Y-34068D01*
X111420Y-34059D01*
X111406Y-34047D01*
X111394Y-34032D01*
X111385Y-34015D01*
X111379Y-33996D01*
X111377Y-33974D01*
X111377Y-33624D01*
X111377Y-33623D01*
X111377Y-33619D01*
X111377Y-33619D01*
X111379Y-33600D01*
X111379Y-33600D01*
X111379Y-33600D01*
X111385Y-33582D01*
X111395Y-33565D01*
X111407Y-33550D01*
X111422Y-33538D01*
X111439Y-33529D01*
X111457Y-33524D01*
X111476Y-33522D01*
X111495Y-33524D01*
X111514Y-33530D01*
X111531Y-33539D01*
X111545Y-33551D01*
X111558Y-33566D01*
X111558Y-33567D01*
X111563Y-33572D01*
X111570Y-33575D01*
X111578Y-33575D01*
X111585Y-33572D01*
X111591Y-33567D01*
X111592Y-33565D01*
X111604Y-33550D01*
X111619Y-33538D01*
X111636Y-33529D01*
X111654Y-33524D01*
X111673Y-33522D01*
X111692Y-33524D01*
X111711Y-33530D01*
X111728Y-33539D01*
X111742Y-33551D01*
X111755Y-33566D01*
X111755Y-33567D01*
X111760Y-33572D01*
X111767Y-33575D01*
X111775Y-33575D01*
X111782Y-33572D01*
X111788Y-33567D01*
X111789Y-33565D01*
X111801Y-33550D01*
X111816Y-33538D01*
X111833Y-33529D01*
X111851Y-33524D01*
X111870Y-33522D01*
X111889Y-33524D01*
X111908Y-33530D01*
X111925Y-33539D01*
X111939Y-33551D01*
X111952Y-33566D01*
X111952Y-33567D01*
X111957Y-33572D01*
X111964Y-33575D01*
X111972Y-33575D01*
X111979Y-33572D01*
X111985Y-33567D01*
X111986Y-33565D01*
X111998Y-33550D01*
X112013Y-33538D01*
X112030Y-33529D01*
X112048Y-33524D01*
X112067Y-33522D01*
X112086Y-33524D01*
X112105Y-33530D01*
X112122Y-33539D01*
X112136Y-33551D01*
X112149Y-33566D01*
X112149Y-33567D01*
X112154Y-33572D01*
X112161Y-33575D01*
X112169Y-33575D01*
X112176Y-33572D01*
X112182Y-33567D01*
X112183Y-33565D01*
X112195Y-33550D01*
X112210Y-33538D01*
X112227Y-33529D01*
X112245Y-33524D01*
X112264Y-33522D01*
X112283Y-33524D01*
X112302Y-33530D01*
X112319Y-33539D01*
X112333Y-33551D01*
X112346Y-33566D01*
X112346Y-33567D01*
X112351Y-33572D01*
X112358Y-33575D01*
X112366Y-33575D01*
X112373Y-33572D01*
X112379Y-33567D01*
X112380Y-33565D01*
X112392Y-33550D01*
X112407Y-33538D01*
X112424Y-33529D01*
X112442Y-33524D01*
X112461Y-33522D01*
X112480Y-33524D01*
X112499Y-33530D01*
X112516Y-33539D01*
X112530Y-33551D01*
X112542Y-33566D01*
X112548Y-33571D01*
X112555Y-33574D01*
X112562Y-33574D01*
X112570Y-33571D01*
X112575Y-33566D01*
X112576Y-33565D01*
X112588Y-33550D01*
X112603Y-33538D01*
X112620Y-33529D01*
X112638Y-33524D01*
X112657Y-33522D01*
X112676Y-33524D01*
X112695Y-33530D01*
X112712Y-33539D01*
X112726Y-33551D01*
X112739Y-33566D01*
X112739Y-33567D01*
X112744Y-33572D01*
X112751Y-33575D01*
X112759Y-33575D01*
X112766Y-33572D01*
X112772Y-33567D01*
X112773Y-33565D01*
X112785Y-33550D01*
X112800Y-33538D01*
X112817Y-33529D01*
X112835Y-33524D01*
X112854Y-33522D01*
X112873Y-33524D01*
X112892Y-33530D01*
X112909Y-33539D01*
X112923Y-33551D01*
X112936Y-33566D01*
X112936Y-33567D01*
X112941Y-33572D01*
X112948Y-33575D01*
X112956Y-33575D01*
X112963Y-33572D01*
X112969Y-33567D01*
X112970Y-33565D01*
X112982Y-33550D01*
X112997Y-33538D01*
X113014Y-33529D01*
X113032Y-33524D01*
X113051Y-33522D01*
X113070Y-33524D01*
X113089Y-33530D01*
X113106Y-33539D01*
X113120Y-33551D01*
X113133Y-33566D01*
X113133Y-33567D01*
X113138Y-33572D01*
X113145Y-33575D01*
X113153Y-33575D01*
X113160Y-33572D01*
X113166Y-33567D01*
X113167Y-33565D01*
X113179Y-33550D01*
X113194Y-33538D01*
X113211Y-33529D01*
X113229Y-33524D01*
X113248Y-33522D01*
X113267Y-33524D01*
X113286Y-33530D01*
X113303Y-33539D01*
X113317Y-33551D01*
X113330Y-33566D01*
X113330Y-33567D01*
X113335Y-33572D01*
X113342Y-33575D01*
X113350Y-33575D01*
X113357Y-33572D01*
X113363Y-33567D01*
X113364Y-33565D01*
X113376Y-33550D01*
X113391Y-33538D01*
X113408Y-33529D01*
X113426Y-33524D01*
X113445Y-33522D01*
X113464Y-33524D01*
X113483Y-33530D01*
X113500Y-33539D01*
X113514Y-33551D01*
X113527Y-33566D01*
X113527Y-33567D01*
X113532Y-33572D01*
X113539Y-33575D01*
X113547Y-33575D01*
X113554Y-33572D01*
X113560Y-33567D01*
X113561Y-33565D01*
X113573Y-33550D01*
X113588Y-33538D01*
X113605Y-33529D01*
X113623Y-33524D01*
X113642Y-33522D01*
X113661Y-33524D01*
X113680Y-33530D01*
X113697Y-33539D01*
X113711Y-33551D01*
X113724Y-33566D01*
X113732Y-33583D01*
X113738Y-33601D01*
X113740Y-33624D01*
X113740Y-33974D01*
X113740Y-33974D01*
G37*
G36*
X113740Y-37320D02*
X113740Y-37321D01*
X113740Y-37325D01*
X113740Y-37325D01*
X113738Y-37344D01*
X113738Y-37344D01*
X113738Y-37344D01*
X113732Y-37362D01*
X113723Y-37379D01*
X113711Y-37394D01*
X113695Y-37406D01*
X113679Y-37415D01*
X113660Y-37420D01*
X113641Y-37422D01*
X113622Y-37420D01*
X113604Y-37414D01*
X113586Y-37405D01*
X113572Y-37393D01*
X113560Y-37378D01*
X113559Y-37377D01*
X113554Y-37372D01*
X113547Y-37369D01*
X113539Y-37369D01*
X113532Y-37372D01*
X113527Y-37377D01*
X113526Y-37379D01*
X113514Y-37394D01*
X113498Y-37406D01*
X113482Y-37415D01*
X113463Y-37420D01*
X113444Y-37422D01*
X113425Y-37420D01*
X113407Y-37414D01*
X113389Y-37405D01*
X113375Y-37393D01*
X113363Y-37378D01*
X113357Y-37373D01*
X113350Y-37370D01*
X113343Y-37370D01*
X113336Y-37373D01*
X113330Y-37378D01*
X113330Y-37379D01*
X113318Y-37394D01*
X113302Y-37406D01*
X113286Y-37415D01*
X113267Y-37420D01*
X113248Y-37422D01*
X113229Y-37420D01*
X113211Y-37414D01*
X113193Y-37405D01*
X113179Y-37393D01*
X113167Y-37378D01*
X113166Y-37377D01*
X113161Y-37372D01*
X113154Y-37369D01*
X113146Y-37369D01*
X113139Y-37372D01*
X113134Y-37377D01*
X113133Y-37379D01*
X113121Y-37394D01*
X113105Y-37406D01*
X113089Y-37415D01*
X113070Y-37420D01*
X113051Y-37422D01*
X113032Y-37420D01*
X113014Y-37414D01*
X112996Y-37405D01*
X112982Y-37393D01*
X112970Y-37378D01*
X112969Y-37377D01*
X112964Y-37372D01*
X112957Y-37369D01*
X112949Y-37369D01*
X112942Y-37372D01*
X112937Y-37377D01*
X112936Y-37379D01*
X112924Y-37394D01*
X112908Y-37406D01*
X112892Y-37415D01*
X112873Y-37420D01*
X112854Y-37422D01*
X112835Y-37420D01*
X112817Y-37414D01*
X112799Y-37405D01*
X112785Y-37393D01*
X112773Y-37378D01*
X112767Y-37373D01*
X112760Y-37370D01*
X112753Y-37370D01*
X112746Y-37373D01*
X112740Y-37378D01*
X112740Y-37379D01*
X112728Y-37394D01*
X112712Y-37406D01*
X112696Y-37415D01*
X112677Y-37420D01*
X112658Y-37422D01*
X112639Y-37420D01*
X112621Y-37414D01*
X112603Y-37405D01*
X112589Y-37393D01*
X112577Y-37378D01*
X112576Y-37377D01*
X112571Y-37372D01*
X112564Y-37369D01*
X112556Y-37369D01*
X112549Y-37372D01*
X112544Y-37377D01*
X112543Y-37379D01*
X112531Y-37394D01*
X112515Y-37406D01*
X112499Y-37415D01*
X112480Y-37420D01*
X112461Y-37422D01*
X112442Y-37420D01*
X112424Y-37414D01*
X112406Y-37405D01*
X112392Y-37393D01*
X112380Y-37378D01*
X112379Y-37377D01*
X112374Y-37372D01*
X112367Y-37369D01*
X112359Y-37369D01*
X112352Y-37372D01*
X112347Y-37377D01*
X112346Y-37379D01*
X112334Y-37394D01*
X112318Y-37406D01*
X112302Y-37415D01*
X112283Y-37420D01*
X112264Y-37422D01*
X112245Y-37420D01*
X112227Y-37414D01*
X112209Y-37405D01*
X112195Y-37393D01*
X112183Y-37378D01*
X112182Y-37377D01*
X112177Y-37372D01*
X112170Y-37369D01*
X112162Y-37369D01*
X112155Y-37372D01*
X112150Y-37377D01*
X112149Y-37379D01*
X112137Y-37394D01*
X112121Y-37406D01*
X112105Y-37415D01*
X112086Y-37420D01*
X112067Y-37422D01*
X112048Y-37420D01*
X112030Y-37414D01*
X112012Y-37405D01*
X111998Y-37393D01*
X111986Y-37378D01*
X111985Y-37377D01*
X111980Y-37372D01*
X111973Y-37369D01*
X111965Y-37369D01*
X111958Y-37372D01*
X111953Y-37377D01*
X111952Y-37379D01*
X111940Y-37394D01*
X111924Y-37406D01*
X111908Y-37415D01*
X111889Y-37420D01*
X111870Y-37422D01*
X111851Y-37420D01*
X111833Y-37414D01*
X111815Y-37405D01*
X111801Y-37393D01*
X111789Y-37378D01*
X111788Y-37377D01*
X111783Y-37372D01*
X111776Y-37369D01*
X111768Y-37369D01*
X111761Y-37372D01*
X111756Y-37377D01*
X111755Y-37379D01*
X111743Y-37394D01*
X111727Y-37406D01*
X111711Y-37415D01*
X111692Y-37420D01*
X111673Y-37422D01*
X111654Y-37420D01*
X111636Y-37414D01*
X111618Y-37405D01*
X111604Y-37393D01*
X111592Y-37378D01*
X111586Y-37373D01*
X111579Y-37370D01*
X111572Y-37370D01*
X111565Y-37373D01*
X111559Y-37378D01*
X111559Y-37379D01*
X111547Y-37394D01*
X111531Y-37406D01*
X111515Y-37415D01*
X111496Y-37420D01*
X111477Y-37422D01*
X111458Y-37420D01*
X111440Y-37414D01*
X111422Y-37405D01*
X111408Y-37393D01*
X111396Y-37378D01*
X111387Y-37361D01*
X111381Y-37342D01*
X111379Y-37320D01*
X111379Y-36970D01*
X111379Y-36969D01*
X111379Y-36965D01*
X111379Y-36965D01*
X111381Y-36946D01*
X111381Y-36946D01*
X111381Y-36946D01*
X111387Y-36928D01*
X111397Y-36911D01*
X111409Y-36896D01*
X111424Y-36884D01*
X111441Y-36875D01*
X111459Y-36870D01*
X111478Y-36868D01*
X111497Y-36870D01*
X111516Y-36876D01*
X111533Y-36885D01*
X111547Y-36897D01*
X111559Y-36912D01*
X111565Y-36917D01*
X111572Y-36920D01*
X111579Y-36920D01*
X111587Y-36917D01*
X111592Y-36912D01*
X111593Y-36911D01*
X111605Y-36896D01*
X111620Y-36884D01*
X111637Y-36875D01*
X111655Y-36870D01*
X111674Y-36868D01*
X111693Y-36870D01*
X111712Y-36876D01*
X111729Y-36885D01*
X111743Y-36897D01*
X111756Y-36912D01*
X111756Y-36913D01*
X111761Y-36918D01*
X111768Y-36921D01*
X111776Y-36921D01*
X111783Y-36918D01*
X111789Y-36913D01*
X111790Y-36911D01*
X111802Y-36896D01*
X111817Y-36884D01*
X111834Y-36875D01*
X111852Y-36870D01*
X111871Y-36868D01*
X111890Y-36870D01*
X111909Y-36876D01*
X111926Y-36885D01*
X111940Y-36897D01*
X111953Y-36912D01*
X111953Y-36913D01*
X111958Y-36918D01*
X111965Y-36921D01*
X111973Y-36921D01*
X111980Y-36918D01*
X111986Y-36913D01*
X111987Y-36911D01*
X111999Y-36896D01*
X112014Y-36884D01*
X112031Y-36875D01*
X112049Y-36870D01*
X112068Y-36868D01*
X112087Y-36870D01*
X112106Y-36876D01*
X112123Y-36885D01*
X112137Y-36897D01*
X112150Y-36912D01*
X112150Y-36913D01*
X112155Y-36918D01*
X112162Y-36921D01*
X112170Y-36921D01*
X112177Y-36918D01*
X112183Y-36913D01*
X112184Y-36911D01*
X112196Y-36896D01*
X112211Y-36884D01*
X112228Y-36875D01*
X112246Y-36870D01*
X112265Y-36868D01*
X112284Y-36870D01*
X112303Y-36876D01*
X112320Y-36885D01*
X112334Y-36897D01*
X112347Y-36912D01*
X112347Y-36913D01*
X112352Y-36918D01*
X112359Y-36921D01*
X112367Y-36921D01*
X112374Y-36918D01*
X112380Y-36913D01*
X112381Y-36911D01*
X112393Y-36896D01*
X112408Y-36884D01*
X112425Y-36875D01*
X112443Y-36870D01*
X112462Y-36868D01*
X112481Y-36870D01*
X112500Y-36876D01*
X112517Y-36885D01*
X112531Y-36897D01*
X112544Y-36912D01*
X112544Y-36913D01*
X112549Y-36918D01*
X112556Y-36921D01*
X112564Y-36921D01*
X112571Y-36918D01*
X112577Y-36913D01*
X112578Y-36911D01*
X112590Y-36896D01*
X112605Y-36884D01*
X112622Y-36875D01*
X112640Y-36870D01*
X112659Y-36868D01*
X112678Y-36870D01*
X112697Y-36876D01*
X112714Y-36885D01*
X112728Y-36897D01*
X112740Y-36912D01*
X112746Y-36917D01*
X112753Y-36920D01*
X112760Y-36920D01*
X112768Y-36917D01*
X112773Y-36912D01*
X112774Y-36911D01*
X112786Y-36896D01*
X112801Y-36884D01*
X112818Y-36875D01*
X112836Y-36870D01*
X112855Y-36868D01*
X112874Y-36870D01*
X112893Y-36876D01*
X112910Y-36885D01*
X112924Y-36897D01*
X112937Y-36912D01*
X112937Y-36913D01*
X112942Y-36918D01*
X112949Y-36921D01*
X112957Y-36921D01*
X112964Y-36918D01*
X112970Y-36913D01*
X112971Y-36911D01*
X112983Y-36896D01*
X112998Y-36884D01*
X113015Y-36875D01*
X113033Y-36870D01*
X113052Y-36868D01*
X113071Y-36870D01*
X113090Y-36876D01*
X113107Y-36885D01*
X113121Y-36897D01*
X113134Y-36912D01*
X113134Y-36913D01*
X113139Y-36918D01*
X113146Y-36921D01*
X113154Y-36921D01*
X113161Y-36918D01*
X113167Y-36913D01*
X113168Y-36911D01*
X113180Y-36896D01*
X113195Y-36884D01*
X113212Y-36875D01*
X113230Y-36870D01*
X113249Y-36868D01*
X113268Y-36870D01*
X113287Y-36876D01*
X113304Y-36885D01*
X113318Y-36897D01*
X113330Y-36912D01*
X113336Y-36917D01*
X113343Y-36920D01*
X113350Y-36920D01*
X113358Y-36917D01*
X113363Y-36912D01*
X113364Y-36911D01*
X113376Y-36896D01*
X113391Y-36884D01*
X113408Y-36875D01*
X113426Y-36870D01*
X113445Y-36868D01*
X113464Y-36870D01*
X113483Y-36876D01*
X113500Y-36885D01*
X113514Y-36897D01*
X113527Y-36912D01*
X113527Y-36913D01*
X113532Y-36918D01*
X113539Y-36921D01*
X113547Y-36921D01*
X113554Y-36918D01*
X113560Y-36913D01*
X113561Y-36911D01*
X113573Y-36896D01*
X113588Y-36884D01*
X113605Y-36875D01*
X113623Y-36870D01*
X113642Y-36868D01*
X113661Y-36870D01*
X113680Y-36876D01*
X113697Y-36885D01*
X113711Y-36897D01*
X113724Y-36912D01*
X113732Y-36929D01*
X113738Y-36947D01*
X113740Y-36970D01*
X113740Y-37320D01*
X113740Y-37320D01*
G37*
G36*
X114509Y-36555D02*
X114507Y-36575D01*
X114502Y-36593D01*
X114492Y-36610D01*
X114480Y-36625D01*
X114465Y-36637D01*
X114449Y-36646D01*
X114430Y-36651D01*
X114407Y-36654D01*
X114058Y-36654D01*
X114056Y-36654D01*
X114053Y-36653D01*
X114053Y-36653D01*
X114034Y-36651D01*
X114034Y-36651D01*
X114033Y-36651D01*
X114016Y-36645D01*
X113998Y-36636D01*
X113984Y-36624D01*
X113972Y-36609D01*
X113963Y-36592D01*
X113957Y-36573D01*
X113956Y-36554D01*
X113958Y-36535D01*
X113963Y-36517D01*
X113973Y-36500D01*
X113985Y-36485D01*
X114000Y-36473D01*
X114000Y-36473D01*
X114006Y-36467D01*
X114009Y-36460D01*
X114009Y-36453D01*
X114006Y-36445D01*
X114000Y-36440D01*
X113998Y-36439D01*
X113984Y-36427D01*
X113972Y-36412D01*
X113963Y-36395D01*
X113957Y-36376D01*
X113956Y-36357D01*
X113958Y-36338D01*
X113963Y-36320D01*
X113973Y-36303D01*
X113985Y-36288D01*
X114000Y-36276D01*
X114000Y-36276D01*
X114006Y-36270D01*
X114009Y-36263D01*
X114009Y-36256D01*
X114006Y-36248D01*
X114000Y-36243D01*
X113998Y-36242D01*
X113984Y-36230D01*
X113972Y-36215D01*
X113963Y-36198D01*
X113957Y-36179D01*
X113956Y-36160D01*
X113958Y-36141D01*
X113963Y-36123D01*
X113973Y-36106D01*
X113985Y-36091D01*
X114000Y-36079D01*
X114000Y-36079D01*
X114006Y-36073D01*
X114009Y-36066D01*
X114009Y-36059D01*
X114006Y-36051D01*
X114000Y-36046D01*
X113998Y-36045D01*
X113984Y-36033D01*
X113972Y-36018D01*
X113963Y-36001D01*
X113957Y-35982D01*
X113956Y-35963D01*
X113958Y-35944D01*
X113963Y-35926D01*
X113973Y-35909D01*
X113985Y-35894D01*
X114000Y-35882D01*
X114000Y-35882D01*
X114006Y-35876D01*
X114009Y-35869D01*
X114009Y-35862D01*
X114006Y-35854D01*
X114000Y-35849D01*
X113998Y-35848D01*
X113984Y-35836D01*
X113972Y-35821D01*
X113963Y-35804D01*
X113957Y-35785D01*
X113956Y-35766D01*
X113958Y-35747D01*
X113963Y-35729D01*
X113973Y-35712D01*
X113985Y-35697D01*
X114000Y-35685D01*
X114000Y-35685D01*
X114006Y-35679D01*
X114009Y-35672D01*
X114009Y-35665D01*
X114006Y-35657D01*
X114000Y-35652D01*
X113998Y-35651D01*
X113984Y-35639D01*
X113972Y-35624D01*
X113963Y-35607D01*
X113957Y-35588D01*
X113956Y-35569D01*
X113958Y-35550D01*
X113963Y-35532D01*
X113973Y-35515D01*
X113985Y-35500D01*
X114000Y-35488D01*
X114000Y-35488D01*
X114006Y-35482D01*
X114009Y-35475D01*
X114009Y-35468D01*
X114006Y-35460D01*
X114000Y-35455D01*
X113998Y-35454D01*
X113984Y-35442D01*
X113972Y-35427D01*
X113963Y-35410D01*
X113957Y-35391D01*
X113956Y-35372D01*
X113958Y-35353D01*
X113963Y-35335D01*
X113973Y-35318D01*
X113985Y-35303D01*
X113999Y-35291D01*
X114005Y-35286D01*
X114008Y-35279D01*
X114008Y-35271D01*
X114005Y-35264D01*
X113999Y-35259D01*
X113998Y-35258D01*
X113984Y-35246D01*
X113972Y-35231D01*
X113963Y-35214D01*
X113957Y-35195D01*
X113956Y-35176D01*
X113958Y-35157D01*
X113963Y-35139D01*
X113973Y-35122D01*
X113985Y-35107D01*
X114000Y-35095D01*
X114000Y-35095D01*
X114006Y-35089D01*
X114009Y-35082D01*
X114009Y-35075D01*
X114006Y-35067D01*
X114000Y-35062D01*
X113998Y-35061D01*
X113984Y-35049D01*
X113972Y-35034D01*
X113963Y-35017D01*
X113957Y-34998D01*
X113956Y-34979D01*
X113958Y-34960D01*
X113963Y-34942D01*
X113973Y-34925D01*
X113985Y-34910D01*
X114000Y-34898D01*
X114000Y-34898D01*
X114006Y-34892D01*
X114009Y-34885D01*
X114009Y-34878D01*
X114006Y-34870D01*
X114000Y-34865D01*
X113998Y-34864D01*
X113984Y-34852D01*
X113972Y-34837D01*
X113963Y-34820D01*
X113957Y-34801D01*
X113956Y-34782D01*
X113958Y-34763D01*
X113963Y-34745D01*
X113973Y-34728D01*
X113985Y-34713D01*
X114000Y-34701D01*
X114000Y-34701D01*
X114006Y-34695D01*
X114009Y-34688D01*
X114009Y-34681D01*
X114006Y-34673D01*
X114000Y-34668D01*
X113998Y-34667D01*
X113984Y-34655D01*
X113972Y-34640D01*
X113963Y-34623D01*
X113957Y-34604D01*
X113956Y-34585D01*
X113958Y-34566D01*
X113963Y-34548D01*
X113973Y-34531D01*
X113985Y-34516D01*
X114000Y-34504D01*
X114000Y-34504D01*
X114006Y-34498D01*
X114009Y-34491D01*
X114009Y-34484D01*
X114006Y-34476D01*
X114000Y-34471D01*
X113998Y-34470D01*
X113984Y-34458D01*
X113972Y-34443D01*
X113963Y-34426D01*
X113957Y-34407D01*
X113956Y-34388D01*
X113958Y-34369D01*
X113963Y-34351D01*
X113973Y-34334D01*
X113985Y-34319D01*
X114000Y-34307D01*
X114017Y-34298D01*
X114035Y-34292D01*
X114058Y-34290D01*
X114407Y-34290D01*
X114409Y-34290D01*
X114412Y-34291D01*
X114412Y-34291D01*
X114431Y-34293D01*
X114431Y-34293D01*
X114432Y-34293D01*
X114450Y-34298D01*
X114467Y-34308D01*
X114481Y-34320D01*
X114493Y-34335D01*
X114502Y-34352D01*
X114508Y-34371D01*
X114509Y-34389D01*
X114507Y-34409D01*
X114502Y-34427D01*
X114492Y-34444D01*
X114480Y-34459D01*
X114465Y-34471D01*
X114465Y-34471D01*
X114459Y-34477D01*
X114457Y-34484D01*
X114457Y-34491D01*
X114459Y-34498D01*
X114465Y-34504D01*
X114467Y-34505D01*
X114481Y-34517D01*
X114493Y-34532D01*
X114502Y-34549D01*
X114508Y-34568D01*
X114509Y-34586D01*
X114507Y-34606D01*
X114502Y-34624D01*
X114492Y-34641D01*
X114480Y-34656D01*
X114465Y-34668D01*
X114465Y-34668D01*
X114459Y-34674D01*
X114457Y-34681D01*
X114457Y-34688D01*
X114459Y-34695D01*
X114465Y-34701D01*
X114467Y-34702D01*
X114481Y-34714D01*
X114493Y-34729D01*
X114502Y-34746D01*
X114508Y-34765D01*
X114509Y-34783D01*
X114507Y-34803D01*
X114502Y-34821D01*
X114492Y-34838D01*
X114480Y-34853D01*
X114465Y-34865D01*
X114465Y-34865D01*
X114459Y-34871D01*
X114457Y-34878D01*
X114457Y-34885D01*
X114459Y-34892D01*
X114465Y-34898D01*
X114467Y-34899D01*
X114481Y-34911D01*
X114493Y-34926D01*
X114502Y-34943D01*
X114508Y-34962D01*
X114509Y-34980D01*
X114507Y-35000D01*
X114502Y-35018D01*
X114492Y-35035D01*
X114480Y-35050D01*
X114465Y-35062D01*
X114465Y-35062D01*
X114459Y-35068D01*
X114457Y-35075D01*
X114457Y-35082D01*
X114459Y-35089D01*
X114465Y-35095D01*
X114467Y-35096D01*
X114481Y-35108D01*
X114493Y-35123D01*
X114502Y-35140D01*
X114508Y-35159D01*
X114509Y-35177D01*
X114507Y-35197D01*
X114502Y-35215D01*
X114492Y-35232D01*
X114480Y-35247D01*
X114466Y-35259D01*
X114460Y-35264D01*
X114457Y-35271D01*
X114457Y-35279D01*
X114460Y-35286D01*
X114466Y-35291D01*
X114467Y-35292D01*
X114481Y-35304D01*
X114493Y-35319D01*
X114502Y-35336D01*
X114508Y-35355D01*
X114509Y-35373D01*
X114507Y-35393D01*
X114502Y-35411D01*
X114492Y-35428D01*
X114480Y-35443D01*
X114465Y-35455D01*
X114465Y-35455D01*
X114459Y-35461D01*
X114457Y-35468D01*
X114457Y-35475D01*
X114459Y-35482D01*
X114465Y-35488D01*
X114467Y-35489D01*
X114481Y-35501D01*
X114493Y-35516D01*
X114502Y-35533D01*
X114508Y-35552D01*
X114509Y-35570D01*
X114507Y-35590D01*
X114502Y-35608D01*
X114492Y-35625D01*
X114480Y-35640D01*
X114465Y-35652D01*
X114465Y-35652D01*
X114459Y-35658D01*
X114457Y-35665D01*
X114457Y-35672D01*
X114459Y-35679D01*
X114465Y-35685D01*
X114467Y-35686D01*
X114481Y-35698D01*
X114493Y-35713D01*
X114502Y-35730D01*
X114508Y-35749D01*
X114509Y-35767D01*
X114507Y-35787D01*
X114502Y-35805D01*
X114492Y-35822D01*
X114480Y-35837D01*
X114465Y-35849D01*
X114465Y-35849D01*
X114459Y-35855D01*
X114457Y-35862D01*
X114457Y-35869D01*
X114459Y-35876D01*
X114465Y-35882D01*
X114467Y-35883D01*
X114481Y-35895D01*
X114493Y-35910D01*
X114502Y-35927D01*
X114508Y-35946D01*
X114509Y-35964D01*
X114507Y-35984D01*
X114502Y-36002D01*
X114492Y-36019D01*
X114480Y-36034D01*
X114465Y-36046D01*
X114465Y-36046D01*
X114459Y-36052D01*
X114457Y-36059D01*
X114457Y-36066D01*
X114459Y-36073D01*
X114465Y-36079D01*
X114467Y-36080D01*
X114481Y-36092D01*
X114493Y-36107D01*
X114502Y-36124D01*
X114508Y-36143D01*
X114509Y-36161D01*
X114507Y-36181D01*
X114502Y-36199D01*
X114492Y-36216D01*
X114480Y-36231D01*
X114465Y-36243D01*
X114465Y-36243D01*
X114459Y-36249D01*
X114457Y-36256D01*
X114457Y-36263D01*
X114459Y-36270D01*
X114465Y-36276D01*
X114467Y-36277D01*
X114481Y-36289D01*
X114493Y-36304D01*
X114502Y-36321D01*
X114508Y-36340D01*
X114509Y-36358D01*
X114507Y-36378D01*
X114502Y-36396D01*
X114492Y-36413D01*
X114480Y-36428D01*
X114465Y-36440D01*
X114465Y-36440D01*
X114459Y-36446D01*
X114457Y-36453D01*
X114457Y-36460D01*
X114459Y-36467D01*
X114465Y-36473D01*
X114467Y-36474D01*
X114481Y-36486D01*
X114493Y-36501D01*
X114502Y-36518D01*
X114508Y-36537D01*
X114509Y-36555D01*
X114509Y-36555D01*
G37*
G36*
X114740Y-30952D02*
X114739Y-31025D01*
X114724Y-31091D01*
X114698Y-31149D01*
X114659Y-31205D01*
X114613Y-31248D01*
X114555Y-31285D01*
X114497Y-31307D01*
X114429Y-31319D01*
X114367Y-31318D01*
X114300Y-31303D01*
X114242Y-31278D01*
X114186Y-31239D01*
X114142Y-31194D01*
X114105Y-31136D01*
X114082Y-31078D01*
X114070Y-31010D01*
X114070Y-30948D01*
X114085Y-30880D01*
X114109Y-30823D01*
X114148Y-30766D01*
X114193Y-30723D01*
X114251Y-30685D01*
X114308Y-30662D01*
X114376Y-30649D01*
X114438Y-30649D01*
X114506Y-30663D01*
X114563Y-30687D01*
X114621Y-30726D01*
X114665Y-30770D01*
X114703Y-30827D01*
X114727Y-30885D01*
X114740Y-30951D01*
X114740Y-30952D01*
X114740Y-30952D01*
G37*
G36*
X114754Y-32879D02*
X114274Y-32879D01*
X114274Y-32449D01*
X114754Y-32449D01*
X114754Y-32879D01*
X114754Y-32879D01*
G37*
G36*
X114754Y-33479D02*
X114274Y-33479D01*
X114274Y-33049D01*
X114754Y-33049D01*
X114754Y-33479D01*
X114754Y-33479D01*
G37*
G36*
X115393Y-32879D02*
X114914Y-32879D01*
X114914Y-32449D01*
X115393Y-32449D01*
X115393Y-32879D01*
X115393Y-32879D01*
G37*
G36*
X115393Y-33479D02*
X114914Y-33479D01*
X114914Y-33049D01*
X115393Y-33049D01*
X115393Y-33479D01*
X115393Y-33479D01*
G37*
G36*
X115544Y-39664D02*
X115543Y-39738D01*
X115527Y-39805D01*
X115502Y-39864D01*
X115462Y-39920D01*
X115415Y-39964D01*
X115357Y-40002D01*
X115297Y-40025D01*
X115229Y-40037D01*
X115165Y-40035D01*
X115097Y-40020D01*
X115039Y-39995D01*
X114982Y-39955D01*
X114938Y-39910D01*
X114900Y-39851D01*
X114877Y-39792D01*
X114864Y-39723D01*
X114865Y-39660D01*
X114880Y-39592D01*
X114904Y-39533D01*
X114944Y-39476D01*
X114989Y-39432D01*
X115048Y-39393D01*
X115106Y-39370D01*
X115175Y-39356D01*
X115238Y-39357D01*
X115307Y-39371D01*
X115365Y-39395D01*
X115423Y-39435D01*
X115467Y-39479D01*
X115506Y-39538D01*
X115530Y-39596D01*
X115544Y-39663D01*
X115544Y-39664D01*
X115544Y-39664D01*
G37*
G36*
X115544Y-41036D02*
X114864Y-41036D01*
X114864Y-40357D01*
X115544Y-40357D01*
X115544Y-41036D01*
X115544Y-41036D01*
G37*
G36*
X115740Y-30952D02*
X115739Y-31025D01*
X115724Y-31091D01*
X115698Y-31149D01*
X115659Y-31205D01*
X115613Y-31248D01*
X115555Y-31285D01*
X115497Y-31307D01*
X115429Y-31319D01*
X115367Y-31318D01*
X115300Y-31303D01*
X115242Y-31278D01*
X115186Y-31239D01*
X115142Y-31194D01*
X115105Y-31136D01*
X115082Y-31078D01*
X115070Y-31010D01*
X115070Y-30948D01*
X115085Y-30880D01*
X115109Y-30823D01*
X115148Y-30766D01*
X115193Y-30723D01*
X115251Y-30685D01*
X115308Y-30662D01*
X115376Y-30649D01*
X115438Y-30649D01*
X115506Y-30663D01*
X115563Y-30687D01*
X115621Y-30726D01*
X115665Y-30770D01*
X115703Y-30827D01*
X115727Y-30885D01*
X115740Y-30951D01*
X115740Y-30952D01*
X115740Y-30952D01*
G37*
G36*
X116145Y-35623D02*
X115665Y-35623D01*
X115665Y-35193D01*
X116145Y-35193D01*
X116145Y-35623D01*
X116145Y-35623D01*
G37*
G36*
X116145Y-36223D02*
X115665Y-36223D01*
X115665Y-35793D01*
X116145Y-35793D01*
X116145Y-36223D01*
X116145Y-36223D01*
G37*
G36*
X116544Y-39664D02*
X116543Y-39738D01*
X116527Y-39805D01*
X116502Y-39864D01*
X116462Y-39920D01*
X116415Y-39964D01*
X116357Y-40002D01*
X116297Y-40025D01*
X116229Y-40037D01*
X116165Y-40035D01*
X116097Y-40020D01*
X116039Y-39995D01*
X115982Y-39955D01*
X115938Y-39910D01*
X115900Y-39851D01*
X115877Y-39792D01*
X115864Y-39723D01*
X115865Y-39660D01*
X115880Y-39592D01*
X115904Y-39533D01*
X115944Y-39476D01*
X115989Y-39432D01*
X116048Y-39393D01*
X116106Y-39370D01*
X116175Y-39356D01*
X116238Y-39357D01*
X116307Y-39371D01*
X116365Y-39395D01*
X116423Y-39435D01*
X116467Y-39479D01*
X116506Y-39538D01*
X116530Y-39596D01*
X116544Y-39663D01*
X116544Y-39664D01*
X116544Y-39664D01*
G37*
G36*
X116544Y-40664D02*
X116543Y-40738D01*
X116527Y-40805D01*
X116502Y-40864D01*
X116462Y-40920D01*
X116415Y-40964D01*
X116357Y-41002D01*
X116297Y-41025D01*
X116229Y-41037D01*
X116165Y-41035D01*
X116097Y-41020D01*
X116039Y-40995D01*
X115982Y-40955D01*
X115938Y-40910D01*
X115900Y-40851D01*
X115877Y-40792D01*
X115864Y-40723D01*
X115865Y-40660D01*
X115880Y-40592D01*
X115904Y-40533D01*
X115944Y-40476D01*
X115989Y-40432D01*
X116048Y-40393D01*
X116106Y-40370D01*
X116175Y-40356D01*
X116238Y-40357D01*
X116307Y-40371D01*
X116365Y-40395D01*
X116423Y-40435D01*
X116467Y-40479D01*
X116506Y-40538D01*
X116530Y-40596D01*
X116544Y-40663D01*
X116544Y-40664D01*
X116544Y-40664D01*
G37*
G36*
X116740Y-30952D02*
X116739Y-31025D01*
X116724Y-31091D01*
X116698Y-31149D01*
X116659Y-31205D01*
X116613Y-31248D01*
X116555Y-31285D01*
X116497Y-31307D01*
X116429Y-31319D01*
X116367Y-31318D01*
X116300Y-31303D01*
X116242Y-31278D01*
X116186Y-31239D01*
X116142Y-31194D01*
X116105Y-31136D01*
X116082Y-31078D01*
X116070Y-31010D01*
X116070Y-30948D01*
X116085Y-30880D01*
X116109Y-30823D01*
X116148Y-30766D01*
X116193Y-30723D01*
X116251Y-30685D01*
X116308Y-30662D01*
X116376Y-30649D01*
X116438Y-30649D01*
X116506Y-30663D01*
X116563Y-30687D01*
X116621Y-30726D01*
X116665Y-30770D01*
X116703Y-30827D01*
X116727Y-30885D01*
X116740Y-30951D01*
X116740Y-30952D01*
X116740Y-30952D01*
G37*
G36*
X116775Y-35623D02*
X116295Y-35623D01*
X116295Y-35193D01*
X116775Y-35193D01*
X116775Y-35623D01*
X116775Y-35623D01*
G37*
G36*
X116775Y-36223D02*
X116295Y-36223D01*
X116295Y-35793D01*
X116775Y-35793D01*
X116775Y-36223D01*
X116775Y-36223D01*
G37*
G36*
X117011Y-33418D02*
X116531Y-33418D01*
X116531Y-32989D01*
X117011Y-32989D01*
X117011Y-33418D01*
X117011Y-33418D01*
G37*
G36*
X117011Y-34018D02*
X116531Y-34018D01*
X116531Y-33589D01*
X117011Y-33589D01*
X117011Y-34018D01*
X117011Y-34018D01*
G37*
G36*
X117382Y-34055D02*
X117067Y-34055D01*
X117067Y-33857D01*
X117382Y-33857D01*
X117382Y-34055D01*
X117382Y-34055D01*
G37*
G36*
X117382Y-34311D02*
X117067Y-34311D01*
X117067Y-34113D01*
X117382Y-34113D01*
X117382Y-34311D01*
X117382Y-34311D01*
G37*
G36*
X117382Y-34567D02*
X117067Y-34567D01*
X117067Y-34369D01*
X117382Y-34369D01*
X117382Y-34567D01*
X117382Y-34567D01*
G37*
G36*
X117481Y-35162D02*
X117201Y-35162D01*
X117201Y-34782D01*
X117481Y-34782D01*
X117481Y-35162D01*
X117481Y-35162D01*
G37*
G36*
X117481Y-36162D02*
X117201Y-36162D01*
X117201Y-35782D01*
X117481Y-35782D01*
X117481Y-36162D01*
X117481Y-36162D01*
G37*
G36*
X117544Y-39664D02*
X117543Y-39738D01*
X117527Y-39805D01*
X117502Y-39864D01*
X117462Y-39920D01*
X117415Y-39964D01*
X117357Y-40002D01*
X117297Y-40025D01*
X117229Y-40037D01*
X117165Y-40035D01*
X117097Y-40020D01*
X117039Y-39995D01*
X116982Y-39955D01*
X116938Y-39910D01*
X116900Y-39851D01*
X116877Y-39792D01*
X116864Y-39723D01*
X116865Y-39660D01*
X116880Y-39592D01*
X116904Y-39533D01*
X116944Y-39476D01*
X116989Y-39432D01*
X117048Y-39393D01*
X117106Y-39370D01*
X117175Y-39356D01*
X117238Y-39357D01*
X117307Y-39371D01*
X117365Y-39395D01*
X117423Y-39435D01*
X117467Y-39479D01*
X117506Y-39538D01*
X117530Y-39596D01*
X117544Y-39663D01*
X117544Y-39664D01*
X117544Y-39664D01*
G37*
G36*
X117544Y-40664D02*
X117543Y-40738D01*
X117527Y-40805D01*
X117502Y-40864D01*
X117462Y-40920D01*
X117415Y-40964D01*
X117357Y-41002D01*
X117297Y-41025D01*
X117229Y-41037D01*
X117165Y-41035D01*
X117097Y-41020D01*
X117039Y-40995D01*
X116982Y-40955D01*
X116938Y-40910D01*
X116900Y-40851D01*
X116877Y-40792D01*
X116864Y-40723D01*
X116865Y-40660D01*
X116880Y-40592D01*
X116904Y-40533D01*
X116944Y-40476D01*
X116989Y-40432D01*
X117048Y-40393D01*
X117106Y-40370D01*
X117175Y-40356D01*
X117238Y-40357D01*
X117307Y-40371D01*
X117365Y-40395D01*
X117423Y-40435D01*
X117467Y-40479D01*
X117506Y-40538D01*
X117530Y-40596D01*
X117544Y-40663D01*
X117544Y-40664D01*
X117544Y-40664D01*
G37*
G36*
X117591Y-33468D02*
X117162Y-33468D01*
X117162Y-32988D01*
X117591Y-32988D01*
X117591Y-33468D01*
X117591Y-33468D01*
G37*
G36*
X117740Y-31319D02*
X117070Y-31319D01*
X117070Y-30649D01*
X117740Y-30649D01*
X117740Y-31319D01*
X117740Y-31319D01*
G37*
G36*
X117856Y-35162D02*
X117576Y-35162D01*
X117576Y-34782D01*
X117856Y-34782D01*
X117856Y-35162D01*
X117856Y-35162D01*
G37*
G36*
X118191Y-33468D02*
X117762Y-33468D01*
X117762Y-32988D01*
X118191Y-32988D01*
X118191Y-33468D01*
X118191Y-33468D01*
G37*
G36*
X118208Y-34055D02*
X117893Y-34055D01*
X117893Y-33857D01*
X118208Y-33857D01*
X118208Y-34055D01*
X118208Y-34055D01*
G37*
G36*
X118208Y-34567D02*
X117893Y-34567D01*
X117893Y-34369D01*
X118208Y-34369D01*
X118208Y-34567D01*
X118208Y-34567D01*
G37*
G36*
X118231Y-35162D02*
X117951Y-35162D01*
X117951Y-34782D01*
X118231Y-34782D01*
X118231Y-35162D01*
X118231Y-35162D01*
G37*
G36*
X118231Y-36162D02*
X117951Y-36162D01*
X117951Y-35782D01*
X118231Y-35782D01*
X118231Y-36162D01*
X118231Y-36162D01*
G37*
G36*
X118544Y-39664D02*
X118543Y-39738D01*
X118527Y-39805D01*
X118502Y-39864D01*
X118462Y-39920D01*
X118415Y-39964D01*
X118357Y-40002D01*
X118297Y-40025D01*
X118229Y-40037D01*
X118165Y-40035D01*
X118097Y-40020D01*
X118039Y-39995D01*
X117982Y-39955D01*
X117938Y-39910D01*
X117900Y-39851D01*
X117877Y-39792D01*
X117864Y-39723D01*
X117865Y-39660D01*
X117880Y-39592D01*
X117904Y-39533D01*
X117944Y-39476D01*
X117989Y-39432D01*
X118048Y-39393D01*
X118106Y-39370D01*
X118175Y-39356D01*
X118238Y-39357D01*
X118307Y-39371D01*
X118365Y-39395D01*
X118423Y-39435D01*
X118467Y-39479D01*
X118506Y-39538D01*
X118530Y-39596D01*
X118544Y-39663D01*
X118544Y-39664D01*
X118544Y-39664D01*
G37*
G36*
X118544Y-40664D02*
X118543Y-40738D01*
X118527Y-40805D01*
X118502Y-40864D01*
X118462Y-40920D01*
X118415Y-40964D01*
X118357Y-41002D01*
X118297Y-41025D01*
X118229Y-41037D01*
X118165Y-41035D01*
X118097Y-41020D01*
X118039Y-40995D01*
X117982Y-40955D01*
X117938Y-40910D01*
X117900Y-40851D01*
X117877Y-40792D01*
X117864Y-40723D01*
X117865Y-40660D01*
X117880Y-40592D01*
X117904Y-40533D01*
X117944Y-40476D01*
X117989Y-40432D01*
X118048Y-40393D01*
X118106Y-40370D01*
X118175Y-40356D01*
X118238Y-40357D01*
X118307Y-40371D01*
X118365Y-40395D01*
X118423Y-40435D01*
X118467Y-40479D01*
X118506Y-40538D01*
X118530Y-40596D01*
X118544Y-40663D01*
X118544Y-40664D01*
X118544Y-40664D01*
G37*
G36*
X118664Y-37513D02*
X118185Y-37513D01*
X118185Y-37083D01*
X118664Y-37083D01*
X118664Y-37513D01*
X118664Y-37513D01*
G37*
G36*
X118664Y-38113D02*
X118185Y-38113D01*
X118185Y-37683D01*
X118664Y-37683D01*
X118664Y-38113D01*
X118664Y-38113D01*
G37*
G36*
X118941Y-30952D02*
X118940Y-31025D01*
X118925Y-31091D01*
X118899Y-31149D01*
X118860Y-31205D01*
X118814Y-31248D01*
X118756Y-31285D01*
X118698Y-31307D01*
X118630Y-31319D01*
X118567Y-31318D01*
X118500Y-31303D01*
X118443Y-31278D01*
X118387Y-31239D01*
X118343Y-31194D01*
X118306Y-31136D01*
X118283Y-31078D01*
X118270Y-31010D01*
X118271Y-30948D01*
X118286Y-30880D01*
X118310Y-30823D01*
X118349Y-30766D01*
X118394Y-30723D01*
X118451Y-30685D01*
X118509Y-30662D01*
X118577Y-30649D01*
X118639Y-30649D01*
X118707Y-30663D01*
X118764Y-30687D01*
X118822Y-30726D01*
X118865Y-30770D01*
X118904Y-30827D01*
X118927Y-30885D01*
X118940Y-30951D01*
X118941Y-30952D01*
X118941Y-30952D01*
G37*
G36*
X118979Y-34087D02*
X118500Y-34087D01*
X118500Y-33658D01*
X118979Y-33658D01*
X118979Y-34087D01*
X118979Y-34087D01*
G37*
G36*
X118979Y-34687D02*
X118500Y-34687D01*
X118500Y-34258D01*
X118979Y-34258D01*
X118979Y-34687D01*
X118979Y-34687D01*
G37*
G36*
X119412Y-37513D02*
X118933Y-37513D01*
X118933Y-37083D01*
X119412Y-37083D01*
X119412Y-37513D01*
X119412Y-37513D01*
G37*
G36*
X119412Y-38113D02*
X118933Y-38113D01*
X118933Y-37683D01*
X119412Y-37683D01*
X119412Y-38113D01*
X119412Y-38113D01*
G37*
G36*
X119544Y-39664D02*
X119543Y-39738D01*
X119527Y-39805D01*
X119502Y-39864D01*
X119462Y-39920D01*
X119415Y-39964D01*
X119357Y-40002D01*
X119297Y-40025D01*
X119229Y-40037D01*
X119165Y-40035D01*
X119097Y-40020D01*
X119039Y-39995D01*
X118982Y-39955D01*
X118938Y-39910D01*
X118900Y-39851D01*
X118877Y-39792D01*
X118864Y-39723D01*
X118865Y-39660D01*
X118880Y-39592D01*
X118904Y-39533D01*
X118944Y-39476D01*
X118989Y-39432D01*
X119048Y-39393D01*
X119106Y-39370D01*
X119175Y-39356D01*
X119238Y-39357D01*
X119307Y-39371D01*
X119365Y-39395D01*
X119423Y-39435D01*
X119467Y-39479D01*
X119506Y-39538D01*
X119530Y-39596D01*
X119544Y-39663D01*
X119544Y-39664D01*
X119544Y-39664D01*
G37*
G36*
X119544Y-40664D02*
X119543Y-40738D01*
X119527Y-40805D01*
X119502Y-40864D01*
X119462Y-40920D01*
X119415Y-40964D01*
X119357Y-41002D01*
X119297Y-41025D01*
X119229Y-41037D01*
X119165Y-41035D01*
X119097Y-41020D01*
X119039Y-40995D01*
X118982Y-40955D01*
X118938Y-40910D01*
X118900Y-40851D01*
X118877Y-40792D01*
X118864Y-40723D01*
X118865Y-40660D01*
X118880Y-40592D01*
X118904Y-40533D01*
X118944Y-40476D01*
X118989Y-40432D01*
X119048Y-40393D01*
X119106Y-40370D01*
X119175Y-40356D01*
X119238Y-40357D01*
X119307Y-40371D01*
X119365Y-40395D01*
X119423Y-40435D01*
X119467Y-40479D01*
X119506Y-40538D01*
X119530Y-40596D01*
X119544Y-40663D01*
X119544Y-40664D01*
X119544Y-40664D01*
G37*
G36*
X119609Y-34087D02*
X119130Y-34087D01*
X119130Y-33658D01*
X119609Y-33658D01*
X119609Y-34087D01*
X119609Y-34087D01*
G37*
G36*
X119609Y-34687D02*
X119130Y-34687D01*
X119130Y-34258D01*
X119609Y-34258D01*
X119609Y-34687D01*
X119609Y-34687D01*
G37*
G36*
X119941Y-30952D02*
X119940Y-31025D01*
X119925Y-31091D01*
X119899Y-31149D01*
X119860Y-31205D01*
X119814Y-31248D01*
X119756Y-31285D01*
X119698Y-31307D01*
X119630Y-31319D01*
X119567Y-31318D01*
X119500Y-31303D01*
X119443Y-31278D01*
X119387Y-31239D01*
X119343Y-31194D01*
X119306Y-31136D01*
X119283Y-31078D01*
X119270Y-31010D01*
X119271Y-30948D01*
X119286Y-30880D01*
X119310Y-30823D01*
X119349Y-30766D01*
X119394Y-30723D01*
X119451Y-30685D01*
X119509Y-30662D01*
X119577Y-30649D01*
X119639Y-30649D01*
X119707Y-30663D01*
X119764Y-30687D01*
X119822Y-30726D01*
X119865Y-30770D01*
X119904Y-30827D01*
X119927Y-30885D01*
X119940Y-30951D01*
X119941Y-30952D01*
X119941Y-30952D01*
G37*
G36*
X120245Y-38117D02*
X119765Y-38117D01*
X119765Y-37238D01*
X120245Y-37238D01*
X120245Y-38117D01*
X120245Y-38117D01*
G37*
G36*
X120941Y-31319D02*
X120271Y-31319D01*
X120271Y-30649D01*
X120941Y-30649D01*
X120941Y-31319D01*
X120941Y-31319D01*
G37*
G36*
X121145Y-38117D02*
X120665Y-38117D01*
X120665Y-37238D01*
X121145Y-37238D01*
X121145Y-38117D01*
X121145Y-38117D01*
G37*
G36*
X121665Y-35517D02*
X120145Y-35517D01*
X120145Y-34638D01*
X121665Y-34638D01*
X121665Y-35517D01*
X121665Y-35517D01*
G37*
G36*
X122045Y-38117D02*
X121565Y-38117D01*
X121565Y-37238D01*
X122045Y-37238D01*
X122045Y-38117D01*
X122045Y-38117D01*
G37*
G36*
X122158Y-31617D02*
X121729Y-31617D01*
X121729Y-31138D01*
X122158Y-31138D01*
X122158Y-31617D01*
X122158Y-31617D01*
G37*
G36*
X122158Y-32247D02*
X121729Y-32247D01*
X121729Y-31768D01*
X122158Y-31768D01*
X122158Y-32247D01*
X122158Y-32247D01*
G37*
G36*
X122158Y-32877D02*
X121729Y-32877D01*
X121729Y-32398D01*
X122158Y-32398D01*
X122158Y-32877D01*
X122158Y-32877D01*
G37*
G36*
X122158Y-33507D02*
X121729Y-33507D01*
X121729Y-33027D01*
X122158Y-33027D01*
X122158Y-33507D01*
X122158Y-33507D01*
G37*
G36*
X122205Y-34095D02*
X121731Y-34095D01*
X121731Y-33621D01*
X122205Y-33621D01*
X122205Y-34095D01*
X122205Y-34095D01*
G37*
G36*
X122758Y-31617D02*
X122329Y-31617D01*
X122329Y-31138D01*
X122758Y-31138D01*
X122758Y-31617D01*
X122758Y-31617D01*
G37*
G36*
X122758Y-32247D02*
X122329Y-32247D01*
X122329Y-31768D01*
X122758Y-31768D01*
X122758Y-32247D01*
X122758Y-32247D01*
G37*
G36*
X122758Y-32877D02*
X122329Y-32877D01*
X122329Y-32398D01*
X122758Y-32398D01*
X122758Y-32877D01*
X122758Y-32877D01*
G37*
G36*
X122758Y-33507D02*
X122329Y-33507D01*
X122329Y-33027D01*
X122758Y-33027D01*
X122758Y-33507D01*
X122758Y-33507D01*
G37*
G36*
X122877Y-36017D02*
X122398Y-36017D01*
X122398Y-35587D01*
X122877Y-35587D01*
X122877Y-36017D01*
X122877Y-36017D01*
G37*
G36*
X122877Y-36617D02*
X122398Y-36617D01*
X122398Y-36187D01*
X122877Y-36187D01*
X122877Y-36617D01*
X122877Y-36617D01*
G37*
G36*
X123229Y-34095D02*
X122755Y-34095D01*
X122755Y-33621D01*
X123229Y-33621D01*
X123229Y-34095D01*
X123229Y-34095D01*
G37*
G36*
X123504Y-40274D02*
X123501Y-40457D01*
X123465Y-40617D01*
X123400Y-40763D01*
X123305Y-40898D01*
X123189Y-41008D01*
X123050Y-41096D01*
X122902Y-41154D01*
X122739Y-41183D01*
X122580Y-41179D01*
X122418Y-41144D01*
X122273Y-41080D01*
X122137Y-40986D01*
X122026Y-40871D01*
X121937Y-40732D01*
X121878Y-40584D01*
X121848Y-40422D01*
X121851Y-40263D01*
X121885Y-40101D01*
X121948Y-39955D01*
X122041Y-39818D01*
X122155Y-39707D01*
X122293Y-39617D01*
X122440Y-39557D01*
X122603Y-39526D01*
X122762Y-39527D01*
X122924Y-39560D01*
X123070Y-39622D01*
X123208Y-39715D01*
X123320Y-39827D01*
X123411Y-39965D01*
X123472Y-40112D01*
X123504Y-40274D01*
X123504Y-40274D01*
G37*
G36*
X124212Y-32421D02*
X123542Y-32421D01*
X123542Y-31357D01*
X124212Y-31357D01*
X124212Y-32421D01*
X124212Y-32421D01*
G37*
G36*
X124212Y-34153D02*
X123542Y-34153D01*
X123542Y-33090D01*
X124212Y-33090D01*
X124212Y-34153D01*
X124212Y-34153D01*
G37*
G36*
X124488Y-38502D02*
X124485Y-38685D01*
X124449Y-38845D01*
X124384Y-38991D01*
X124289Y-39126D01*
X124173Y-39236D01*
X124034Y-39324D01*
X123886Y-39382D01*
X123723Y-39411D01*
X123564Y-39407D01*
X123402Y-39372D01*
X123257Y-39308D01*
X123121Y-39214D01*
X123010Y-39099D01*
X122921Y-38960D01*
X122862Y-38812D01*
X122832Y-38650D01*
X122835Y-38491D01*
X122869Y-38329D01*
X122932Y-38183D01*
X123025Y-38046D01*
X123139Y-37935D01*
X123277Y-37845D01*
X123424Y-37785D01*
X123587Y-37754D01*
X123746Y-37755D01*
X123908Y-37788D01*
X124054Y-37850D01*
X124192Y-37943D01*
X124304Y-38055D01*
X124395Y-38193D01*
X124456Y-38340D01*
X124488Y-38502D01*
X124488Y-38502D01*
G37*
G36*
X124901Y-33386D02*
X124330Y-33386D01*
X124330Y-33153D01*
X124330Y-33145D01*
X124330Y-33133D01*
X124330Y-33126D01*
X124330Y-32897D01*
X124330Y-32889D01*
X124330Y-32877D01*
X124330Y-32870D01*
X124330Y-32641D01*
X124330Y-32633D01*
X124330Y-32621D01*
X124330Y-32614D01*
X124330Y-32385D01*
X124330Y-32378D01*
X124330Y-32366D01*
X124330Y-32358D01*
X124330Y-32125D01*
X124901Y-32125D01*
X124901Y-32358D01*
X124901Y-32366D01*
X124901Y-32378D01*
X124901Y-32385D01*
X124901Y-32614D01*
X124901Y-32621D01*
X124901Y-32633D01*
X124901Y-32641D01*
X124901Y-32870D01*
X124901Y-32877D01*
X124901Y-32889D01*
X124901Y-32897D01*
X124901Y-33126D01*
X124901Y-33133D01*
X124901Y-33145D01*
X124901Y-33153D01*
X124901Y-33386D01*
X124901Y-33386D01*
G37*
G36*
X125275Y-31063D02*
X124212Y-31063D01*
X124212Y-30393D01*
X125275Y-30393D01*
X125275Y-31063D01*
X125275Y-31063D01*
G37*
G36*
X125275Y-35118D02*
X124212Y-35118D01*
X124212Y-34448D01*
X125275Y-34448D01*
X125275Y-35118D01*
X125275Y-35118D01*
G37*
G36*
X126260Y-40274D02*
X126257Y-40457D01*
X126221Y-40617D01*
X126156Y-40763D01*
X126061Y-40898D01*
X125945Y-41008D01*
X125806Y-41096D01*
X125658Y-41154D01*
X125495Y-41183D01*
X125336Y-41179D01*
X125174Y-41144D01*
X125029Y-41080D01*
X124893Y-40986D01*
X124782Y-40871D01*
X124693Y-40732D01*
X124634Y-40584D01*
X124604Y-40422D01*
X124607Y-40263D01*
X124641Y-40101D01*
X124704Y-39955D01*
X124797Y-39818D01*
X124911Y-39707D01*
X125049Y-39617D01*
X125196Y-39557D01*
X125359Y-39526D01*
X125518Y-39527D01*
X125680Y-39560D01*
X125826Y-39622D01*
X125964Y-39715D01*
X126076Y-39827D01*
X126167Y-39965D01*
X126228Y-40112D01*
X126260Y-40274D01*
X126260Y-40274D01*
G37*
G36*
X126889Y-36810D02*
X126886Y-37081D01*
X126832Y-37317D01*
X126736Y-37533D01*
X126596Y-37731D01*
X126425Y-37894D01*
X126220Y-38024D01*
X126000Y-38109D01*
X125761Y-38152D01*
X125525Y-38147D01*
X125288Y-38095D01*
X125072Y-38000D01*
X124873Y-37862D01*
X124709Y-37692D01*
X124577Y-37488D01*
X124490Y-37268D01*
X124447Y-37030D01*
X124450Y-36794D01*
X124500Y-36556D01*
X124593Y-36339D01*
X124730Y-36139D01*
X124899Y-35974D01*
X125102Y-35841D01*
X125321Y-35753D01*
X125559Y-35707D01*
X125795Y-35709D01*
X126033Y-35758D01*
X126251Y-35849D01*
X126452Y-35985D01*
X126618Y-36152D01*
X126753Y-36355D01*
X126842Y-36572D01*
X126889Y-36810D01*
X126889Y-36810D01*
G37*
G36*
X126929Y-31063D02*
X125865Y-31063D01*
X125865Y-30393D01*
X126929Y-30393D01*
X126929Y-31063D01*
X126929Y-31063D01*
G37*
G36*
X126929Y-35118D02*
X125865Y-35118D01*
X125865Y-34448D01*
X126929Y-34448D01*
X126929Y-35118D01*
X126929Y-35118D01*
G37*
M02*
