G04 (created by PCBNEW (2013-07-07 BZR 4022)-stable) date 14/01/2015 15:32:02*
%MOIN*%
G04 Gerber Fmt 3.4, Leading zero omitted, Abs format*
%FSLAX34Y34*%
G01*
G70*
G90*
G04 APERTURE LIST*
%ADD10C,0.00590551*%
%ADD11R,0.0787402X0.0787402*%
%ADD12R,0.0590551X0.0590551*%
%ADD13C,0.0590551*%
%ADD14C,0.0433*%
%ADD15R,0.06X0.06*%
%ADD16C,0.06*%
%ADD17C,0.1575*%
%ADD18C,0.2362*%
%ADD19C,0.0314961*%
%ADD20C,0.019685*%
%ADD21C,0.00787402*%
%ADD22C,0.00393701*%
G04 APERTURE END LIST*
G54D10*
G54D11*
X102125Y-36653D03*
X102125Y-37440D03*
X101338Y-37440D03*
X100551Y-37440D03*
X101338Y-36653D03*
X100551Y-36653D03*
X99763Y-37440D03*
X98976Y-37440D03*
X99763Y-36653D03*
X98976Y-36653D03*
X102125Y-35866D03*
X101338Y-35866D03*
X100551Y-35866D03*
X99763Y-35866D03*
X98976Y-35866D03*
X102125Y-35078D03*
X101338Y-35078D03*
X100551Y-35078D03*
X99763Y-35078D03*
X98976Y-35078D03*
G54D12*
X117405Y-30984D03*
G54D13*
X116405Y-30984D03*
X115405Y-30984D03*
X114405Y-30984D03*
G54D14*
X108208Y-36229D03*
X108208Y-34299D03*
G54D12*
X110062Y-41377D03*
G54D13*
X111062Y-41377D03*
X112062Y-41377D03*
G54D12*
X120606Y-30984D03*
G54D13*
X119606Y-30984D03*
X118606Y-30984D03*
G54D12*
X102818Y-30984D03*
G54D13*
X103818Y-30984D03*
X104818Y-30984D03*
G54D12*
X104712Y-32165D03*
G54D13*
X103712Y-32165D03*
G54D15*
X115204Y-40696D03*
G54D16*
X115204Y-39696D03*
X116204Y-40696D03*
X116204Y-39696D03*
X117204Y-40696D03*
X117204Y-39696D03*
X118204Y-40696D03*
X118204Y-39696D03*
X119204Y-40696D03*
X119204Y-39696D03*
G54D17*
X125433Y-40354D03*
X123661Y-38582D03*
X122677Y-40354D03*
G54D12*
X106342Y-30984D03*
G54D13*
X107342Y-30984D03*
X108342Y-30984D03*
X109342Y-30984D03*
X110342Y-30984D03*
X111342Y-30984D03*
X112342Y-30984D03*
X113342Y-30984D03*
G54D18*
X125669Y-36929D03*
X107755Y-40551D03*
G54D19*
X117749Y-36253D03*
X117772Y-34213D03*
X115593Y-33226D03*
X110490Y-38382D03*
X108426Y-38556D03*
X111447Y-32721D03*
X115157Y-37993D03*
X113946Y-37561D03*
X114060Y-32970D03*
X116850Y-32753D03*
X113048Y-36234D03*
X112749Y-36521D03*
X113170Y-37976D03*
X112931Y-39315D03*
X113004Y-37618D03*
X111629Y-39865D03*
X111437Y-35865D03*
X113444Y-36629D03*
X113279Y-38361D03*
X112585Y-35808D03*
X112178Y-36658D03*
X112914Y-38550D03*
X112191Y-36222D03*
X113226Y-35537D03*
X113753Y-36159D03*
X113712Y-34454D03*
X119266Y-32462D03*
X113123Y-34459D03*
X112383Y-35013D03*
X106456Y-38099D03*
X108627Y-37813D03*
X110797Y-37386D03*
X110573Y-36817D03*
X106954Y-37674D03*
X103976Y-34527D03*
X99823Y-32448D03*
X115625Y-32538D03*
X105959Y-35481D03*
X119135Y-33424D03*
X111522Y-33290D03*
X112309Y-32894D03*
X114750Y-34586D03*
X115434Y-35534D03*
X112265Y-34419D03*
X109883Y-32605D03*
X110338Y-35678D03*
X120433Y-38232D03*
X113573Y-37807D03*
X116808Y-34258D03*
X100390Y-32441D03*
X100385Y-31744D03*
X100966Y-31746D03*
X100968Y-32457D03*
X101669Y-32474D03*
X102485Y-31841D03*
X102495Y-32495D03*
X105613Y-33317D03*
X99959Y-39842D03*
X101965Y-40237D03*
X103959Y-40628D03*
X105242Y-40668D03*
X107333Y-35291D03*
X120268Y-36107D03*
X118892Y-35722D03*
X117188Y-37194D03*
X106616Y-32250D03*
X99948Y-41788D03*
X100693Y-41800D03*
X101439Y-41812D03*
X102353Y-41812D03*
X102726Y-41006D03*
G54D20*
X114060Y-32970D02*
X113342Y-30984D01*
X116850Y-32753D02*
X115593Y-33226D01*
X113342Y-30984D02*
X111447Y-32721D01*
X117749Y-36253D02*
X117772Y-34213D01*
X117700Y-30984D02*
X118606Y-30984D01*
X117602Y-30984D02*
X117700Y-30984D01*
X117405Y-30984D02*
X117602Y-30984D01*
X105925Y-31527D02*
X104818Y-30984D01*
X105983Y-31548D02*
X106004Y-31551D01*
X105944Y-31536D02*
X105983Y-31548D01*
X105925Y-31527D02*
X105944Y-31536D01*
X109951Y-32177D02*
X106004Y-31551D01*
X109972Y-32180D02*
X109951Y-32177D01*
X110014Y-32191D02*
X109972Y-32180D01*
X110033Y-32198D02*
X110014Y-32191D01*
X111447Y-32721D02*
X110033Y-32198D01*
X117208Y-31181D02*
X117405Y-30984D01*
X117208Y-31279D02*
X117208Y-31181D01*
X117208Y-31285D02*
X117208Y-31279D01*
X117207Y-31297D02*
X117208Y-31285D01*
X117205Y-31302D02*
X117207Y-31297D01*
X116850Y-32753D02*
X117205Y-31302D01*
X113946Y-37561D02*
X115157Y-37993D01*
X108426Y-38556D02*
X110490Y-38382D01*
G54D21*
X111350Y-40011D02*
X112062Y-41377D01*
X111313Y-39941D02*
X111350Y-40011D01*
X111315Y-39782D02*
X111313Y-39941D01*
X111353Y-39713D02*
X111315Y-39782D01*
X113025Y-36673D02*
X111353Y-39713D01*
X113066Y-36547D02*
X113064Y-36503D01*
X113047Y-36634D02*
X113066Y-36547D01*
X113025Y-36673D02*
X113047Y-36634D01*
X113048Y-36234D02*
X113064Y-36503D01*
X111118Y-39846D02*
X111062Y-41377D01*
X111120Y-39791D02*
X111118Y-39846D01*
X111147Y-39683D02*
X111120Y-39791D01*
X111173Y-39634D02*
X111147Y-39683D01*
X112749Y-36521D02*
X111173Y-39634D01*
X112729Y-38295D02*
X113170Y-37976D01*
X112606Y-38637D02*
X112630Y-38686D01*
X112595Y-38527D02*
X112606Y-38637D01*
X112622Y-38419D02*
X112595Y-38527D01*
X112684Y-38328D02*
X112622Y-38419D01*
X112729Y-38295D02*
X112684Y-38328D01*
X112931Y-39315D02*
X112630Y-38686D01*
X112463Y-38309D02*
X111629Y-39865D01*
X112474Y-38288D02*
X112463Y-38309D01*
X112500Y-38249D02*
X112474Y-38288D01*
X112514Y-38231D02*
X112500Y-38249D01*
X113004Y-37618D02*
X112514Y-38231D01*
X110403Y-36047D02*
X111437Y-35865D01*
X110355Y-36055D02*
X110403Y-36047D01*
X110256Y-36046D02*
X110355Y-36055D01*
X110164Y-36013D02*
X110256Y-36046D01*
X110083Y-35956D02*
X110164Y-36013D01*
X110052Y-35918D02*
X110083Y-35956D01*
X109212Y-33966D02*
X110052Y-35918D01*
X108610Y-32982D02*
X109212Y-33966D01*
X105452Y-32671D02*
X108610Y-32982D01*
X105408Y-32652D02*
X105452Y-32671D01*
X105333Y-32592D02*
X105408Y-32652D01*
X105275Y-32515D02*
X105333Y-32592D01*
X105239Y-32425D02*
X105275Y-32515D01*
X105233Y-32378D02*
X105239Y-32425D01*
X105164Y-31849D02*
X105233Y-32378D01*
X105118Y-31752D02*
X105087Y-31734D01*
X105159Y-31813D02*
X105118Y-31752D01*
X105164Y-31849D02*
X105159Y-31813D01*
X104560Y-31426D02*
X105087Y-31734D01*
X104556Y-31423D02*
X104560Y-31426D01*
X103818Y-30984D02*
X104556Y-31423D01*
X115336Y-37665D02*
X113444Y-36629D01*
X115376Y-37687D02*
X115336Y-37665D01*
X115442Y-37747D02*
X115376Y-37687D01*
X115467Y-37784D02*
X115442Y-37747D01*
X116584Y-39441D02*
X115467Y-37784D01*
X116595Y-39457D02*
X116584Y-39441D01*
X116615Y-39493D02*
X116595Y-39457D01*
X116623Y-39512D02*
X116615Y-39493D01*
X116786Y-39881D02*
X116623Y-39512D01*
X116786Y-39881D02*
X116797Y-39906D01*
X117204Y-40696D02*
X116797Y-39906D01*
X114824Y-40046D02*
X113279Y-38361D01*
X115066Y-40204D02*
X115163Y-40211D01*
X114889Y-40117D02*
X115066Y-40204D01*
X114824Y-40046D02*
X114889Y-40117D01*
X115517Y-40239D02*
X115163Y-40211D01*
X115538Y-40241D02*
X115517Y-40239D01*
X115577Y-40255D02*
X115538Y-40241D01*
X115595Y-40268D02*
X115577Y-40255D01*
X116204Y-40696D02*
X115595Y-40268D01*
X115842Y-37314D02*
X118204Y-39696D01*
X115757Y-37237D02*
X115727Y-37215D01*
X115814Y-37287D02*
X115757Y-37237D01*
X115842Y-37314D02*
X115814Y-37287D01*
X113939Y-35905D02*
X115727Y-37215D01*
X113816Y-35847D02*
X113770Y-35845D01*
X113902Y-35878D02*
X113816Y-35847D01*
X113939Y-35905D02*
X113902Y-35878D01*
X113211Y-35816D02*
X113770Y-35845D01*
X113198Y-35815D02*
X113211Y-35816D01*
X113171Y-35811D02*
X113198Y-35815D01*
X113158Y-35808D02*
X113171Y-35811D01*
X113154Y-35807D02*
X113158Y-35808D01*
X113064Y-35793D02*
X113034Y-35794D01*
X113125Y-35799D02*
X113064Y-35793D01*
X113154Y-35807D02*
X113125Y-35799D01*
X112585Y-35808D02*
X113034Y-35794D01*
X112401Y-36457D02*
X112178Y-36658D01*
X112441Y-36415D02*
X112452Y-36399D01*
X112416Y-36444D02*
X112441Y-36415D01*
X112401Y-36457D02*
X112416Y-36444D01*
X112488Y-36345D02*
X112452Y-36399D01*
X112501Y-36326D02*
X112488Y-36345D01*
X112533Y-36291D02*
X112501Y-36326D01*
X112551Y-36276D02*
X112533Y-36291D01*
X112872Y-36017D02*
X112551Y-36276D01*
X112913Y-35984D02*
X112872Y-36017D01*
X113013Y-35952D02*
X112913Y-35984D01*
X113118Y-35959D02*
X113013Y-35952D01*
X113213Y-36003D02*
X113118Y-35959D01*
X113249Y-36041D02*
X113213Y-36003D01*
X113551Y-36354D02*
X113249Y-36041D01*
X113593Y-36391D02*
X113609Y-36400D01*
X113563Y-36368D02*
X113593Y-36391D01*
X113551Y-36354D02*
X113563Y-36368D01*
X115450Y-37504D02*
X113609Y-36400D01*
X115496Y-37531D02*
X115450Y-37504D01*
X115575Y-37601D02*
X115496Y-37531D01*
X115607Y-37643D02*
X115575Y-37601D01*
X117204Y-39696D02*
X115607Y-37643D01*
X116611Y-40487D02*
X116204Y-39696D01*
X116647Y-40557D02*
X116611Y-40487D01*
X116668Y-40713D02*
X116647Y-40557D01*
X116636Y-40867D02*
X116668Y-40713D01*
X116554Y-41002D02*
X116636Y-40867D01*
X116431Y-41101D02*
X116554Y-41002D01*
X116283Y-41154D02*
X116431Y-41101D01*
X116204Y-41154D02*
X116283Y-41154D01*
X114904Y-41154D02*
X116204Y-41154D01*
X114867Y-41154D02*
X114904Y-41154D01*
X114799Y-41120D02*
X114867Y-41154D01*
X114777Y-41090D02*
X114799Y-41120D01*
X112914Y-38550D02*
X114777Y-41090D01*
X118632Y-39202D02*
X119204Y-39696D01*
X118632Y-39201D02*
X118632Y-39202D01*
X116045Y-36966D02*
X118632Y-39201D01*
X115983Y-36914D02*
X115960Y-36898D01*
X116025Y-36948D02*
X115983Y-36914D01*
X116045Y-36966D02*
X116025Y-36948D01*
X114172Y-35588D02*
X115960Y-36898D01*
X114037Y-35508D02*
X113988Y-35491D01*
X114130Y-35557D02*
X114037Y-35508D01*
X114172Y-35588D02*
X114130Y-35557D01*
X113418Y-35290D02*
X113988Y-35491D01*
X113400Y-35284D02*
X113418Y-35290D01*
X113365Y-35270D02*
X113400Y-35284D01*
X113349Y-35263D02*
X113365Y-35270D01*
X113171Y-35235D02*
X113114Y-35258D01*
X113293Y-35238D02*
X113171Y-35235D01*
X113349Y-35263D02*
X113293Y-35238D01*
X112468Y-35516D02*
X113114Y-35258D01*
X112290Y-35672D02*
X112275Y-35752D01*
X112393Y-35546D02*
X112290Y-35672D01*
X112468Y-35516D02*
X112393Y-35546D01*
X112191Y-36222D02*
X112275Y-35752D01*
X113850Y-35657D02*
X113226Y-35537D01*
X113906Y-35667D02*
X113850Y-35657D01*
X114010Y-35713D02*
X113906Y-35667D01*
X114056Y-35746D02*
X114010Y-35713D01*
X115843Y-37057D02*
X114056Y-35746D01*
X115863Y-37071D02*
X115843Y-37057D01*
X115899Y-37100D02*
X115863Y-37071D01*
X115916Y-37115D02*
X115899Y-37100D01*
X118503Y-39350D02*
X115916Y-37115D01*
X118542Y-39384D02*
X118503Y-39350D01*
X118603Y-39466D02*
X118542Y-39384D01*
X118623Y-39512D02*
X118603Y-39466D01*
X118786Y-39881D02*
X118623Y-39512D01*
X118786Y-39881D02*
X118797Y-39906D01*
X119204Y-40696D02*
X118797Y-39906D01*
X115577Y-37351D02*
X113753Y-36159D01*
X115614Y-37375D02*
X115577Y-37351D01*
X115683Y-37432D02*
X115614Y-37375D01*
X115713Y-37464D02*
X115683Y-37432D01*
X117536Y-39381D02*
X115713Y-37464D01*
X117563Y-39410D02*
X117536Y-39381D01*
X117607Y-39476D02*
X117563Y-39410D01*
X117623Y-39512D02*
X117607Y-39476D01*
X117786Y-39881D02*
X117623Y-39512D01*
X117786Y-39881D02*
X117797Y-39906D01*
X118204Y-40696D02*
X117797Y-39906D01*
X114434Y-32965D02*
X114405Y-30984D01*
X114434Y-33011D02*
X114434Y-32965D01*
X114413Y-33101D02*
X114434Y-33011D01*
X114392Y-33142D02*
X114413Y-33101D01*
X113712Y-34454D02*
X114392Y-33142D01*
X114617Y-34236D02*
X119266Y-32462D01*
X114564Y-34261D02*
X114547Y-34272D01*
X114599Y-34243D02*
X114564Y-34261D01*
X114617Y-34236D02*
X114599Y-34243D01*
X113875Y-34706D02*
X114547Y-34272D01*
X113803Y-34753D02*
X113875Y-34706D01*
X113634Y-34756D02*
X113803Y-34753D01*
X113560Y-34714D02*
X113634Y-34756D01*
X113123Y-34459D02*
X113560Y-34714D01*
X112119Y-35598D02*
X112383Y-35013D01*
X112119Y-35598D02*
X112116Y-35604D01*
X111902Y-36097D02*
X112116Y-35604D01*
X111902Y-36097D02*
X111898Y-36107D01*
X111346Y-37510D02*
X111898Y-36107D01*
X111318Y-37582D02*
X111346Y-37510D01*
X111202Y-37683D02*
X111318Y-37582D01*
X111127Y-37701D02*
X111202Y-37683D01*
X109354Y-38131D02*
X111127Y-37701D01*
X107357Y-38324D02*
X109354Y-38131D01*
X106456Y-38099D02*
X107357Y-38324D01*
X108627Y-37813D02*
X110797Y-37386D01*
X108929Y-37567D02*
X106954Y-37674D01*
X110573Y-36817D02*
X108929Y-37567D01*
G54D20*
X103311Y-36158D02*
X103311Y-35192D01*
X103311Y-35192D02*
X103976Y-34527D01*
X102353Y-41812D02*
X102726Y-41006D01*
X100693Y-41800D02*
X101439Y-41812D01*
X99959Y-39842D02*
X99948Y-41788D01*
X108329Y-32457D02*
X109883Y-32605D01*
X106616Y-32250D02*
X108329Y-32457D01*
X113573Y-37807D02*
X115204Y-39696D01*
X125669Y-36929D02*
X120433Y-38232D01*
X110338Y-35678D02*
X112265Y-34419D01*
X115625Y-32538D02*
X115405Y-30984D01*
X101669Y-32474D02*
X102485Y-31841D01*
X112888Y-34822D02*
X112265Y-34419D01*
X112989Y-34872D02*
X113025Y-34881D01*
X112920Y-34843D02*
X112989Y-34872D01*
X112888Y-34822D02*
X112920Y-34843D01*
X113360Y-34959D02*
X113025Y-34881D01*
X113388Y-34965D02*
X113360Y-34959D01*
X113442Y-34984D02*
X113388Y-34965D01*
X113469Y-34995D02*
X113442Y-34984D01*
X113924Y-35012D02*
X113984Y-34981D01*
X113795Y-35045D02*
X113924Y-35012D01*
X113661Y-35049D02*
X113795Y-35045D01*
X113529Y-35023D02*
X113661Y-35049D01*
X113469Y-34995D02*
X113529Y-35023D01*
X114750Y-34586D02*
X113984Y-34981D01*
X100966Y-31746D02*
X100968Y-32457D01*
X102544Y-36355D02*
X103311Y-36158D01*
X103311Y-36158D02*
X105959Y-35481D01*
X102538Y-36356D02*
X102544Y-36355D01*
X102525Y-36358D02*
X102538Y-36356D01*
X102519Y-36358D02*
X102525Y-36358D01*
X102421Y-36358D02*
X102519Y-36358D01*
X102125Y-36653D02*
X102421Y-36358D01*
X102421Y-37736D02*
X102125Y-37440D01*
X102519Y-37736D02*
X102421Y-37736D01*
X102531Y-37736D02*
X102519Y-37736D01*
X102555Y-37742D02*
X102531Y-37736D01*
X102566Y-37748D02*
X102555Y-37742D01*
X107755Y-40551D02*
X102566Y-37748D01*
X99959Y-37834D02*
X99959Y-39842D01*
X99959Y-37736D02*
X99959Y-37834D01*
X99763Y-37440D02*
X99959Y-37736D01*
X120433Y-38232D02*
X120268Y-36107D01*
X102495Y-32495D02*
X105613Y-33317D01*
X105242Y-40668D02*
X107755Y-40551D01*
X101965Y-40237D02*
X103959Y-40628D01*
X117560Y-33835D02*
X116808Y-34258D01*
X117585Y-33821D02*
X117560Y-33835D01*
X117639Y-33800D02*
X117585Y-33821D01*
X117667Y-33793D02*
X117639Y-33800D01*
X119135Y-33424D02*
X117667Y-33793D01*
X100390Y-32441D02*
X100385Y-31744D01*
X100059Y-34685D02*
X99763Y-35078D01*
X100059Y-34681D02*
X100059Y-34685D01*
X100059Y-34672D02*
X100059Y-34681D01*
X100060Y-34668D02*
X100059Y-34672D01*
X99823Y-32448D02*
X100060Y-34668D01*
X111522Y-33290D02*
X112309Y-32894D01*
X115434Y-35534D02*
X114750Y-34586D01*
X120409Y-31181D02*
X120606Y-30984D01*
X120409Y-31279D02*
X120409Y-31181D01*
X120409Y-31292D02*
X120409Y-31279D01*
X120403Y-31316D02*
X120409Y-31292D01*
X120396Y-31327D02*
X120403Y-31316D01*
X119644Y-32673D02*
X120396Y-31327D01*
X119639Y-32682D02*
X119644Y-32673D01*
X119629Y-32698D02*
X119639Y-32682D01*
X119624Y-32705D02*
X119629Y-32698D01*
X119135Y-33424D02*
X119624Y-32705D01*
X118892Y-35722D02*
X117188Y-37194D01*
X109883Y-32605D02*
X111522Y-33290D01*
G54D10*
G36*
X116337Y-40299D02*
X116288Y-40278D01*
X116121Y-40278D01*
X115972Y-40340D01*
X115732Y-40172D01*
X115732Y-39741D01*
X115709Y-39535D01*
X115675Y-39453D01*
X115592Y-39422D01*
X115478Y-39536D01*
X115478Y-39309D01*
X115447Y-39225D01*
X115248Y-39168D01*
X115043Y-39192D01*
X114961Y-39225D01*
X114930Y-39309D01*
X115204Y-39583D01*
X115478Y-39309D01*
X115478Y-39536D01*
X115318Y-39696D01*
X115592Y-39971D01*
X115675Y-39939D01*
X115732Y-39741D01*
X115732Y-40172D01*
X115685Y-40139D01*
X115685Y-40139D01*
X115668Y-40126D01*
X115649Y-40118D01*
X115631Y-40107D01*
X115591Y-40093D01*
X115570Y-40090D01*
X115550Y-40084D01*
X115530Y-40082D01*
X115529Y-40082D01*
X115472Y-40078D01*
X115204Y-39810D01*
X115199Y-39816D01*
X115085Y-39702D01*
X115091Y-39696D01*
X114816Y-39422D01*
X114733Y-39453D01*
X114676Y-39652D01*
X114676Y-39653D01*
X113551Y-38425D01*
X113554Y-38416D01*
X113554Y-38307D01*
X113513Y-38205D01*
X113435Y-38128D01*
X113410Y-38117D01*
X113445Y-38031D01*
X113446Y-37922D01*
X113404Y-37820D01*
X113326Y-37743D01*
X113262Y-37716D01*
X113280Y-37673D01*
X113280Y-37563D01*
X113238Y-37462D01*
X113161Y-37384D01*
X113059Y-37342D01*
X112950Y-37342D01*
X112848Y-37384D01*
X112771Y-37461D01*
X113161Y-36751D01*
X113163Y-36749D01*
X113182Y-36716D01*
X113210Y-36785D01*
X113287Y-36862D01*
X113389Y-36904D01*
X113498Y-36904D01*
X113567Y-36876D01*
X115082Y-37705D01*
X115066Y-37711D01*
X114199Y-37401D01*
X114196Y-37394D01*
X114113Y-37311D01*
X114005Y-37266D01*
X113887Y-37266D01*
X113779Y-37310D01*
X113695Y-37393D01*
X113650Y-37502D01*
X113650Y-37619D01*
X113695Y-37728D01*
X113778Y-37811D01*
X113887Y-37856D01*
X114004Y-37856D01*
X114035Y-37844D01*
X114904Y-38155D01*
X114906Y-38161D01*
X114989Y-38244D01*
X115098Y-38289D01*
X115215Y-38289D01*
X115324Y-38244D01*
X115407Y-38161D01*
X115452Y-38052D01*
X115452Y-38044D01*
X116285Y-39278D01*
X116121Y-39278D01*
X115968Y-39342D01*
X115850Y-39459D01*
X115786Y-39613D01*
X115786Y-39779D01*
X115850Y-39933D01*
X115967Y-40051D01*
X116121Y-40114D01*
X116242Y-40114D01*
X116337Y-40299D01*
X116337Y-40299D01*
G37*
G54D22*
X116337Y-40299D02*
X116288Y-40278D01*
X116121Y-40278D01*
X115972Y-40340D01*
X115732Y-40172D01*
X115732Y-39741D01*
X115709Y-39535D01*
X115675Y-39453D01*
X115592Y-39422D01*
X115478Y-39536D01*
X115478Y-39309D01*
X115447Y-39225D01*
X115248Y-39168D01*
X115043Y-39192D01*
X114961Y-39225D01*
X114930Y-39309D01*
X115204Y-39583D01*
X115478Y-39309D01*
X115478Y-39536D01*
X115318Y-39696D01*
X115592Y-39971D01*
X115675Y-39939D01*
X115732Y-39741D01*
X115732Y-40172D01*
X115685Y-40139D01*
X115685Y-40139D01*
X115668Y-40126D01*
X115649Y-40118D01*
X115631Y-40107D01*
X115591Y-40093D01*
X115570Y-40090D01*
X115550Y-40084D01*
X115530Y-40082D01*
X115529Y-40082D01*
X115472Y-40078D01*
X115204Y-39810D01*
X115199Y-39816D01*
X115085Y-39702D01*
X115091Y-39696D01*
X114816Y-39422D01*
X114733Y-39453D01*
X114676Y-39652D01*
X114676Y-39653D01*
X113551Y-38425D01*
X113554Y-38416D01*
X113554Y-38307D01*
X113513Y-38205D01*
X113435Y-38128D01*
X113410Y-38117D01*
X113445Y-38031D01*
X113446Y-37922D01*
X113404Y-37820D01*
X113326Y-37743D01*
X113262Y-37716D01*
X113280Y-37673D01*
X113280Y-37563D01*
X113238Y-37462D01*
X113161Y-37384D01*
X113059Y-37342D01*
X112950Y-37342D01*
X112848Y-37384D01*
X112771Y-37461D01*
X113161Y-36751D01*
X113163Y-36749D01*
X113182Y-36716D01*
X113210Y-36785D01*
X113287Y-36862D01*
X113389Y-36904D01*
X113498Y-36904D01*
X113567Y-36876D01*
X115082Y-37705D01*
X115066Y-37711D01*
X114199Y-37401D01*
X114196Y-37394D01*
X114113Y-37311D01*
X114005Y-37266D01*
X113887Y-37266D01*
X113779Y-37310D01*
X113695Y-37393D01*
X113650Y-37502D01*
X113650Y-37619D01*
X113695Y-37728D01*
X113778Y-37811D01*
X113887Y-37856D01*
X114004Y-37856D01*
X114035Y-37844D01*
X114904Y-38155D01*
X114906Y-38161D01*
X114989Y-38244D01*
X115098Y-38289D01*
X115215Y-38289D01*
X115324Y-38244D01*
X115407Y-38161D01*
X115452Y-38052D01*
X115452Y-38044D01*
X116285Y-39278D01*
X116121Y-39278D01*
X115968Y-39342D01*
X115850Y-39459D01*
X115786Y-39613D01*
X115786Y-39779D01*
X115850Y-39933D01*
X115967Y-40051D01*
X116121Y-40114D01*
X116242Y-40114D01*
X116337Y-40299D01*
G54D10*
G36*
X127027Y-41988D02*
X126581Y-41988D01*
X126581Y-37955D01*
X125669Y-37042D01*
X125555Y-37156D01*
X125555Y-36929D01*
X124643Y-36016D01*
X124468Y-36156D01*
X124264Y-36674D01*
X124273Y-37231D01*
X124468Y-37702D01*
X124643Y-37841D01*
X125555Y-36929D01*
X125555Y-37156D01*
X124756Y-37955D01*
X124896Y-38129D01*
X125414Y-38334D01*
X125971Y-38324D01*
X126442Y-38129D01*
X126581Y-37955D01*
X126581Y-41988D01*
X126447Y-41988D01*
X126447Y-40515D01*
X126431Y-40114D01*
X126308Y-39817D01*
X126174Y-39726D01*
X126061Y-39839D01*
X126061Y-39612D01*
X125969Y-39478D01*
X125594Y-39340D01*
X125193Y-39355D01*
X124896Y-39478D01*
X124805Y-39612D01*
X125433Y-40240D01*
X126061Y-39612D01*
X126061Y-39839D01*
X125546Y-40354D01*
X126174Y-40982D01*
X126308Y-40891D01*
X126447Y-40515D01*
X126447Y-41988D01*
X126061Y-41988D01*
X126061Y-41096D01*
X125433Y-40467D01*
X125319Y-40581D01*
X125319Y-40354D01*
X124691Y-39726D01*
X124566Y-39811D01*
X124566Y-38402D01*
X124429Y-38070D01*
X124174Y-37815D01*
X123842Y-37676D01*
X123481Y-37676D01*
X123148Y-37814D01*
X122893Y-38068D01*
X122755Y-38401D01*
X122755Y-38761D01*
X122892Y-39094D01*
X123147Y-39349D01*
X123480Y-39487D01*
X123840Y-39488D01*
X124173Y-39350D01*
X124428Y-39095D01*
X124566Y-38763D01*
X124566Y-38402D01*
X124566Y-39811D01*
X124557Y-39817D01*
X124418Y-40193D01*
X124434Y-40593D01*
X124557Y-40891D01*
X124691Y-40982D01*
X125319Y-40354D01*
X125319Y-40581D01*
X124805Y-41096D01*
X124896Y-41229D01*
X125272Y-41368D01*
X125672Y-41352D01*
X125969Y-41229D01*
X126061Y-41096D01*
X126061Y-41988D01*
X123602Y-41988D01*
X123602Y-40171D01*
X123462Y-39830D01*
X123201Y-39570D01*
X122862Y-39429D01*
X122493Y-39428D01*
X122153Y-39569D01*
X121893Y-39829D01*
X121752Y-40169D01*
X121751Y-40537D01*
X121892Y-40877D01*
X122152Y-41138D01*
X122492Y-41279D01*
X122860Y-41279D01*
X123200Y-41139D01*
X123461Y-40879D01*
X123602Y-40539D01*
X123602Y-40171D01*
X123602Y-41988D01*
X121121Y-41988D01*
X121121Y-31236D01*
X121121Y-30732D01*
X121121Y-30645D01*
X121087Y-30564D01*
X121025Y-30502D01*
X120945Y-30469D01*
X120741Y-30469D01*
X120686Y-30524D01*
X120686Y-30903D01*
X121066Y-30903D01*
X121121Y-30849D01*
X121121Y-30732D01*
X121121Y-31236D01*
X121121Y-31119D01*
X121066Y-31064D01*
X120686Y-31064D01*
X120686Y-31444D01*
X120741Y-31499D01*
X120945Y-31499D01*
X121025Y-31465D01*
X121087Y-31404D01*
X121121Y-31323D01*
X121121Y-31236D01*
X121121Y-41988D01*
X120525Y-41988D01*
X120525Y-31444D01*
X120525Y-31064D01*
X120525Y-30903D01*
X120525Y-30524D01*
X120471Y-30469D01*
X120267Y-30469D01*
X120186Y-30502D01*
X120124Y-30564D01*
X120091Y-30645D01*
X120091Y-30732D01*
X120091Y-30849D01*
X120146Y-30903D01*
X120525Y-30903D01*
X120525Y-31064D01*
X120146Y-31064D01*
X120091Y-31119D01*
X120091Y-31236D01*
X120091Y-31323D01*
X120124Y-31404D01*
X120186Y-31465D01*
X120267Y-31499D01*
X120471Y-31499D01*
X120525Y-31444D01*
X120525Y-41988D01*
X120019Y-41988D01*
X120019Y-30902D01*
X119956Y-30750D01*
X119840Y-30634D01*
X119688Y-30570D01*
X119524Y-30570D01*
X119372Y-30633D01*
X119256Y-30749D01*
X119192Y-30901D01*
X119192Y-31066D01*
X119255Y-31218D01*
X119371Y-31334D01*
X119523Y-31397D01*
X119688Y-31397D01*
X119840Y-31334D01*
X119956Y-31218D01*
X120019Y-31066D01*
X120019Y-30902D01*
X120019Y-41988D01*
X119622Y-41988D01*
X119622Y-40614D01*
X119559Y-40460D01*
X119441Y-40342D01*
X119288Y-40278D01*
X119166Y-40278D01*
X119071Y-40094D01*
X119121Y-40114D01*
X119287Y-40115D01*
X119441Y-40051D01*
X119558Y-39934D01*
X119622Y-39780D01*
X119622Y-39614D01*
X119559Y-39460D01*
X119541Y-39442D01*
X119541Y-32407D01*
X119499Y-32306D01*
X119422Y-32229D01*
X119321Y-32186D01*
X119211Y-32186D01*
X119110Y-32228D01*
X119039Y-32299D01*
X119039Y-30898D01*
X118973Y-30739D01*
X118851Y-30617D01*
X118692Y-30551D01*
X118520Y-30551D01*
X118361Y-30616D01*
X118239Y-30738D01*
X118235Y-30748D01*
X117838Y-30748D01*
X117838Y-30661D01*
X117817Y-30611D01*
X117778Y-30572D01*
X117728Y-30551D01*
X117673Y-30551D01*
X117082Y-30551D01*
X117032Y-30572D01*
X116993Y-30610D01*
X116972Y-30661D01*
X116972Y-30716D01*
X116972Y-31265D01*
X116818Y-31890D01*
X116818Y-30902D01*
X116756Y-30750D01*
X116639Y-30634D01*
X116488Y-30570D01*
X116323Y-30570D01*
X116171Y-30633D01*
X116055Y-30749D01*
X115992Y-30901D01*
X115992Y-31066D01*
X116054Y-31218D01*
X116171Y-31334D01*
X116322Y-31397D01*
X116487Y-31397D01*
X116639Y-31334D01*
X116755Y-31218D01*
X116818Y-31066D01*
X116818Y-30902D01*
X116818Y-31890D01*
X116663Y-32522D01*
X116600Y-32585D01*
X116595Y-32597D01*
X115928Y-32847D01*
X115928Y-31027D01*
X115905Y-30823D01*
X115872Y-30744D01*
X115789Y-30713D01*
X115676Y-30827D01*
X115676Y-30599D01*
X115645Y-30517D01*
X115448Y-30460D01*
X115245Y-30484D01*
X115165Y-30517D01*
X115134Y-30599D01*
X115405Y-30870D01*
X115676Y-30599D01*
X115676Y-30827D01*
X115519Y-30984D01*
X115789Y-31255D01*
X115872Y-31224D01*
X115928Y-31027D01*
X115928Y-32847D01*
X115678Y-32942D01*
X115676Y-32941D01*
X115676Y-31368D01*
X115405Y-31097D01*
X115291Y-31211D01*
X115291Y-30984D01*
X115021Y-30713D01*
X114938Y-30744D01*
X114882Y-30941D01*
X114905Y-31144D01*
X114938Y-31224D01*
X115021Y-31255D01*
X115291Y-30984D01*
X115291Y-31211D01*
X115134Y-31368D01*
X115165Y-31451D01*
X115362Y-31507D01*
X115566Y-31484D01*
X115645Y-31451D01*
X115676Y-31368D01*
X115676Y-32941D01*
X115652Y-32931D01*
X115534Y-32931D01*
X115426Y-32975D01*
X115342Y-33058D01*
X115297Y-33167D01*
X115297Y-33284D01*
X115342Y-33393D01*
X115425Y-33476D01*
X115534Y-33521D01*
X115651Y-33521D01*
X115760Y-33476D01*
X115843Y-33393D01*
X115847Y-33383D01*
X116765Y-33037D01*
X116791Y-33048D01*
X116908Y-33048D01*
X117017Y-33003D01*
X117100Y-32920D01*
X117145Y-32812D01*
X117145Y-32694D01*
X117121Y-32637D01*
X117421Y-31417D01*
X117728Y-31417D01*
X117778Y-31396D01*
X117817Y-31357D01*
X117838Y-31307D01*
X117838Y-31252D01*
X117838Y-31220D01*
X118235Y-31220D01*
X118238Y-31229D01*
X118360Y-31351D01*
X118519Y-31417D01*
X118692Y-31417D01*
X118851Y-31351D01*
X118973Y-31229D01*
X119039Y-31070D01*
X119039Y-30898D01*
X119039Y-32299D01*
X119032Y-32306D01*
X118994Y-32396D01*
X114561Y-34089D01*
X114561Y-34089D01*
X114543Y-34096D01*
X114536Y-34101D01*
X114527Y-34103D01*
X114493Y-34121D01*
X114486Y-34126D01*
X114478Y-34129D01*
X114464Y-34138D01*
X114462Y-34139D01*
X113987Y-34446D01*
X113987Y-34400D01*
X113956Y-34325D01*
X114531Y-33215D01*
X114532Y-33215D01*
X114553Y-33173D01*
X114558Y-33155D01*
X114566Y-33137D01*
X114588Y-33047D01*
X114588Y-33028D01*
X114592Y-33009D01*
X114591Y-32963D01*
X114590Y-32958D01*
X114568Y-31364D01*
X114639Y-31334D01*
X114755Y-31218D01*
X114818Y-31066D01*
X114818Y-30902D01*
X114756Y-30750D01*
X114639Y-30634D01*
X114488Y-30570D01*
X114323Y-30570D01*
X114171Y-30633D01*
X114055Y-30749D01*
X113992Y-30901D01*
X113992Y-31066D01*
X114054Y-31218D01*
X114171Y-31334D01*
X114253Y-31368D01*
X114272Y-32765D01*
X114227Y-32720D01*
X114221Y-32717D01*
X113689Y-31249D01*
X113709Y-31229D01*
X113775Y-31070D01*
X113775Y-30898D01*
X113709Y-30739D01*
X113588Y-30617D01*
X113429Y-30551D01*
X113256Y-30551D01*
X113097Y-30616D01*
X112975Y-30738D01*
X112909Y-30897D01*
X112909Y-31061D01*
X112755Y-31201D01*
X112755Y-30902D01*
X112693Y-30750D01*
X112576Y-30634D01*
X112425Y-30570D01*
X112260Y-30570D01*
X112108Y-30633D01*
X111992Y-30749D01*
X111929Y-30901D01*
X111929Y-31066D01*
X111991Y-31218D01*
X112108Y-31334D01*
X112259Y-31397D01*
X112424Y-31397D01*
X112576Y-31334D01*
X112692Y-31218D01*
X112755Y-31066D01*
X112755Y-30902D01*
X112755Y-31201D01*
X111755Y-32118D01*
X111755Y-30902D01*
X111693Y-30750D01*
X111576Y-30634D01*
X111425Y-30570D01*
X111260Y-30570D01*
X111108Y-30633D01*
X110992Y-30749D01*
X110929Y-30901D01*
X110929Y-31066D01*
X110991Y-31218D01*
X111108Y-31334D01*
X111259Y-31397D01*
X111424Y-31397D01*
X111576Y-31334D01*
X111692Y-31218D01*
X111755Y-31066D01*
X111755Y-30902D01*
X111755Y-32118D01*
X111420Y-32425D01*
X111389Y-32425D01*
X111360Y-32437D01*
X110755Y-32214D01*
X110755Y-30902D01*
X110693Y-30750D01*
X110576Y-30634D01*
X110425Y-30570D01*
X110260Y-30570D01*
X110108Y-30633D01*
X109992Y-30749D01*
X109929Y-30901D01*
X109929Y-31066D01*
X109991Y-31218D01*
X110108Y-31334D01*
X110259Y-31397D01*
X110424Y-31397D01*
X110576Y-31334D01*
X110692Y-31218D01*
X110755Y-31066D01*
X110755Y-30902D01*
X110755Y-32214D01*
X110115Y-31977D01*
X110115Y-31977D01*
X110095Y-31969D01*
X110084Y-31968D01*
X110073Y-31962D01*
X110031Y-31951D01*
X110020Y-31951D01*
X110009Y-31947D01*
X109990Y-31944D01*
X109988Y-31943D01*
X109755Y-31906D01*
X109755Y-30902D01*
X109693Y-30750D01*
X109576Y-30634D01*
X109425Y-30570D01*
X109260Y-30570D01*
X109108Y-30633D01*
X108992Y-30749D01*
X108929Y-30901D01*
X108929Y-31066D01*
X108991Y-31218D01*
X109108Y-31334D01*
X109259Y-31397D01*
X109424Y-31397D01*
X109576Y-31334D01*
X109692Y-31218D01*
X109755Y-31066D01*
X109755Y-30902D01*
X109755Y-31906D01*
X108755Y-31748D01*
X108755Y-30902D01*
X108693Y-30750D01*
X108576Y-30634D01*
X108425Y-30570D01*
X108260Y-30570D01*
X108108Y-30633D01*
X107992Y-30749D01*
X107929Y-30901D01*
X107929Y-31066D01*
X107991Y-31218D01*
X108108Y-31334D01*
X108259Y-31397D01*
X108424Y-31397D01*
X108576Y-31334D01*
X108692Y-31218D01*
X108755Y-31066D01*
X108755Y-30902D01*
X108755Y-31748D01*
X107755Y-31590D01*
X107755Y-30902D01*
X107693Y-30750D01*
X107576Y-30634D01*
X107425Y-30570D01*
X107260Y-30570D01*
X107108Y-30633D01*
X106992Y-30749D01*
X106929Y-30901D01*
X106929Y-31066D01*
X106991Y-31218D01*
X107108Y-31334D01*
X107259Y-31397D01*
X107424Y-31397D01*
X107576Y-31334D01*
X107692Y-31218D01*
X107755Y-31066D01*
X107755Y-30902D01*
X107755Y-31590D01*
X106790Y-31437D01*
X106823Y-31404D01*
X106857Y-31323D01*
X106857Y-31236D01*
X106857Y-30732D01*
X106857Y-30645D01*
X106823Y-30564D01*
X106762Y-30502D01*
X106681Y-30469D01*
X106477Y-30469D01*
X106422Y-30524D01*
X106422Y-30903D01*
X106802Y-30903D01*
X106857Y-30849D01*
X106857Y-30732D01*
X106857Y-31236D01*
X106857Y-31119D01*
X106802Y-31064D01*
X106422Y-31064D01*
X106422Y-31072D01*
X106262Y-31072D01*
X106262Y-31064D01*
X106262Y-30903D01*
X106262Y-30524D01*
X106207Y-30469D01*
X106003Y-30469D01*
X105922Y-30502D01*
X105861Y-30564D01*
X105827Y-30645D01*
X105827Y-30732D01*
X105827Y-30849D01*
X105882Y-30903D01*
X106262Y-30903D01*
X106262Y-31064D01*
X105882Y-31064D01*
X105827Y-31119D01*
X105827Y-31215D01*
X105252Y-30933D01*
X105252Y-30898D01*
X105186Y-30739D01*
X105064Y-30617D01*
X104905Y-30551D01*
X104733Y-30551D01*
X104573Y-30616D01*
X104451Y-30738D01*
X104385Y-30897D01*
X104385Y-31070D01*
X104423Y-31161D01*
X104232Y-31047D01*
X104232Y-30902D01*
X104169Y-30750D01*
X104053Y-30634D01*
X103901Y-30570D01*
X103737Y-30570D01*
X103585Y-30633D01*
X103468Y-30749D01*
X103405Y-30901D01*
X103405Y-31066D01*
X103468Y-31218D01*
X103584Y-31334D01*
X103736Y-31397D01*
X103900Y-31397D01*
X104052Y-31334D01*
X104070Y-31317D01*
X104476Y-31559D01*
X104477Y-31559D01*
X104477Y-31559D01*
X104481Y-31562D01*
X104481Y-31562D01*
X104806Y-31751D01*
X104393Y-31751D01*
X104350Y-31769D01*
X104317Y-31803D01*
X104299Y-31846D01*
X104299Y-31893D01*
X104299Y-32484D01*
X104317Y-32527D01*
X104350Y-32560D01*
X104393Y-32578D01*
X104440Y-32578D01*
X105031Y-32578D01*
X105074Y-32560D01*
X105107Y-32527D01*
X105109Y-32524D01*
X105129Y-32574D01*
X105140Y-32590D01*
X105149Y-32609D01*
X105207Y-32686D01*
X105222Y-32700D01*
X105235Y-32715D01*
X105310Y-32775D01*
X105328Y-32784D01*
X105345Y-32796D01*
X105388Y-32815D01*
X105413Y-32821D01*
X105437Y-32828D01*
X108516Y-33130D01*
X109073Y-34043D01*
X109907Y-35980D01*
X109918Y-35995D01*
X109931Y-36019D01*
X109962Y-36057D01*
X109979Y-36070D01*
X109993Y-36085D01*
X110073Y-36141D01*
X110093Y-36150D01*
X110110Y-36160D01*
X110202Y-36194D01*
X110223Y-36197D01*
X110243Y-36203D01*
X110341Y-36212D01*
X110361Y-36210D01*
X110382Y-36210D01*
X110430Y-36202D01*
X110430Y-36202D01*
X110431Y-36202D01*
X111241Y-36059D01*
X111281Y-36098D01*
X111382Y-36140D01*
X111492Y-36141D01*
X111593Y-36099D01*
X111671Y-36021D01*
X111713Y-35920D01*
X111713Y-35810D01*
X111671Y-35709D01*
X111594Y-35631D01*
X111492Y-35589D01*
X111383Y-35589D01*
X111281Y-35631D01*
X111204Y-35709D01*
X111187Y-35748D01*
X110376Y-35891D01*
X110376Y-35891D01*
X110348Y-35896D01*
X110291Y-35891D01*
X110237Y-35872D01*
X110191Y-35839D01*
X110188Y-35836D01*
X109356Y-33904D01*
X109349Y-33893D01*
X109346Y-33885D01*
X108744Y-32900D01*
X108738Y-32893D01*
X108732Y-32881D01*
X108712Y-32865D01*
X108703Y-32855D01*
X108696Y-32852D01*
X108684Y-32842D01*
X108658Y-32834D01*
X108647Y-32829D01*
X108640Y-32829D01*
X108625Y-32824D01*
X105493Y-32517D01*
X105491Y-32516D01*
X105447Y-32481D01*
X105413Y-32437D01*
X105392Y-32385D01*
X105389Y-32357D01*
X105388Y-32355D01*
X105320Y-31829D01*
X105320Y-31829D01*
X105320Y-31829D01*
X105315Y-31792D01*
X105313Y-31788D01*
X105313Y-31783D01*
X105303Y-31758D01*
X105295Y-31734D01*
X105292Y-31730D01*
X105290Y-31726D01*
X105250Y-31665D01*
X105246Y-31661D01*
X105244Y-31657D01*
X105225Y-31640D01*
X105206Y-31621D01*
X105202Y-31619D01*
X105198Y-31616D01*
X105167Y-31598D01*
X105166Y-31598D01*
X104857Y-31417D01*
X104904Y-31417D01*
X105046Y-31358D01*
X105820Y-31737D01*
X105821Y-31739D01*
X105840Y-31748D01*
X105857Y-31752D01*
X105873Y-31761D01*
X105912Y-31773D01*
X105929Y-31775D01*
X105946Y-31781D01*
X105966Y-31785D01*
X105966Y-31785D01*
X105967Y-31785D01*
X109913Y-32410D01*
X109914Y-32410D01*
X109924Y-32412D01*
X109943Y-32417D01*
X109951Y-32420D01*
X109951Y-32420D01*
X111193Y-32879D01*
X111197Y-32888D01*
X111280Y-32971D01*
X111388Y-33016D01*
X111506Y-33016D01*
X111614Y-32971D01*
X111697Y-32888D01*
X111742Y-32780D01*
X111742Y-32771D01*
X113231Y-31407D01*
X113246Y-31413D01*
X113777Y-32880D01*
X113764Y-32911D01*
X113764Y-33029D01*
X113809Y-33137D01*
X113892Y-33220D01*
X114001Y-33265D01*
X114118Y-33266D01*
X114159Y-33249D01*
X113677Y-34179D01*
X113657Y-34179D01*
X113556Y-34220D01*
X113478Y-34298D01*
X113436Y-34399D01*
X113436Y-34459D01*
X113399Y-34437D01*
X113399Y-34404D01*
X113357Y-34303D01*
X113280Y-34225D01*
X113178Y-34183D01*
X113069Y-34183D01*
X112967Y-34225D01*
X112890Y-34303D01*
X112848Y-34404D01*
X112848Y-34514D01*
X112890Y-34615D01*
X112967Y-34692D01*
X113068Y-34734D01*
X113178Y-34735D01*
X113240Y-34709D01*
X113480Y-34849D01*
X113481Y-34850D01*
X113555Y-34893D01*
X113566Y-34897D01*
X113577Y-34903D01*
X113595Y-34907D01*
X113613Y-34913D01*
X113625Y-34912D01*
X113637Y-34914D01*
X113807Y-34910D01*
X113819Y-34907D01*
X113831Y-34907D01*
X113848Y-34901D01*
X113867Y-34897D01*
X113877Y-34889D01*
X113889Y-34885D01*
X113960Y-34839D01*
X113960Y-34839D01*
X113960Y-34839D01*
X114631Y-34405D01*
X114633Y-34404D01*
X114642Y-34398D01*
X114662Y-34388D01*
X114673Y-34384D01*
X114673Y-34384D01*
X119105Y-32691D01*
X119109Y-32696D01*
X119211Y-32738D01*
X119320Y-32738D01*
X119422Y-32696D01*
X119499Y-32618D01*
X119541Y-32517D01*
X119541Y-32407D01*
X119541Y-39442D01*
X119441Y-39342D01*
X119288Y-39278D01*
X119121Y-39278D01*
X119013Y-39323D01*
X118742Y-39088D01*
X118736Y-39081D01*
X118068Y-38503D01*
X118068Y-34154D01*
X118023Y-34046D01*
X117940Y-33963D01*
X117831Y-33918D01*
X117714Y-33918D01*
X117605Y-33962D01*
X117522Y-34045D01*
X117477Y-34154D01*
X117477Y-34271D01*
X117522Y-34380D01*
X117535Y-34393D01*
X117515Y-36070D01*
X117499Y-36086D01*
X117454Y-36194D01*
X117453Y-36312D01*
X117498Y-36420D01*
X117581Y-36504D01*
X117690Y-36549D01*
X117807Y-36549D01*
X117916Y-36504D01*
X117999Y-36421D01*
X118044Y-36312D01*
X118044Y-36195D01*
X117999Y-36086D01*
X117987Y-36074D01*
X118008Y-34395D01*
X118022Y-34380D01*
X118067Y-34272D01*
X118068Y-34154D01*
X118068Y-38503D01*
X116148Y-36847D01*
X116148Y-36847D01*
X116128Y-36829D01*
X116125Y-36828D01*
X116123Y-36825D01*
X116081Y-36791D01*
X116078Y-36790D01*
X116076Y-36787D01*
X116059Y-36775D01*
X116054Y-36769D01*
X114265Y-35461D01*
X114265Y-35460D01*
X114223Y-35430D01*
X114213Y-35425D01*
X114204Y-35418D01*
X114110Y-35368D01*
X114099Y-35365D01*
X114089Y-35359D01*
X114040Y-35342D01*
X114038Y-35342D01*
X113470Y-35142D01*
X113470Y-35142D01*
X113455Y-35136D01*
X113427Y-35125D01*
X113413Y-35119D01*
X113413Y-35119D01*
X113357Y-35094D01*
X113357Y-35094D01*
X113356Y-35093D01*
X113331Y-35088D01*
X113297Y-35080D01*
X113297Y-35080D01*
X113296Y-35080D01*
X113174Y-35078D01*
X113173Y-35078D01*
X113173Y-35078D01*
X113142Y-35083D01*
X113113Y-35088D01*
X113113Y-35089D01*
X113112Y-35089D01*
X113056Y-35111D01*
X113056Y-35111D01*
X112410Y-35370D01*
X112410Y-35370D01*
X112391Y-35377D01*
X112431Y-35289D01*
X112437Y-35289D01*
X112539Y-35247D01*
X112616Y-35169D01*
X112658Y-35068D01*
X112658Y-34958D01*
X112616Y-34857D01*
X112539Y-34779D01*
X112438Y-34737D01*
X112328Y-34737D01*
X112227Y-34779D01*
X112149Y-34857D01*
X112107Y-34958D01*
X112107Y-35067D01*
X112145Y-35158D01*
X111975Y-35533D01*
X111975Y-35533D01*
X111975Y-35534D01*
X111972Y-35540D01*
X111972Y-35541D01*
X111972Y-35541D01*
X111757Y-36034D01*
X111757Y-36036D01*
X111756Y-36037D01*
X111752Y-36047D01*
X111751Y-36052D01*
X111199Y-37453D01*
X111199Y-37453D01*
X111199Y-37453D01*
X111185Y-37488D01*
X111127Y-37539D01*
X111090Y-37548D01*
X111085Y-37550D01*
X111003Y-37570D01*
X111031Y-37542D01*
X111073Y-37441D01*
X111073Y-37331D01*
X111031Y-37230D01*
X110954Y-37152D01*
X110852Y-37110D01*
X110743Y-37110D01*
X110641Y-37152D01*
X110564Y-37230D01*
X110544Y-37277D01*
X109495Y-37483D01*
X110431Y-37056D01*
X110518Y-37092D01*
X110628Y-37092D01*
X110729Y-37051D01*
X110806Y-36973D01*
X110849Y-36872D01*
X110849Y-36762D01*
X110807Y-36661D01*
X110729Y-36583D01*
X110628Y-36541D01*
X110518Y-36541D01*
X110417Y-36583D01*
X110339Y-36660D01*
X110297Y-36762D01*
X110297Y-36771D01*
X108892Y-37411D01*
X108543Y-37430D01*
X108543Y-36162D01*
X108543Y-34232D01*
X108492Y-34109D01*
X108398Y-34015D01*
X108275Y-33964D01*
X108142Y-33964D01*
X108019Y-34015D01*
X107925Y-34109D01*
X107874Y-34232D01*
X107873Y-34365D01*
X107924Y-34488D01*
X108018Y-34582D01*
X108141Y-34633D01*
X108274Y-34633D01*
X108397Y-34583D01*
X108492Y-34489D01*
X108543Y-34366D01*
X108543Y-34232D01*
X108543Y-36162D01*
X108492Y-36039D01*
X108398Y-35945D01*
X108275Y-35894D01*
X108142Y-35894D01*
X108019Y-35945D01*
X107925Y-36039D01*
X107874Y-36162D01*
X107873Y-36295D01*
X107924Y-36418D01*
X108018Y-36512D01*
X108141Y-36563D01*
X108274Y-36563D01*
X108397Y-36513D01*
X108492Y-36419D01*
X108543Y-36296D01*
X108543Y-36162D01*
X108543Y-37430D01*
X107174Y-37504D01*
X107110Y-37441D01*
X107009Y-37399D01*
X106899Y-37398D01*
X106798Y-37440D01*
X106720Y-37518D01*
X106678Y-37619D01*
X106678Y-37729D01*
X106720Y-37830D01*
X106797Y-37908D01*
X106899Y-37950D01*
X107008Y-37950D01*
X107110Y-37908D01*
X107187Y-37830D01*
X107192Y-37819D01*
X108352Y-37756D01*
X108352Y-37758D01*
X108351Y-37868D01*
X108393Y-37969D01*
X108471Y-38047D01*
X108493Y-38056D01*
X107370Y-38164D01*
X106713Y-38001D01*
X106689Y-37943D01*
X106612Y-37865D01*
X106511Y-37823D01*
X106401Y-37823D01*
X106300Y-37865D01*
X106222Y-37942D01*
X106180Y-38044D01*
X106180Y-38153D01*
X106222Y-38255D01*
X106299Y-38332D01*
X106401Y-38374D01*
X106510Y-38374D01*
X106612Y-38332D01*
X106638Y-38306D01*
X107319Y-38476D01*
X107345Y-38478D01*
X107373Y-38480D01*
X108170Y-38404D01*
X108131Y-38497D01*
X108131Y-38615D01*
X108176Y-38723D01*
X108259Y-38806D01*
X108367Y-38852D01*
X108485Y-38852D01*
X108593Y-38807D01*
X108623Y-38777D01*
X110327Y-38634D01*
X110431Y-38677D01*
X110549Y-38677D01*
X110657Y-38632D01*
X110741Y-38549D01*
X110786Y-38441D01*
X110786Y-38323D01*
X110741Y-38215D01*
X110658Y-38132D01*
X110549Y-38087D01*
X110432Y-38086D01*
X110323Y-38131D01*
X110292Y-38163D01*
X109682Y-38214D01*
X111164Y-37855D01*
X111169Y-37853D01*
X111239Y-37836D01*
X111245Y-37833D01*
X111252Y-37832D01*
X111272Y-37821D01*
X111294Y-37810D01*
X111299Y-37805D01*
X111305Y-37802D01*
X111421Y-37700D01*
X111425Y-37695D01*
X111431Y-37691D01*
X111444Y-37670D01*
X111459Y-37652D01*
X111461Y-37645D01*
X111464Y-37639D01*
X111492Y-37568D01*
X111492Y-37568D01*
X111960Y-36381D01*
X112012Y-36434D01*
X111944Y-36501D01*
X111902Y-36603D01*
X111902Y-36712D01*
X111944Y-36814D01*
X112021Y-36891D01*
X112122Y-36933D01*
X112232Y-36933D01*
X112333Y-36892D01*
X112411Y-36814D01*
X112453Y-36713D01*
X112453Y-36622D01*
X112482Y-36596D01*
X112507Y-36656D01*
X111032Y-39562D01*
X111032Y-39563D01*
X111007Y-39612D01*
X111002Y-39629D01*
X110995Y-39644D01*
X110967Y-39751D01*
X110966Y-39769D01*
X110962Y-39785D01*
X110960Y-39841D01*
X110961Y-39845D01*
X110919Y-40989D01*
X110829Y-41027D01*
X110712Y-41143D01*
X110649Y-41295D01*
X110649Y-41459D01*
X110712Y-41611D01*
X110828Y-41728D01*
X110980Y-41791D01*
X111144Y-41791D01*
X111296Y-41728D01*
X111413Y-41612D01*
X111476Y-41460D01*
X111476Y-41296D01*
X111413Y-41144D01*
X111297Y-41027D01*
X111234Y-41001D01*
X111264Y-40186D01*
X111745Y-41110D01*
X111712Y-41143D01*
X111649Y-41295D01*
X111649Y-41459D01*
X111712Y-41611D01*
X111828Y-41728D01*
X111980Y-41791D01*
X112144Y-41791D01*
X112296Y-41728D01*
X112413Y-41612D01*
X112476Y-41460D01*
X112476Y-41296D01*
X112413Y-41144D01*
X112297Y-41027D01*
X112145Y-40964D01*
X112024Y-40964D01*
X111595Y-40140D01*
X111684Y-40141D01*
X111785Y-40099D01*
X111863Y-40021D01*
X111905Y-39920D01*
X111905Y-39810D01*
X111875Y-39739D01*
X112453Y-38663D01*
X112457Y-38677D01*
X112464Y-38705D01*
X112488Y-38754D01*
X112488Y-38754D01*
X112690Y-39176D01*
X112655Y-39260D01*
X112655Y-39370D01*
X112697Y-39471D01*
X112774Y-39549D01*
X112876Y-39591D01*
X112985Y-39591D01*
X113087Y-39549D01*
X113164Y-39472D01*
X113206Y-39370D01*
X113206Y-39261D01*
X113164Y-39159D01*
X113087Y-39082D01*
X112986Y-39040D01*
X112974Y-39040D01*
X112871Y-38826D01*
X112921Y-38826D01*
X114647Y-41175D01*
X114650Y-41183D01*
X114673Y-41213D01*
X114677Y-41217D01*
X114680Y-41222D01*
X114700Y-41238D01*
X114718Y-41255D01*
X114723Y-41257D01*
X114728Y-41260D01*
X114795Y-41294D01*
X114801Y-41296D01*
X114806Y-41299D01*
X114830Y-41304D01*
X114854Y-41311D01*
X114861Y-41310D01*
X114867Y-41311D01*
X114904Y-41311D01*
X116204Y-41311D01*
X116283Y-41311D01*
X116310Y-41306D01*
X116336Y-41302D01*
X116484Y-41249D01*
X116505Y-41237D01*
X116531Y-41223D01*
X116653Y-41124D01*
X116668Y-41106D01*
X116688Y-41084D01*
X116770Y-40949D01*
X116779Y-40925D01*
X116790Y-40899D01*
X116805Y-40826D01*
X116850Y-40933D01*
X116967Y-41051D01*
X117121Y-41114D01*
X117287Y-41115D01*
X117441Y-41051D01*
X117558Y-40934D01*
X117622Y-40780D01*
X117622Y-40614D01*
X117559Y-40460D01*
X117441Y-40342D01*
X117288Y-40278D01*
X117166Y-40278D01*
X117071Y-40094D01*
X117121Y-40114D01*
X117287Y-40115D01*
X117441Y-40051D01*
X117558Y-39934D01*
X117596Y-39842D01*
X117642Y-39944D01*
X117643Y-39946D01*
X117643Y-39949D01*
X117655Y-39973D01*
X117657Y-39975D01*
X117657Y-39978D01*
X117886Y-40423D01*
X117850Y-40459D01*
X117786Y-40613D01*
X117786Y-40779D01*
X117850Y-40933D01*
X117967Y-41051D01*
X118121Y-41114D01*
X118287Y-41115D01*
X118441Y-41051D01*
X118558Y-40934D01*
X118622Y-40780D01*
X118622Y-40614D01*
X118559Y-40460D01*
X118441Y-40342D01*
X118288Y-40278D01*
X118166Y-40278D01*
X118071Y-40094D01*
X118121Y-40114D01*
X118287Y-40115D01*
X118441Y-40051D01*
X118558Y-39934D01*
X118596Y-39842D01*
X118642Y-39944D01*
X118643Y-39946D01*
X118643Y-39949D01*
X118655Y-39973D01*
X118657Y-39975D01*
X118657Y-39978D01*
X118886Y-40423D01*
X118850Y-40459D01*
X118786Y-40613D01*
X118786Y-40779D01*
X118850Y-40933D01*
X118967Y-41051D01*
X119121Y-41114D01*
X119287Y-41115D01*
X119441Y-41051D01*
X119558Y-40934D01*
X119622Y-40780D01*
X119622Y-40614D01*
X119622Y-41988D01*
X110577Y-41988D01*
X110577Y-41629D01*
X110577Y-41126D01*
X110577Y-41038D01*
X110544Y-40958D01*
X110482Y-40896D01*
X110401Y-40862D01*
X110198Y-40862D01*
X110143Y-40917D01*
X110143Y-41297D01*
X110523Y-41297D01*
X110577Y-41242D01*
X110577Y-41126D01*
X110577Y-41629D01*
X110577Y-41513D01*
X110523Y-41458D01*
X110143Y-41458D01*
X110143Y-41837D01*
X110198Y-41892D01*
X110401Y-41892D01*
X110482Y-41859D01*
X110544Y-41797D01*
X110577Y-41717D01*
X110577Y-41629D01*
X110577Y-41988D01*
X109982Y-41988D01*
X109982Y-41837D01*
X109982Y-41458D01*
X109982Y-41297D01*
X109982Y-40917D01*
X109927Y-40862D01*
X109724Y-40862D01*
X109643Y-40896D01*
X109581Y-40958D01*
X109548Y-41038D01*
X109547Y-41126D01*
X109548Y-41242D01*
X109602Y-41297D01*
X109982Y-41297D01*
X109982Y-41458D01*
X109602Y-41458D01*
X109548Y-41513D01*
X109547Y-41629D01*
X109548Y-41717D01*
X109581Y-41797D01*
X109643Y-41859D01*
X109724Y-41892D01*
X109927Y-41892D01*
X109982Y-41837D01*
X109982Y-41988D01*
X109161Y-41988D01*
X109161Y-40805D01*
X109151Y-40248D01*
X108956Y-39778D01*
X108782Y-39638D01*
X108668Y-39752D01*
X108668Y-39525D01*
X108529Y-39350D01*
X108010Y-39145D01*
X107453Y-39155D01*
X106982Y-39350D01*
X106843Y-39525D01*
X107755Y-40437D01*
X108668Y-39525D01*
X108668Y-39752D01*
X107869Y-40551D01*
X108782Y-41463D01*
X108956Y-41324D01*
X109161Y-40805D01*
X109161Y-41988D01*
X108668Y-41988D01*
X108668Y-41577D01*
X107755Y-40664D01*
X107642Y-40778D01*
X107642Y-40551D01*
X106729Y-39638D01*
X106555Y-39778D01*
X106350Y-40296D01*
X106360Y-40853D01*
X106555Y-41324D01*
X106729Y-41463D01*
X107642Y-40551D01*
X107642Y-40778D01*
X106843Y-41577D01*
X106982Y-41751D01*
X107501Y-41956D01*
X108058Y-41946D01*
X108529Y-41751D01*
X108668Y-41577D01*
X108668Y-41988D01*
X104126Y-41988D01*
X104126Y-32083D01*
X104063Y-31931D01*
X103947Y-31815D01*
X103795Y-31752D01*
X103630Y-31751D01*
X103478Y-31814D01*
X103362Y-31930D01*
X103333Y-31999D01*
X103333Y-31236D01*
X103333Y-30732D01*
X103333Y-30645D01*
X103300Y-30564D01*
X103238Y-30502D01*
X103157Y-30469D01*
X102954Y-30469D01*
X102899Y-30524D01*
X102899Y-30903D01*
X103278Y-30903D01*
X103333Y-30849D01*
X103333Y-30732D01*
X103333Y-31236D01*
X103333Y-31119D01*
X103278Y-31064D01*
X102899Y-31064D01*
X102899Y-31444D01*
X102954Y-31499D01*
X103157Y-31499D01*
X103238Y-31465D01*
X103300Y-31404D01*
X103333Y-31323D01*
X103333Y-31236D01*
X103333Y-31999D01*
X103299Y-32082D01*
X103299Y-32247D01*
X103361Y-32399D01*
X103478Y-32515D01*
X103630Y-32578D01*
X103794Y-32578D01*
X103946Y-32516D01*
X104062Y-32399D01*
X104125Y-32247D01*
X104126Y-32083D01*
X104126Y-41988D01*
X102739Y-41988D01*
X102739Y-37791D01*
X102739Y-37090D01*
X102739Y-37047D01*
X102739Y-37003D01*
X102739Y-36303D01*
X102739Y-36259D01*
X102739Y-36216D01*
X102739Y-35515D01*
X102739Y-35472D01*
X102739Y-35428D01*
X102739Y-34728D01*
X102739Y-34641D01*
X102738Y-34639D01*
X102738Y-31444D01*
X102738Y-31064D01*
X102738Y-30903D01*
X102738Y-30524D01*
X102683Y-30469D01*
X102480Y-30469D01*
X102399Y-30502D01*
X102337Y-30564D01*
X102303Y-30645D01*
X102303Y-30732D01*
X102303Y-30849D01*
X102358Y-30903D01*
X102738Y-30903D01*
X102738Y-31064D01*
X102358Y-31064D01*
X102303Y-31119D01*
X102303Y-31236D01*
X102303Y-31323D01*
X102337Y-31404D01*
X102399Y-31465D01*
X102480Y-31499D01*
X102683Y-31499D01*
X102738Y-31444D01*
X102738Y-34639D01*
X102705Y-34560D01*
X102643Y-34498D01*
X102563Y-34465D01*
X102261Y-34465D01*
X102206Y-34520D01*
X102206Y-34998D01*
X102684Y-34998D01*
X102739Y-34943D01*
X102739Y-34728D01*
X102739Y-35428D01*
X102739Y-35213D01*
X102684Y-35159D01*
X102206Y-35159D01*
X102206Y-35307D01*
X102206Y-35637D01*
X102206Y-35785D01*
X102684Y-35785D01*
X102739Y-35730D01*
X102739Y-35515D01*
X102739Y-36216D01*
X102739Y-36001D01*
X102684Y-35946D01*
X102206Y-35946D01*
X102206Y-36095D01*
X102206Y-36424D01*
X102206Y-36573D01*
X102684Y-36573D01*
X102739Y-36518D01*
X102739Y-36303D01*
X102739Y-37003D01*
X102739Y-36788D01*
X102684Y-36733D01*
X102206Y-36733D01*
X102206Y-36882D01*
X102206Y-37212D01*
X102206Y-37360D01*
X102684Y-37360D01*
X102739Y-37305D01*
X102739Y-37090D01*
X102739Y-37791D01*
X102739Y-37576D01*
X102684Y-37521D01*
X102206Y-37521D01*
X102206Y-37999D01*
X102261Y-38054D01*
X102563Y-38054D01*
X102643Y-38020D01*
X102705Y-37959D01*
X102739Y-37878D01*
X102739Y-37791D01*
X102739Y-41988D01*
X102045Y-41988D01*
X102045Y-37999D01*
X102045Y-37521D01*
X102045Y-37360D01*
X102045Y-37212D01*
X102045Y-36882D01*
X102045Y-36733D01*
X102045Y-36573D01*
X102045Y-36424D01*
X102045Y-36095D01*
X102045Y-35946D01*
X102045Y-35785D01*
X102045Y-35637D01*
X102045Y-35307D01*
X102045Y-35159D01*
X102045Y-34998D01*
X102045Y-34520D01*
X101990Y-34465D01*
X101775Y-34465D01*
X101775Y-34465D01*
X101732Y-34465D01*
X101688Y-34465D01*
X101688Y-34465D01*
X101473Y-34465D01*
X101418Y-34520D01*
X101418Y-34998D01*
X101567Y-34998D01*
X101897Y-34998D01*
X102045Y-34998D01*
X102045Y-35159D01*
X101897Y-35159D01*
X101567Y-35159D01*
X101418Y-35159D01*
X101418Y-35307D01*
X101418Y-35637D01*
X101418Y-35785D01*
X101567Y-35785D01*
X101897Y-35785D01*
X102045Y-35785D01*
X102045Y-35946D01*
X101897Y-35946D01*
X101567Y-35946D01*
X101418Y-35946D01*
X101418Y-36095D01*
X101418Y-36424D01*
X101418Y-36573D01*
X101567Y-36573D01*
X101897Y-36573D01*
X102045Y-36573D01*
X102045Y-36733D01*
X101897Y-36733D01*
X101567Y-36733D01*
X101418Y-36733D01*
X101418Y-36882D01*
X101418Y-37212D01*
X101418Y-37360D01*
X101567Y-37360D01*
X101897Y-37360D01*
X102045Y-37360D01*
X102045Y-37521D01*
X101897Y-37521D01*
X101567Y-37521D01*
X101418Y-37521D01*
X101418Y-37999D01*
X101473Y-38054D01*
X101688Y-38054D01*
X101688Y-38054D01*
X101732Y-38054D01*
X101775Y-38054D01*
X101775Y-38054D01*
X101990Y-38054D01*
X102045Y-37999D01*
X102045Y-41988D01*
X101258Y-41988D01*
X101258Y-37999D01*
X101258Y-37521D01*
X101258Y-37360D01*
X101258Y-37212D01*
X101258Y-36882D01*
X101258Y-36733D01*
X101258Y-36573D01*
X101258Y-36424D01*
X101258Y-36095D01*
X101258Y-35946D01*
X101258Y-35785D01*
X101258Y-35637D01*
X101258Y-35307D01*
X101258Y-35159D01*
X101258Y-34998D01*
X101258Y-34520D01*
X101203Y-34465D01*
X100988Y-34465D01*
X100988Y-34465D01*
X100944Y-34465D01*
X100901Y-34465D01*
X100901Y-34465D01*
X100686Y-34465D01*
X100631Y-34520D01*
X100631Y-34998D01*
X100780Y-34998D01*
X101109Y-34998D01*
X101258Y-34998D01*
X101258Y-35159D01*
X101109Y-35159D01*
X100780Y-35159D01*
X100631Y-35159D01*
X100631Y-35307D01*
X100631Y-35637D01*
X100631Y-35785D01*
X100780Y-35785D01*
X101109Y-35785D01*
X101258Y-35785D01*
X101258Y-35946D01*
X101109Y-35946D01*
X100780Y-35946D01*
X100631Y-35946D01*
X100631Y-36095D01*
X100631Y-36424D01*
X100631Y-36573D01*
X100780Y-36573D01*
X101109Y-36573D01*
X101258Y-36573D01*
X101258Y-36733D01*
X101109Y-36733D01*
X100780Y-36733D01*
X100631Y-36733D01*
X100631Y-36882D01*
X100631Y-37212D01*
X100631Y-37360D01*
X100780Y-37360D01*
X101109Y-37360D01*
X101258Y-37360D01*
X101258Y-37521D01*
X101109Y-37521D01*
X100780Y-37521D01*
X100631Y-37521D01*
X100631Y-37999D01*
X100686Y-38054D01*
X100901Y-38054D01*
X100901Y-38054D01*
X100944Y-38054D01*
X100988Y-38054D01*
X100988Y-38054D01*
X101203Y-38054D01*
X101258Y-37999D01*
X101258Y-41988D01*
X100470Y-41988D01*
X100470Y-37999D01*
X100470Y-37521D01*
X100470Y-37360D01*
X100470Y-37212D01*
X100470Y-36882D01*
X100470Y-36733D01*
X100470Y-36573D01*
X100470Y-36424D01*
X100470Y-36095D01*
X100470Y-35946D01*
X100470Y-35785D01*
X100470Y-35637D01*
X100470Y-35307D01*
X100470Y-35159D01*
X100470Y-34998D01*
X100470Y-34520D01*
X100415Y-34465D01*
X100201Y-34465D01*
X100200Y-34465D01*
X100157Y-34465D01*
X100113Y-34465D01*
X100113Y-34465D01*
X99899Y-34465D01*
X99844Y-34520D01*
X99844Y-34998D01*
X99992Y-34998D01*
X100322Y-34998D01*
X100470Y-34998D01*
X100470Y-35159D01*
X100322Y-35159D01*
X99992Y-35159D01*
X99844Y-35159D01*
X99844Y-35307D01*
X99844Y-35637D01*
X99844Y-35785D01*
X99992Y-35785D01*
X100322Y-35785D01*
X100470Y-35785D01*
X100470Y-35946D01*
X100322Y-35946D01*
X99992Y-35946D01*
X99844Y-35946D01*
X99844Y-36095D01*
X99844Y-36424D01*
X99844Y-36573D01*
X99992Y-36573D01*
X100322Y-36573D01*
X100470Y-36573D01*
X100470Y-36733D01*
X100322Y-36733D01*
X99992Y-36733D01*
X99844Y-36733D01*
X99844Y-36882D01*
X99844Y-37212D01*
X99844Y-37360D01*
X99992Y-37360D01*
X100322Y-37360D01*
X100470Y-37360D01*
X100470Y-37521D01*
X100322Y-37521D01*
X99992Y-37521D01*
X99844Y-37521D01*
X99844Y-37999D01*
X99899Y-38054D01*
X100113Y-38054D01*
X100113Y-38054D01*
X100157Y-38054D01*
X100200Y-38054D01*
X100201Y-38054D01*
X100415Y-38054D01*
X100470Y-37999D01*
X100470Y-41988D01*
X99389Y-41988D01*
X99389Y-38054D01*
X99413Y-38054D01*
X99413Y-38054D01*
X99628Y-38054D01*
X99683Y-37999D01*
X99683Y-37521D01*
X99675Y-37521D01*
X99675Y-37360D01*
X99683Y-37360D01*
X99683Y-37212D01*
X99683Y-36882D01*
X99683Y-36733D01*
X99675Y-36733D01*
X99675Y-36573D01*
X99683Y-36573D01*
X99683Y-36424D01*
X99683Y-36095D01*
X99683Y-35946D01*
X99675Y-35946D01*
X99675Y-35785D01*
X99683Y-35785D01*
X99683Y-35637D01*
X99683Y-35307D01*
X99683Y-35159D01*
X99675Y-35159D01*
X99675Y-34998D01*
X99683Y-34998D01*
X99683Y-34520D01*
X99628Y-34465D01*
X99413Y-34465D01*
X99413Y-34465D01*
X99389Y-34465D01*
X99389Y-30452D01*
X127027Y-30452D01*
X127027Y-31082D01*
X124960Y-31082D01*
X124907Y-31093D01*
X124863Y-31123D01*
X124833Y-31167D01*
X124822Y-31220D01*
X124822Y-34291D01*
X124833Y-34344D01*
X124863Y-34388D01*
X124907Y-34418D01*
X124960Y-34429D01*
X127027Y-34429D01*
X127027Y-36536D01*
X126870Y-36156D01*
X126695Y-36016D01*
X126581Y-36130D01*
X126581Y-35903D01*
X126442Y-35728D01*
X125924Y-35523D01*
X125366Y-35533D01*
X124896Y-35728D01*
X124756Y-35903D01*
X125669Y-36815D01*
X126581Y-35903D01*
X126581Y-36130D01*
X125782Y-36929D01*
X126695Y-37841D01*
X126870Y-37702D01*
X127027Y-37302D01*
X127027Y-41988D01*
X127027Y-41988D01*
G37*
G54D22*
X127027Y-41988D02*
X126581Y-41988D01*
X126581Y-37955D01*
X125669Y-37042D01*
X125555Y-37156D01*
X125555Y-36929D01*
X124643Y-36016D01*
X124468Y-36156D01*
X124264Y-36674D01*
X124273Y-37231D01*
X124468Y-37702D01*
X124643Y-37841D01*
X125555Y-36929D01*
X125555Y-37156D01*
X124756Y-37955D01*
X124896Y-38129D01*
X125414Y-38334D01*
X125971Y-38324D01*
X126442Y-38129D01*
X126581Y-37955D01*
X126581Y-41988D01*
X126447Y-41988D01*
X126447Y-40515D01*
X126431Y-40114D01*
X126308Y-39817D01*
X126174Y-39726D01*
X126061Y-39839D01*
X126061Y-39612D01*
X125969Y-39478D01*
X125594Y-39340D01*
X125193Y-39355D01*
X124896Y-39478D01*
X124805Y-39612D01*
X125433Y-40240D01*
X126061Y-39612D01*
X126061Y-39839D01*
X125546Y-40354D01*
X126174Y-40982D01*
X126308Y-40891D01*
X126447Y-40515D01*
X126447Y-41988D01*
X126061Y-41988D01*
X126061Y-41096D01*
X125433Y-40467D01*
X125319Y-40581D01*
X125319Y-40354D01*
X124691Y-39726D01*
X124566Y-39811D01*
X124566Y-38402D01*
X124429Y-38070D01*
X124174Y-37815D01*
X123842Y-37676D01*
X123481Y-37676D01*
X123148Y-37814D01*
X122893Y-38068D01*
X122755Y-38401D01*
X122755Y-38761D01*
X122892Y-39094D01*
X123147Y-39349D01*
X123480Y-39487D01*
X123840Y-39488D01*
X124173Y-39350D01*
X124428Y-39095D01*
X124566Y-38763D01*
X124566Y-38402D01*
X124566Y-39811D01*
X124557Y-39817D01*
X124418Y-40193D01*
X124434Y-40593D01*
X124557Y-40891D01*
X124691Y-40982D01*
X125319Y-40354D01*
X125319Y-40581D01*
X124805Y-41096D01*
X124896Y-41229D01*
X125272Y-41368D01*
X125672Y-41352D01*
X125969Y-41229D01*
X126061Y-41096D01*
X126061Y-41988D01*
X123602Y-41988D01*
X123602Y-40171D01*
X123462Y-39830D01*
X123201Y-39570D01*
X122862Y-39429D01*
X122493Y-39428D01*
X122153Y-39569D01*
X121893Y-39829D01*
X121752Y-40169D01*
X121751Y-40537D01*
X121892Y-40877D01*
X122152Y-41138D01*
X122492Y-41279D01*
X122860Y-41279D01*
X123200Y-41139D01*
X123461Y-40879D01*
X123602Y-40539D01*
X123602Y-40171D01*
X123602Y-41988D01*
X121121Y-41988D01*
X121121Y-31236D01*
X121121Y-30732D01*
X121121Y-30645D01*
X121087Y-30564D01*
X121025Y-30502D01*
X120945Y-30469D01*
X120741Y-30469D01*
X120686Y-30524D01*
X120686Y-30903D01*
X121066Y-30903D01*
X121121Y-30849D01*
X121121Y-30732D01*
X121121Y-31236D01*
X121121Y-31119D01*
X121066Y-31064D01*
X120686Y-31064D01*
X120686Y-31444D01*
X120741Y-31499D01*
X120945Y-31499D01*
X121025Y-31465D01*
X121087Y-31404D01*
X121121Y-31323D01*
X121121Y-31236D01*
X121121Y-41988D01*
X120525Y-41988D01*
X120525Y-31444D01*
X120525Y-31064D01*
X120525Y-30903D01*
X120525Y-30524D01*
X120471Y-30469D01*
X120267Y-30469D01*
X120186Y-30502D01*
X120124Y-30564D01*
X120091Y-30645D01*
X120091Y-30732D01*
X120091Y-30849D01*
X120146Y-30903D01*
X120525Y-30903D01*
X120525Y-31064D01*
X120146Y-31064D01*
X120091Y-31119D01*
X120091Y-31236D01*
X120091Y-31323D01*
X120124Y-31404D01*
X120186Y-31465D01*
X120267Y-31499D01*
X120471Y-31499D01*
X120525Y-31444D01*
X120525Y-41988D01*
X120019Y-41988D01*
X120019Y-30902D01*
X119956Y-30750D01*
X119840Y-30634D01*
X119688Y-30570D01*
X119524Y-30570D01*
X119372Y-30633D01*
X119256Y-30749D01*
X119192Y-30901D01*
X119192Y-31066D01*
X119255Y-31218D01*
X119371Y-31334D01*
X119523Y-31397D01*
X119688Y-31397D01*
X119840Y-31334D01*
X119956Y-31218D01*
X120019Y-31066D01*
X120019Y-30902D01*
X120019Y-41988D01*
X119622Y-41988D01*
X119622Y-40614D01*
X119559Y-40460D01*
X119441Y-40342D01*
X119288Y-40278D01*
X119166Y-40278D01*
X119071Y-40094D01*
X119121Y-40114D01*
X119287Y-40115D01*
X119441Y-40051D01*
X119558Y-39934D01*
X119622Y-39780D01*
X119622Y-39614D01*
X119559Y-39460D01*
X119541Y-39442D01*
X119541Y-32407D01*
X119499Y-32306D01*
X119422Y-32229D01*
X119321Y-32186D01*
X119211Y-32186D01*
X119110Y-32228D01*
X119039Y-32299D01*
X119039Y-30898D01*
X118973Y-30739D01*
X118851Y-30617D01*
X118692Y-30551D01*
X118520Y-30551D01*
X118361Y-30616D01*
X118239Y-30738D01*
X118235Y-30748D01*
X117838Y-30748D01*
X117838Y-30661D01*
X117817Y-30611D01*
X117778Y-30572D01*
X117728Y-30551D01*
X117673Y-30551D01*
X117082Y-30551D01*
X117032Y-30572D01*
X116993Y-30610D01*
X116972Y-30661D01*
X116972Y-30716D01*
X116972Y-31265D01*
X116818Y-31890D01*
X116818Y-30902D01*
X116756Y-30750D01*
X116639Y-30634D01*
X116488Y-30570D01*
X116323Y-30570D01*
X116171Y-30633D01*
X116055Y-30749D01*
X115992Y-30901D01*
X115992Y-31066D01*
X116054Y-31218D01*
X116171Y-31334D01*
X116322Y-31397D01*
X116487Y-31397D01*
X116639Y-31334D01*
X116755Y-31218D01*
X116818Y-31066D01*
X116818Y-30902D01*
X116818Y-31890D01*
X116663Y-32522D01*
X116600Y-32585D01*
X116595Y-32597D01*
X115928Y-32847D01*
X115928Y-31027D01*
X115905Y-30823D01*
X115872Y-30744D01*
X115789Y-30713D01*
X115676Y-30827D01*
X115676Y-30599D01*
X115645Y-30517D01*
X115448Y-30460D01*
X115245Y-30484D01*
X115165Y-30517D01*
X115134Y-30599D01*
X115405Y-30870D01*
X115676Y-30599D01*
X115676Y-30827D01*
X115519Y-30984D01*
X115789Y-31255D01*
X115872Y-31224D01*
X115928Y-31027D01*
X115928Y-32847D01*
X115678Y-32942D01*
X115676Y-32941D01*
X115676Y-31368D01*
X115405Y-31097D01*
X115291Y-31211D01*
X115291Y-30984D01*
X115021Y-30713D01*
X114938Y-30744D01*
X114882Y-30941D01*
X114905Y-31144D01*
X114938Y-31224D01*
X115021Y-31255D01*
X115291Y-30984D01*
X115291Y-31211D01*
X115134Y-31368D01*
X115165Y-31451D01*
X115362Y-31507D01*
X115566Y-31484D01*
X115645Y-31451D01*
X115676Y-31368D01*
X115676Y-32941D01*
X115652Y-32931D01*
X115534Y-32931D01*
X115426Y-32975D01*
X115342Y-33058D01*
X115297Y-33167D01*
X115297Y-33284D01*
X115342Y-33393D01*
X115425Y-33476D01*
X115534Y-33521D01*
X115651Y-33521D01*
X115760Y-33476D01*
X115843Y-33393D01*
X115847Y-33383D01*
X116765Y-33037D01*
X116791Y-33048D01*
X116908Y-33048D01*
X117017Y-33003D01*
X117100Y-32920D01*
X117145Y-32812D01*
X117145Y-32694D01*
X117121Y-32637D01*
X117421Y-31417D01*
X117728Y-31417D01*
X117778Y-31396D01*
X117817Y-31357D01*
X117838Y-31307D01*
X117838Y-31252D01*
X117838Y-31220D01*
X118235Y-31220D01*
X118238Y-31229D01*
X118360Y-31351D01*
X118519Y-31417D01*
X118692Y-31417D01*
X118851Y-31351D01*
X118973Y-31229D01*
X119039Y-31070D01*
X119039Y-30898D01*
X119039Y-32299D01*
X119032Y-32306D01*
X118994Y-32396D01*
X114561Y-34089D01*
X114561Y-34089D01*
X114543Y-34096D01*
X114536Y-34101D01*
X114527Y-34103D01*
X114493Y-34121D01*
X114486Y-34126D01*
X114478Y-34129D01*
X114464Y-34138D01*
X114462Y-34139D01*
X113987Y-34446D01*
X113987Y-34400D01*
X113956Y-34325D01*
X114531Y-33215D01*
X114532Y-33215D01*
X114553Y-33173D01*
X114558Y-33155D01*
X114566Y-33137D01*
X114588Y-33047D01*
X114588Y-33028D01*
X114592Y-33009D01*
X114591Y-32963D01*
X114590Y-32958D01*
X114568Y-31364D01*
X114639Y-31334D01*
X114755Y-31218D01*
X114818Y-31066D01*
X114818Y-30902D01*
X114756Y-30750D01*
X114639Y-30634D01*
X114488Y-30570D01*
X114323Y-30570D01*
X114171Y-30633D01*
X114055Y-30749D01*
X113992Y-30901D01*
X113992Y-31066D01*
X114054Y-31218D01*
X114171Y-31334D01*
X114253Y-31368D01*
X114272Y-32765D01*
X114227Y-32720D01*
X114221Y-32717D01*
X113689Y-31249D01*
X113709Y-31229D01*
X113775Y-31070D01*
X113775Y-30898D01*
X113709Y-30739D01*
X113588Y-30617D01*
X113429Y-30551D01*
X113256Y-30551D01*
X113097Y-30616D01*
X112975Y-30738D01*
X112909Y-30897D01*
X112909Y-31061D01*
X112755Y-31201D01*
X112755Y-30902D01*
X112693Y-30750D01*
X112576Y-30634D01*
X112425Y-30570D01*
X112260Y-30570D01*
X112108Y-30633D01*
X111992Y-30749D01*
X111929Y-30901D01*
X111929Y-31066D01*
X111991Y-31218D01*
X112108Y-31334D01*
X112259Y-31397D01*
X112424Y-31397D01*
X112576Y-31334D01*
X112692Y-31218D01*
X112755Y-31066D01*
X112755Y-30902D01*
X112755Y-31201D01*
X111755Y-32118D01*
X111755Y-30902D01*
X111693Y-30750D01*
X111576Y-30634D01*
X111425Y-30570D01*
X111260Y-30570D01*
X111108Y-30633D01*
X110992Y-30749D01*
X110929Y-30901D01*
X110929Y-31066D01*
X110991Y-31218D01*
X111108Y-31334D01*
X111259Y-31397D01*
X111424Y-31397D01*
X111576Y-31334D01*
X111692Y-31218D01*
X111755Y-31066D01*
X111755Y-30902D01*
X111755Y-32118D01*
X111420Y-32425D01*
X111389Y-32425D01*
X111360Y-32437D01*
X110755Y-32214D01*
X110755Y-30902D01*
X110693Y-30750D01*
X110576Y-30634D01*
X110425Y-30570D01*
X110260Y-30570D01*
X110108Y-30633D01*
X109992Y-30749D01*
X109929Y-30901D01*
X109929Y-31066D01*
X109991Y-31218D01*
X110108Y-31334D01*
X110259Y-31397D01*
X110424Y-31397D01*
X110576Y-31334D01*
X110692Y-31218D01*
X110755Y-31066D01*
X110755Y-30902D01*
X110755Y-32214D01*
X110115Y-31977D01*
X110115Y-31977D01*
X110095Y-31969D01*
X110084Y-31968D01*
X110073Y-31962D01*
X110031Y-31951D01*
X110020Y-31951D01*
X110009Y-31947D01*
X109990Y-31944D01*
X109988Y-31943D01*
X109755Y-31906D01*
X109755Y-30902D01*
X109693Y-30750D01*
X109576Y-30634D01*
X109425Y-30570D01*
X109260Y-30570D01*
X109108Y-30633D01*
X108992Y-30749D01*
X108929Y-30901D01*
X108929Y-31066D01*
X108991Y-31218D01*
X109108Y-31334D01*
X109259Y-31397D01*
X109424Y-31397D01*
X109576Y-31334D01*
X109692Y-31218D01*
X109755Y-31066D01*
X109755Y-30902D01*
X109755Y-31906D01*
X108755Y-31748D01*
X108755Y-30902D01*
X108693Y-30750D01*
X108576Y-30634D01*
X108425Y-30570D01*
X108260Y-30570D01*
X108108Y-30633D01*
X107992Y-30749D01*
X107929Y-30901D01*
X107929Y-31066D01*
X107991Y-31218D01*
X108108Y-31334D01*
X108259Y-31397D01*
X108424Y-31397D01*
X108576Y-31334D01*
X108692Y-31218D01*
X108755Y-31066D01*
X108755Y-30902D01*
X108755Y-31748D01*
X107755Y-31590D01*
X107755Y-30902D01*
X107693Y-30750D01*
X107576Y-30634D01*
X107425Y-30570D01*
X107260Y-30570D01*
X107108Y-30633D01*
X106992Y-30749D01*
X106929Y-30901D01*
X106929Y-31066D01*
X106991Y-31218D01*
X107108Y-31334D01*
X107259Y-31397D01*
X107424Y-31397D01*
X107576Y-31334D01*
X107692Y-31218D01*
X107755Y-31066D01*
X107755Y-30902D01*
X107755Y-31590D01*
X106790Y-31437D01*
X106823Y-31404D01*
X106857Y-31323D01*
X106857Y-31236D01*
X106857Y-30732D01*
X106857Y-30645D01*
X106823Y-30564D01*
X106762Y-30502D01*
X106681Y-30469D01*
X106477Y-30469D01*
X106422Y-30524D01*
X106422Y-30903D01*
X106802Y-30903D01*
X106857Y-30849D01*
X106857Y-30732D01*
X106857Y-31236D01*
X106857Y-31119D01*
X106802Y-31064D01*
X106422Y-31064D01*
X106422Y-31072D01*
X106262Y-31072D01*
X106262Y-31064D01*
X106262Y-30903D01*
X106262Y-30524D01*
X106207Y-30469D01*
X106003Y-30469D01*
X105922Y-30502D01*
X105861Y-30564D01*
X105827Y-30645D01*
X105827Y-30732D01*
X105827Y-30849D01*
X105882Y-30903D01*
X106262Y-30903D01*
X106262Y-31064D01*
X105882Y-31064D01*
X105827Y-31119D01*
X105827Y-31215D01*
X105252Y-30933D01*
X105252Y-30898D01*
X105186Y-30739D01*
X105064Y-30617D01*
X104905Y-30551D01*
X104733Y-30551D01*
X104573Y-30616D01*
X104451Y-30738D01*
X104385Y-30897D01*
X104385Y-31070D01*
X104423Y-31161D01*
X104232Y-31047D01*
X104232Y-30902D01*
X104169Y-30750D01*
X104053Y-30634D01*
X103901Y-30570D01*
X103737Y-30570D01*
X103585Y-30633D01*
X103468Y-30749D01*
X103405Y-30901D01*
X103405Y-31066D01*
X103468Y-31218D01*
X103584Y-31334D01*
X103736Y-31397D01*
X103900Y-31397D01*
X104052Y-31334D01*
X104070Y-31317D01*
X104476Y-31559D01*
X104477Y-31559D01*
X104477Y-31559D01*
X104481Y-31562D01*
X104481Y-31562D01*
X104806Y-31751D01*
X104393Y-31751D01*
X104350Y-31769D01*
X104317Y-31803D01*
X104299Y-31846D01*
X104299Y-31893D01*
X104299Y-32484D01*
X104317Y-32527D01*
X104350Y-32560D01*
X104393Y-32578D01*
X104440Y-32578D01*
X105031Y-32578D01*
X105074Y-32560D01*
X105107Y-32527D01*
X105109Y-32524D01*
X105129Y-32574D01*
X105140Y-32590D01*
X105149Y-32609D01*
X105207Y-32686D01*
X105222Y-32700D01*
X105235Y-32715D01*
X105310Y-32775D01*
X105328Y-32784D01*
X105345Y-32796D01*
X105388Y-32815D01*
X105413Y-32821D01*
X105437Y-32828D01*
X108516Y-33130D01*
X109073Y-34043D01*
X109907Y-35980D01*
X109918Y-35995D01*
X109931Y-36019D01*
X109962Y-36057D01*
X109979Y-36070D01*
X109993Y-36085D01*
X110073Y-36141D01*
X110093Y-36150D01*
X110110Y-36160D01*
X110202Y-36194D01*
X110223Y-36197D01*
X110243Y-36203D01*
X110341Y-36212D01*
X110361Y-36210D01*
X110382Y-36210D01*
X110430Y-36202D01*
X110430Y-36202D01*
X110431Y-36202D01*
X111241Y-36059D01*
X111281Y-36098D01*
X111382Y-36140D01*
X111492Y-36141D01*
X111593Y-36099D01*
X111671Y-36021D01*
X111713Y-35920D01*
X111713Y-35810D01*
X111671Y-35709D01*
X111594Y-35631D01*
X111492Y-35589D01*
X111383Y-35589D01*
X111281Y-35631D01*
X111204Y-35709D01*
X111187Y-35748D01*
X110376Y-35891D01*
X110376Y-35891D01*
X110348Y-35896D01*
X110291Y-35891D01*
X110237Y-35872D01*
X110191Y-35839D01*
X110188Y-35836D01*
X109356Y-33904D01*
X109349Y-33893D01*
X109346Y-33885D01*
X108744Y-32900D01*
X108738Y-32893D01*
X108732Y-32881D01*
X108712Y-32865D01*
X108703Y-32855D01*
X108696Y-32852D01*
X108684Y-32842D01*
X108658Y-32834D01*
X108647Y-32829D01*
X108640Y-32829D01*
X108625Y-32824D01*
X105493Y-32517D01*
X105491Y-32516D01*
X105447Y-32481D01*
X105413Y-32437D01*
X105392Y-32385D01*
X105389Y-32357D01*
X105388Y-32355D01*
X105320Y-31829D01*
X105320Y-31829D01*
X105320Y-31829D01*
X105315Y-31792D01*
X105313Y-31788D01*
X105313Y-31783D01*
X105303Y-31758D01*
X105295Y-31734D01*
X105292Y-31730D01*
X105290Y-31726D01*
X105250Y-31665D01*
X105246Y-31661D01*
X105244Y-31657D01*
X105225Y-31640D01*
X105206Y-31621D01*
X105202Y-31619D01*
X105198Y-31616D01*
X105167Y-31598D01*
X105166Y-31598D01*
X104857Y-31417D01*
X104904Y-31417D01*
X105046Y-31358D01*
X105820Y-31737D01*
X105821Y-31739D01*
X105840Y-31748D01*
X105857Y-31752D01*
X105873Y-31761D01*
X105912Y-31773D01*
X105929Y-31775D01*
X105946Y-31781D01*
X105966Y-31785D01*
X105966Y-31785D01*
X105967Y-31785D01*
X109913Y-32410D01*
X109914Y-32410D01*
X109924Y-32412D01*
X109943Y-32417D01*
X109951Y-32420D01*
X109951Y-32420D01*
X111193Y-32879D01*
X111197Y-32888D01*
X111280Y-32971D01*
X111388Y-33016D01*
X111506Y-33016D01*
X111614Y-32971D01*
X111697Y-32888D01*
X111742Y-32780D01*
X111742Y-32771D01*
X113231Y-31407D01*
X113246Y-31413D01*
X113777Y-32880D01*
X113764Y-32911D01*
X113764Y-33029D01*
X113809Y-33137D01*
X113892Y-33220D01*
X114001Y-33265D01*
X114118Y-33266D01*
X114159Y-33249D01*
X113677Y-34179D01*
X113657Y-34179D01*
X113556Y-34220D01*
X113478Y-34298D01*
X113436Y-34399D01*
X113436Y-34459D01*
X113399Y-34437D01*
X113399Y-34404D01*
X113357Y-34303D01*
X113280Y-34225D01*
X113178Y-34183D01*
X113069Y-34183D01*
X112967Y-34225D01*
X112890Y-34303D01*
X112848Y-34404D01*
X112848Y-34514D01*
X112890Y-34615D01*
X112967Y-34692D01*
X113068Y-34734D01*
X113178Y-34735D01*
X113240Y-34709D01*
X113480Y-34849D01*
X113481Y-34850D01*
X113555Y-34893D01*
X113566Y-34897D01*
X113577Y-34903D01*
X113595Y-34907D01*
X113613Y-34913D01*
X113625Y-34912D01*
X113637Y-34914D01*
X113807Y-34910D01*
X113819Y-34907D01*
X113831Y-34907D01*
X113848Y-34901D01*
X113867Y-34897D01*
X113877Y-34889D01*
X113889Y-34885D01*
X113960Y-34839D01*
X113960Y-34839D01*
X113960Y-34839D01*
X114631Y-34405D01*
X114633Y-34404D01*
X114642Y-34398D01*
X114662Y-34388D01*
X114673Y-34384D01*
X114673Y-34384D01*
X119105Y-32691D01*
X119109Y-32696D01*
X119211Y-32738D01*
X119320Y-32738D01*
X119422Y-32696D01*
X119499Y-32618D01*
X119541Y-32517D01*
X119541Y-32407D01*
X119541Y-39442D01*
X119441Y-39342D01*
X119288Y-39278D01*
X119121Y-39278D01*
X119013Y-39323D01*
X118742Y-39088D01*
X118736Y-39081D01*
X118068Y-38503D01*
X118068Y-34154D01*
X118023Y-34046D01*
X117940Y-33963D01*
X117831Y-33918D01*
X117714Y-33918D01*
X117605Y-33962D01*
X117522Y-34045D01*
X117477Y-34154D01*
X117477Y-34271D01*
X117522Y-34380D01*
X117535Y-34393D01*
X117515Y-36070D01*
X117499Y-36086D01*
X117454Y-36194D01*
X117453Y-36312D01*
X117498Y-36420D01*
X117581Y-36504D01*
X117690Y-36549D01*
X117807Y-36549D01*
X117916Y-36504D01*
X117999Y-36421D01*
X118044Y-36312D01*
X118044Y-36195D01*
X117999Y-36086D01*
X117987Y-36074D01*
X118008Y-34395D01*
X118022Y-34380D01*
X118067Y-34272D01*
X118068Y-34154D01*
X118068Y-38503D01*
X116148Y-36847D01*
X116148Y-36847D01*
X116128Y-36829D01*
X116125Y-36828D01*
X116123Y-36825D01*
X116081Y-36791D01*
X116078Y-36790D01*
X116076Y-36787D01*
X116059Y-36775D01*
X116054Y-36769D01*
X114265Y-35461D01*
X114265Y-35460D01*
X114223Y-35430D01*
X114213Y-35425D01*
X114204Y-35418D01*
X114110Y-35368D01*
X114099Y-35365D01*
X114089Y-35359D01*
X114040Y-35342D01*
X114038Y-35342D01*
X113470Y-35142D01*
X113470Y-35142D01*
X113455Y-35136D01*
X113427Y-35125D01*
X113413Y-35119D01*
X113413Y-35119D01*
X113357Y-35094D01*
X113357Y-35094D01*
X113356Y-35093D01*
X113331Y-35088D01*
X113297Y-35080D01*
X113297Y-35080D01*
X113296Y-35080D01*
X113174Y-35078D01*
X113173Y-35078D01*
X113173Y-35078D01*
X113142Y-35083D01*
X113113Y-35088D01*
X113113Y-35089D01*
X113112Y-35089D01*
X113056Y-35111D01*
X113056Y-35111D01*
X112410Y-35370D01*
X112410Y-35370D01*
X112391Y-35377D01*
X112431Y-35289D01*
X112437Y-35289D01*
X112539Y-35247D01*
X112616Y-35169D01*
X112658Y-35068D01*
X112658Y-34958D01*
X112616Y-34857D01*
X112539Y-34779D01*
X112438Y-34737D01*
X112328Y-34737D01*
X112227Y-34779D01*
X112149Y-34857D01*
X112107Y-34958D01*
X112107Y-35067D01*
X112145Y-35158D01*
X111975Y-35533D01*
X111975Y-35533D01*
X111975Y-35534D01*
X111972Y-35540D01*
X111972Y-35541D01*
X111972Y-35541D01*
X111757Y-36034D01*
X111757Y-36036D01*
X111756Y-36037D01*
X111752Y-36047D01*
X111751Y-36052D01*
X111199Y-37453D01*
X111199Y-37453D01*
X111199Y-37453D01*
X111185Y-37488D01*
X111127Y-37539D01*
X111090Y-37548D01*
X111085Y-37550D01*
X111003Y-37570D01*
X111031Y-37542D01*
X111073Y-37441D01*
X111073Y-37331D01*
X111031Y-37230D01*
X110954Y-37152D01*
X110852Y-37110D01*
X110743Y-37110D01*
X110641Y-37152D01*
X110564Y-37230D01*
X110544Y-37277D01*
X109495Y-37483D01*
X110431Y-37056D01*
X110518Y-37092D01*
X110628Y-37092D01*
X110729Y-37051D01*
X110806Y-36973D01*
X110849Y-36872D01*
X110849Y-36762D01*
X110807Y-36661D01*
X110729Y-36583D01*
X110628Y-36541D01*
X110518Y-36541D01*
X110417Y-36583D01*
X110339Y-36660D01*
X110297Y-36762D01*
X110297Y-36771D01*
X108892Y-37411D01*
X108543Y-37430D01*
X108543Y-36162D01*
X108543Y-34232D01*
X108492Y-34109D01*
X108398Y-34015D01*
X108275Y-33964D01*
X108142Y-33964D01*
X108019Y-34015D01*
X107925Y-34109D01*
X107874Y-34232D01*
X107873Y-34365D01*
X107924Y-34488D01*
X108018Y-34582D01*
X108141Y-34633D01*
X108274Y-34633D01*
X108397Y-34583D01*
X108492Y-34489D01*
X108543Y-34366D01*
X108543Y-34232D01*
X108543Y-36162D01*
X108492Y-36039D01*
X108398Y-35945D01*
X108275Y-35894D01*
X108142Y-35894D01*
X108019Y-35945D01*
X107925Y-36039D01*
X107874Y-36162D01*
X107873Y-36295D01*
X107924Y-36418D01*
X108018Y-36512D01*
X108141Y-36563D01*
X108274Y-36563D01*
X108397Y-36513D01*
X108492Y-36419D01*
X108543Y-36296D01*
X108543Y-36162D01*
X108543Y-37430D01*
X107174Y-37504D01*
X107110Y-37441D01*
X107009Y-37399D01*
X106899Y-37398D01*
X106798Y-37440D01*
X106720Y-37518D01*
X106678Y-37619D01*
X106678Y-37729D01*
X106720Y-37830D01*
X106797Y-37908D01*
X106899Y-37950D01*
X107008Y-37950D01*
X107110Y-37908D01*
X107187Y-37830D01*
X107192Y-37819D01*
X108352Y-37756D01*
X108352Y-37758D01*
X108351Y-37868D01*
X108393Y-37969D01*
X108471Y-38047D01*
X108493Y-38056D01*
X107370Y-38164D01*
X106713Y-38001D01*
X106689Y-37943D01*
X106612Y-37865D01*
X106511Y-37823D01*
X106401Y-37823D01*
X106300Y-37865D01*
X106222Y-37942D01*
X106180Y-38044D01*
X106180Y-38153D01*
X106222Y-38255D01*
X106299Y-38332D01*
X106401Y-38374D01*
X106510Y-38374D01*
X106612Y-38332D01*
X106638Y-38306D01*
X107319Y-38476D01*
X107345Y-38478D01*
X107373Y-38480D01*
X108170Y-38404D01*
X108131Y-38497D01*
X108131Y-38615D01*
X108176Y-38723D01*
X108259Y-38806D01*
X108367Y-38852D01*
X108485Y-38852D01*
X108593Y-38807D01*
X108623Y-38777D01*
X110327Y-38634D01*
X110431Y-38677D01*
X110549Y-38677D01*
X110657Y-38632D01*
X110741Y-38549D01*
X110786Y-38441D01*
X110786Y-38323D01*
X110741Y-38215D01*
X110658Y-38132D01*
X110549Y-38087D01*
X110432Y-38086D01*
X110323Y-38131D01*
X110292Y-38163D01*
X109682Y-38214D01*
X111164Y-37855D01*
X111169Y-37853D01*
X111239Y-37836D01*
X111245Y-37833D01*
X111252Y-37832D01*
X111272Y-37821D01*
X111294Y-37810D01*
X111299Y-37805D01*
X111305Y-37802D01*
X111421Y-37700D01*
X111425Y-37695D01*
X111431Y-37691D01*
X111444Y-37670D01*
X111459Y-37652D01*
X111461Y-37645D01*
X111464Y-37639D01*
X111492Y-37568D01*
X111492Y-37568D01*
X111960Y-36381D01*
X112012Y-36434D01*
X111944Y-36501D01*
X111902Y-36603D01*
X111902Y-36712D01*
X111944Y-36814D01*
X112021Y-36891D01*
X112122Y-36933D01*
X112232Y-36933D01*
X112333Y-36892D01*
X112411Y-36814D01*
X112453Y-36713D01*
X112453Y-36622D01*
X112482Y-36596D01*
X112507Y-36656D01*
X111032Y-39562D01*
X111032Y-39563D01*
X111007Y-39612D01*
X111002Y-39629D01*
X110995Y-39644D01*
X110967Y-39751D01*
X110966Y-39769D01*
X110962Y-39785D01*
X110960Y-39841D01*
X110961Y-39845D01*
X110919Y-40989D01*
X110829Y-41027D01*
X110712Y-41143D01*
X110649Y-41295D01*
X110649Y-41459D01*
X110712Y-41611D01*
X110828Y-41728D01*
X110980Y-41791D01*
X111144Y-41791D01*
X111296Y-41728D01*
X111413Y-41612D01*
X111476Y-41460D01*
X111476Y-41296D01*
X111413Y-41144D01*
X111297Y-41027D01*
X111234Y-41001D01*
X111264Y-40186D01*
X111745Y-41110D01*
X111712Y-41143D01*
X111649Y-41295D01*
X111649Y-41459D01*
X111712Y-41611D01*
X111828Y-41728D01*
X111980Y-41791D01*
X112144Y-41791D01*
X112296Y-41728D01*
X112413Y-41612D01*
X112476Y-41460D01*
X112476Y-41296D01*
X112413Y-41144D01*
X112297Y-41027D01*
X112145Y-40964D01*
X112024Y-40964D01*
X111595Y-40140D01*
X111684Y-40141D01*
X111785Y-40099D01*
X111863Y-40021D01*
X111905Y-39920D01*
X111905Y-39810D01*
X111875Y-39739D01*
X112453Y-38663D01*
X112457Y-38677D01*
X112464Y-38705D01*
X112488Y-38754D01*
X112488Y-38754D01*
X112690Y-39176D01*
X112655Y-39260D01*
X112655Y-39370D01*
X112697Y-39471D01*
X112774Y-39549D01*
X112876Y-39591D01*
X112985Y-39591D01*
X113087Y-39549D01*
X113164Y-39472D01*
X113206Y-39370D01*
X113206Y-39261D01*
X113164Y-39159D01*
X113087Y-39082D01*
X112986Y-39040D01*
X112974Y-39040D01*
X112871Y-38826D01*
X112921Y-38826D01*
X114647Y-41175D01*
X114650Y-41183D01*
X114673Y-41213D01*
X114677Y-41217D01*
X114680Y-41222D01*
X114700Y-41238D01*
X114718Y-41255D01*
X114723Y-41257D01*
X114728Y-41260D01*
X114795Y-41294D01*
X114801Y-41296D01*
X114806Y-41299D01*
X114830Y-41304D01*
X114854Y-41311D01*
X114861Y-41310D01*
X114867Y-41311D01*
X114904Y-41311D01*
X116204Y-41311D01*
X116283Y-41311D01*
X116310Y-41306D01*
X116336Y-41302D01*
X116484Y-41249D01*
X116505Y-41237D01*
X116531Y-41223D01*
X116653Y-41124D01*
X116668Y-41106D01*
X116688Y-41084D01*
X116770Y-40949D01*
X116779Y-40925D01*
X116790Y-40899D01*
X116805Y-40826D01*
X116850Y-40933D01*
X116967Y-41051D01*
X117121Y-41114D01*
X117287Y-41115D01*
X117441Y-41051D01*
X117558Y-40934D01*
X117622Y-40780D01*
X117622Y-40614D01*
X117559Y-40460D01*
X117441Y-40342D01*
X117288Y-40278D01*
X117166Y-40278D01*
X117071Y-40094D01*
X117121Y-40114D01*
X117287Y-40115D01*
X117441Y-40051D01*
X117558Y-39934D01*
X117596Y-39842D01*
X117642Y-39944D01*
X117643Y-39946D01*
X117643Y-39949D01*
X117655Y-39973D01*
X117657Y-39975D01*
X117657Y-39978D01*
X117886Y-40423D01*
X117850Y-40459D01*
X117786Y-40613D01*
X117786Y-40779D01*
X117850Y-40933D01*
X117967Y-41051D01*
X118121Y-41114D01*
X118287Y-41115D01*
X118441Y-41051D01*
X118558Y-40934D01*
X118622Y-40780D01*
X118622Y-40614D01*
X118559Y-40460D01*
X118441Y-40342D01*
X118288Y-40278D01*
X118166Y-40278D01*
X118071Y-40094D01*
X118121Y-40114D01*
X118287Y-40115D01*
X118441Y-40051D01*
X118558Y-39934D01*
X118596Y-39842D01*
X118642Y-39944D01*
X118643Y-39946D01*
X118643Y-39949D01*
X118655Y-39973D01*
X118657Y-39975D01*
X118657Y-39978D01*
X118886Y-40423D01*
X118850Y-40459D01*
X118786Y-40613D01*
X118786Y-40779D01*
X118850Y-40933D01*
X118967Y-41051D01*
X119121Y-41114D01*
X119287Y-41115D01*
X119441Y-41051D01*
X119558Y-40934D01*
X119622Y-40780D01*
X119622Y-40614D01*
X119622Y-41988D01*
X110577Y-41988D01*
X110577Y-41629D01*
X110577Y-41126D01*
X110577Y-41038D01*
X110544Y-40958D01*
X110482Y-40896D01*
X110401Y-40862D01*
X110198Y-40862D01*
X110143Y-40917D01*
X110143Y-41297D01*
X110523Y-41297D01*
X110577Y-41242D01*
X110577Y-41126D01*
X110577Y-41629D01*
X110577Y-41513D01*
X110523Y-41458D01*
X110143Y-41458D01*
X110143Y-41837D01*
X110198Y-41892D01*
X110401Y-41892D01*
X110482Y-41859D01*
X110544Y-41797D01*
X110577Y-41717D01*
X110577Y-41629D01*
X110577Y-41988D01*
X109982Y-41988D01*
X109982Y-41837D01*
X109982Y-41458D01*
X109982Y-41297D01*
X109982Y-40917D01*
X109927Y-40862D01*
X109724Y-40862D01*
X109643Y-40896D01*
X109581Y-40958D01*
X109548Y-41038D01*
X109547Y-41126D01*
X109548Y-41242D01*
X109602Y-41297D01*
X109982Y-41297D01*
X109982Y-41458D01*
X109602Y-41458D01*
X109548Y-41513D01*
X109547Y-41629D01*
X109548Y-41717D01*
X109581Y-41797D01*
X109643Y-41859D01*
X109724Y-41892D01*
X109927Y-41892D01*
X109982Y-41837D01*
X109982Y-41988D01*
X109161Y-41988D01*
X109161Y-40805D01*
X109151Y-40248D01*
X108956Y-39778D01*
X108782Y-39638D01*
X108668Y-39752D01*
X108668Y-39525D01*
X108529Y-39350D01*
X108010Y-39145D01*
X107453Y-39155D01*
X106982Y-39350D01*
X106843Y-39525D01*
X107755Y-40437D01*
X108668Y-39525D01*
X108668Y-39752D01*
X107869Y-40551D01*
X108782Y-41463D01*
X108956Y-41324D01*
X109161Y-40805D01*
X109161Y-41988D01*
X108668Y-41988D01*
X108668Y-41577D01*
X107755Y-40664D01*
X107642Y-40778D01*
X107642Y-40551D01*
X106729Y-39638D01*
X106555Y-39778D01*
X106350Y-40296D01*
X106360Y-40853D01*
X106555Y-41324D01*
X106729Y-41463D01*
X107642Y-40551D01*
X107642Y-40778D01*
X106843Y-41577D01*
X106982Y-41751D01*
X107501Y-41956D01*
X108058Y-41946D01*
X108529Y-41751D01*
X108668Y-41577D01*
X108668Y-41988D01*
X104126Y-41988D01*
X104126Y-32083D01*
X104063Y-31931D01*
X103947Y-31815D01*
X103795Y-31752D01*
X103630Y-31751D01*
X103478Y-31814D01*
X103362Y-31930D01*
X103333Y-31999D01*
X103333Y-31236D01*
X103333Y-30732D01*
X103333Y-30645D01*
X103300Y-30564D01*
X103238Y-30502D01*
X103157Y-30469D01*
X102954Y-30469D01*
X102899Y-30524D01*
X102899Y-30903D01*
X103278Y-30903D01*
X103333Y-30849D01*
X103333Y-30732D01*
X103333Y-31236D01*
X103333Y-31119D01*
X103278Y-31064D01*
X102899Y-31064D01*
X102899Y-31444D01*
X102954Y-31499D01*
X103157Y-31499D01*
X103238Y-31465D01*
X103300Y-31404D01*
X103333Y-31323D01*
X103333Y-31236D01*
X103333Y-31999D01*
X103299Y-32082D01*
X103299Y-32247D01*
X103361Y-32399D01*
X103478Y-32515D01*
X103630Y-32578D01*
X103794Y-32578D01*
X103946Y-32516D01*
X104062Y-32399D01*
X104125Y-32247D01*
X104126Y-32083D01*
X104126Y-41988D01*
X102739Y-41988D01*
X102739Y-37791D01*
X102739Y-37090D01*
X102739Y-37047D01*
X102739Y-37003D01*
X102739Y-36303D01*
X102739Y-36259D01*
X102739Y-36216D01*
X102739Y-35515D01*
X102739Y-35472D01*
X102739Y-35428D01*
X102739Y-34728D01*
X102739Y-34641D01*
X102738Y-34639D01*
X102738Y-31444D01*
X102738Y-31064D01*
X102738Y-30903D01*
X102738Y-30524D01*
X102683Y-30469D01*
X102480Y-30469D01*
X102399Y-30502D01*
X102337Y-30564D01*
X102303Y-30645D01*
X102303Y-30732D01*
X102303Y-30849D01*
X102358Y-30903D01*
X102738Y-30903D01*
X102738Y-31064D01*
X102358Y-31064D01*
X102303Y-31119D01*
X102303Y-31236D01*
X102303Y-31323D01*
X102337Y-31404D01*
X102399Y-31465D01*
X102480Y-31499D01*
X102683Y-31499D01*
X102738Y-31444D01*
X102738Y-34639D01*
X102705Y-34560D01*
X102643Y-34498D01*
X102563Y-34465D01*
X102261Y-34465D01*
X102206Y-34520D01*
X102206Y-34998D01*
X102684Y-34998D01*
X102739Y-34943D01*
X102739Y-34728D01*
X102739Y-35428D01*
X102739Y-35213D01*
X102684Y-35159D01*
X102206Y-35159D01*
X102206Y-35307D01*
X102206Y-35637D01*
X102206Y-35785D01*
X102684Y-35785D01*
X102739Y-35730D01*
X102739Y-35515D01*
X102739Y-36216D01*
X102739Y-36001D01*
X102684Y-35946D01*
X102206Y-35946D01*
X102206Y-36095D01*
X102206Y-36424D01*
X102206Y-36573D01*
X102684Y-36573D01*
X102739Y-36518D01*
X102739Y-36303D01*
X102739Y-37003D01*
X102739Y-36788D01*
X102684Y-36733D01*
X102206Y-36733D01*
X102206Y-36882D01*
X102206Y-37212D01*
X102206Y-37360D01*
X102684Y-37360D01*
X102739Y-37305D01*
X102739Y-37090D01*
X102739Y-37791D01*
X102739Y-37576D01*
X102684Y-37521D01*
X102206Y-37521D01*
X102206Y-37999D01*
X102261Y-38054D01*
X102563Y-38054D01*
X102643Y-38020D01*
X102705Y-37959D01*
X102739Y-37878D01*
X102739Y-37791D01*
X102739Y-41988D01*
X102045Y-41988D01*
X102045Y-37999D01*
X102045Y-37521D01*
X102045Y-37360D01*
X102045Y-37212D01*
X102045Y-36882D01*
X102045Y-36733D01*
X102045Y-36573D01*
X102045Y-36424D01*
X102045Y-36095D01*
X102045Y-35946D01*
X102045Y-35785D01*
X102045Y-35637D01*
X102045Y-35307D01*
X102045Y-35159D01*
X102045Y-34998D01*
X102045Y-34520D01*
X101990Y-34465D01*
X101775Y-34465D01*
X101775Y-34465D01*
X101732Y-34465D01*
X101688Y-34465D01*
X101688Y-34465D01*
X101473Y-34465D01*
X101418Y-34520D01*
X101418Y-34998D01*
X101567Y-34998D01*
X101897Y-34998D01*
X102045Y-34998D01*
X102045Y-35159D01*
X101897Y-35159D01*
X101567Y-35159D01*
X101418Y-35159D01*
X101418Y-35307D01*
X101418Y-35637D01*
X101418Y-35785D01*
X101567Y-35785D01*
X101897Y-35785D01*
X102045Y-35785D01*
X102045Y-35946D01*
X101897Y-35946D01*
X101567Y-35946D01*
X101418Y-35946D01*
X101418Y-36095D01*
X101418Y-36424D01*
X101418Y-36573D01*
X101567Y-36573D01*
X101897Y-36573D01*
X102045Y-36573D01*
X102045Y-36733D01*
X101897Y-36733D01*
X101567Y-36733D01*
X101418Y-36733D01*
X101418Y-36882D01*
X101418Y-37212D01*
X101418Y-37360D01*
X101567Y-37360D01*
X101897Y-37360D01*
X102045Y-37360D01*
X102045Y-37521D01*
X101897Y-37521D01*
X101567Y-37521D01*
X101418Y-37521D01*
X101418Y-37999D01*
X101473Y-38054D01*
X101688Y-38054D01*
X101688Y-38054D01*
X101732Y-38054D01*
X101775Y-38054D01*
X101775Y-38054D01*
X101990Y-38054D01*
X102045Y-37999D01*
X102045Y-41988D01*
X101258Y-41988D01*
X101258Y-37999D01*
X101258Y-37521D01*
X101258Y-37360D01*
X101258Y-37212D01*
X101258Y-36882D01*
X101258Y-36733D01*
X101258Y-36573D01*
X101258Y-36424D01*
X101258Y-36095D01*
X101258Y-35946D01*
X101258Y-35785D01*
X101258Y-35637D01*
X101258Y-35307D01*
X101258Y-35159D01*
X101258Y-34998D01*
X101258Y-34520D01*
X101203Y-34465D01*
X100988Y-34465D01*
X100988Y-34465D01*
X100944Y-34465D01*
X100901Y-34465D01*
X100901Y-34465D01*
X100686Y-34465D01*
X100631Y-34520D01*
X100631Y-34998D01*
X100780Y-34998D01*
X101109Y-34998D01*
X101258Y-34998D01*
X101258Y-35159D01*
X101109Y-35159D01*
X100780Y-35159D01*
X100631Y-35159D01*
X100631Y-35307D01*
X100631Y-35637D01*
X100631Y-35785D01*
X100780Y-35785D01*
X101109Y-35785D01*
X101258Y-35785D01*
X101258Y-35946D01*
X101109Y-35946D01*
X100780Y-35946D01*
X100631Y-35946D01*
X100631Y-36095D01*
X100631Y-36424D01*
X100631Y-36573D01*
X100780Y-36573D01*
X101109Y-36573D01*
X101258Y-36573D01*
X101258Y-36733D01*
X101109Y-36733D01*
X100780Y-36733D01*
X100631Y-36733D01*
X100631Y-36882D01*
X100631Y-37212D01*
X100631Y-37360D01*
X100780Y-37360D01*
X101109Y-37360D01*
X101258Y-37360D01*
X101258Y-37521D01*
X101109Y-37521D01*
X100780Y-37521D01*
X100631Y-37521D01*
X100631Y-37999D01*
X100686Y-38054D01*
X100901Y-38054D01*
X100901Y-38054D01*
X100944Y-38054D01*
X100988Y-38054D01*
X100988Y-38054D01*
X101203Y-38054D01*
X101258Y-37999D01*
X101258Y-41988D01*
X100470Y-41988D01*
X100470Y-37999D01*
X100470Y-37521D01*
X100470Y-37360D01*
X100470Y-37212D01*
X100470Y-36882D01*
X100470Y-36733D01*
X100470Y-36573D01*
X100470Y-36424D01*
X100470Y-36095D01*
X100470Y-35946D01*
X100470Y-35785D01*
X100470Y-35637D01*
X100470Y-35307D01*
X100470Y-35159D01*
X100470Y-34998D01*
X100470Y-34520D01*
X100415Y-34465D01*
X100201Y-34465D01*
X100200Y-34465D01*
X100157Y-34465D01*
X100113Y-34465D01*
X100113Y-34465D01*
X99899Y-34465D01*
X99844Y-34520D01*
X99844Y-34998D01*
X99992Y-34998D01*
X100322Y-34998D01*
X100470Y-34998D01*
X100470Y-35159D01*
X100322Y-35159D01*
X99992Y-35159D01*
X99844Y-35159D01*
X99844Y-35307D01*
X99844Y-35637D01*
X99844Y-35785D01*
X99992Y-35785D01*
X100322Y-35785D01*
X100470Y-35785D01*
X100470Y-35946D01*
X100322Y-35946D01*
X99992Y-35946D01*
X99844Y-35946D01*
X99844Y-36095D01*
X99844Y-36424D01*
X99844Y-36573D01*
X99992Y-36573D01*
X100322Y-36573D01*
X100470Y-36573D01*
X100470Y-36733D01*
X100322Y-36733D01*
X99992Y-36733D01*
X99844Y-36733D01*
X99844Y-36882D01*
X99844Y-37212D01*
X99844Y-37360D01*
X99992Y-37360D01*
X100322Y-37360D01*
X100470Y-37360D01*
X100470Y-37521D01*
X100322Y-37521D01*
X99992Y-37521D01*
X99844Y-37521D01*
X99844Y-37999D01*
X99899Y-38054D01*
X100113Y-38054D01*
X100113Y-38054D01*
X100157Y-38054D01*
X100200Y-38054D01*
X100201Y-38054D01*
X100415Y-38054D01*
X100470Y-37999D01*
X100470Y-41988D01*
X99389Y-41988D01*
X99389Y-38054D01*
X99413Y-38054D01*
X99413Y-38054D01*
X99628Y-38054D01*
X99683Y-37999D01*
X99683Y-37521D01*
X99675Y-37521D01*
X99675Y-37360D01*
X99683Y-37360D01*
X99683Y-37212D01*
X99683Y-36882D01*
X99683Y-36733D01*
X99675Y-36733D01*
X99675Y-36573D01*
X99683Y-36573D01*
X99683Y-36424D01*
X99683Y-36095D01*
X99683Y-35946D01*
X99675Y-35946D01*
X99675Y-35785D01*
X99683Y-35785D01*
X99683Y-35637D01*
X99683Y-35307D01*
X99683Y-35159D01*
X99675Y-35159D01*
X99675Y-34998D01*
X99683Y-34998D01*
X99683Y-34520D01*
X99628Y-34465D01*
X99413Y-34465D01*
X99413Y-34465D01*
X99389Y-34465D01*
X99389Y-30452D01*
X127027Y-30452D01*
X127027Y-31082D01*
X124960Y-31082D01*
X124907Y-31093D01*
X124863Y-31123D01*
X124833Y-31167D01*
X124822Y-31220D01*
X124822Y-34291D01*
X124833Y-34344D01*
X124863Y-34388D01*
X124907Y-34418D01*
X124960Y-34429D01*
X127027Y-34429D01*
X127027Y-36536D01*
X126870Y-36156D01*
X126695Y-36016D01*
X126581Y-36130D01*
X126581Y-35903D01*
X126442Y-35728D01*
X125924Y-35523D01*
X125366Y-35533D01*
X124896Y-35728D01*
X124756Y-35903D01*
X125669Y-36815D01*
X126581Y-35903D01*
X126581Y-36130D01*
X125782Y-36929D01*
X126695Y-37841D01*
X126870Y-37702D01*
X127027Y-37302D01*
X127027Y-41988D01*
M02*
